<?xml version="1.0" encoding="UTF-8" standalone="no"?><svg xmlns="http://www.w3.org/2000/svg" xmlns:xlink="http://www.w3.org/1999/xlink" contentScriptType="application/ecmascript" contentStyleType="text/css" height="727px" preserveAspectRatio="none" style="width:1536px;height:727px;" version="1.1" viewBox="0 0 1536 727" width="1536px" zoomAndPan="magnify"><defs><linearGradient id="gutj4nasj6u7u0" x1="0%" x2="100%" y1="0%" y2="100%"><stop offset="0%" stop-color="#F0F0F0"/><stop offset="100%" stop-color="#C0C0C0"/></linearGradient><filter height="300%" id="futj4nasj6u7u" width="300%" x="-1" y="-1"><feGaussianBlur result="blurOut" stdDeviation="2.0"/><feColorMatrix in="blurOut" result="blurOut2" type="matrix" values="0 0 0 0 0 0 0 0 0 0 0 0 0 0 0 0 0 0 .4 0"/><feOffset dx="4.0" dy="4.0" in="blurOut2" result="blurOut3"/><feBlend in="SourceGraphic" in2="blurOut3" mode="normal"/></filter></defs><g><text fill="#000000" font-family="sans-serif" font-size="18" lengthAdjust="spacingAndGlyphs" textLength="359" x="592" y="16.708">The PlantUML class annotation processor</text><!--class PlantUmlClassDiagramProcessor--><rect fill="url(#gutj4nasj6u7u0)" filter="url(#futj4nasj6u7u)" height="52.8047" id="PlantUmlClassDiagramProcessor" style="stroke: #808080; stroke-width: 1.5;" width="459" x="837" y="28.9531"/><ellipse cx="971.25" cy="44.9531" fill="#ADD1B2" rx="11" ry="11" style="stroke: #808080; stroke-width: 1.0;"/><path d="M973.7188,51.0938 Q973.1406,51.3906 972.5,51.5313 Q971.8594,51.6875 971.1563,51.6875 Q968.6563,51.6875 967.3281,50.0469 Q966.0156,48.3906 966.0156,45.2656 Q966.0156,42.1406 967.3281,40.4844 Q968.6563,38.8281 971.1563,38.8281 Q971.8594,38.8281 972.5,38.9844 Q973.1563,39.1406 973.7188,39.4375 L973.7188,42.1563 Q973.0938,41.5781 972.5,41.3125 Q971.9063,41.0313 971.2813,41.0313 Q969.9375,41.0313 969.25,42.1094 Q968.5625,43.1719 968.5625,45.2656 Q968.5625,47.3594 969.25,48.4375 Q969.9375,49.5 971.2813,49.5 Q971.9063,49.5 972.5,49.2344 Q973.0938,48.9531 973.7188,48.375 L973.7188,51.0938 Z "/><text fill="#000000" font-family="sans-serif" font-size="12" lengthAdjust="spacingAndGlyphs" textLength="182" x="991.75" y="49.1074">PlantUmlClassDiagramProcessor</text><line style="stroke: #808080; stroke-width: 1.5;" x1="838" x2="1295" y1="60.9531" y2="60.9531"/><text fill="#000000" font-family="sans-serif" font-size="11" lengthAdjust="spacingAndGlyphs" textLength="447" x="843" y="75.1636">boolean process(Set&lt;? extends TypeElement&gt; annotations, RoundEnvironment roundEnv)</text><!--class ClassDiagram--><rect fill="url(#gutj4nasj6u7u0)" filter="url(#futj4nasj6u7u)" height="137.6328" id="ClassDiagram" style="stroke: #808080; stroke-width: 1.5;" width="282" x="925.5" y="158.9531"/><ellipse cx="1023.25" cy="174.9531" fill="#ADD1B2" rx="11" ry="11" style="stroke: #808080; stroke-width: 1.0;"/><path d="M1025.7188,181.0938 Q1025.1406,181.3906 1024.5,181.5313 Q1023.8594,181.6875 1023.1563,181.6875 Q1020.6563,181.6875 1019.3281,180.0469 Q1018.0156,178.3906 1018.0156,175.2656 Q1018.0156,172.1406 1019.3281,170.4844 Q1020.6563,168.8281 1023.1563,168.8281 Q1023.8594,168.8281 1024.5,168.9844 Q1025.1563,169.1406 1025.7188,169.4375 L1025.7188,172.1563 Q1025.0938,171.5781 1024.5,171.3125 Q1023.9063,171.0313 1023.2813,171.0313 Q1021.9375,171.0313 1021.25,172.1094 Q1020.5625,173.1719 1020.5625,175.2656 Q1020.5625,177.3594 1021.25,178.4375 Q1021.9375,179.5 1023.2813,179.5 Q1023.9063,179.5 1024.5,179.2344 Q1025.0938,178.9531 1025.7188,178.375 L1025.7188,181.0938 Z "/><text fill="#000000" font-family="sans-serif" font-size="12" lengthAdjust="spacingAndGlyphs" textLength="78" x="1043.75" y="179.1074">ClassDiagram</text><line style="stroke: #808080; stroke-width: 1.5;" x1="926.5" x2="1206.5" y1="190.9531" y2="190.9531"/><text fill="#000000" font-family="sans-serif" font-size="11" lengthAdjust="spacingAndGlyphs" textLength="52" x="931.5" y="205.1636">String title</text><text fill="#000000" font-family="sans-serif" font-size="11" lengthAdjust="spacingAndGlyphs" textLength="127" x="931.5" y="217.9683">List&lt;String&gt; includeFiles</text><text fill="#000000" font-family="sans-serif" font-size="11" lengthAdjust="spacingAndGlyphs" textLength="108" x="931.5" y="230.7729">List&lt;TypePart&gt; parts</text><line style="stroke: #808080; stroke-width: 1.5;" x1="926.5" x2="1206.5" y1="237.3672" y2="237.3672"/><text fill="#000000" font-family="sans-serif" font-size="11" lengthAdjust="spacingAndGlyphs" textLength="266" x="931.5" y="251.5776">List&lt;IntrinsicRelationPart&gt; getInheritanceRelations()</text><text fill="#000000" font-family="sans-serif" font-size="11" lengthAdjust="spacingAndGlyphs" textLength="226" x="931.5" y="264.3823">List&lt;IntrinsicRelationPart&gt; getAssociations()</text><text fill="#000000" font-family="sans-serif" font-size="11" lengthAdjust="spacingAndGlyphs" textLength="270" x="931.5" y="277.187">List&lt;AdditionalRelationPart&gt; getAdditionalRelations()</text><text fill="#000000" font-family="sans-serif" font-size="11" lengthAdjust="spacingAndGlyphs" textLength="236" x="931.5" y="289.9917">String simpleTypeName(TypeMirror typeMirror)</text><path d="M1242.5,207.9531 L1242.5,223.9531 L1207.6641,227.9531 L1242.5,231.9531 L1242.5,248.2188 A0,0 0 0 0 1242.5,248.2188 L1524.5,248.2188 A0,0 0 0 0 1524.5,248.2188 L1524.5,217.9531 L1514.5,207.9531 L1242.5,207.9531 A0,0 0 0 0 1242.5,207.9531 " fill="#FFFFAA" filter="url(#futj4nasj6u7u)" style="stroke: #808080; stroke-width: 1.0;"/><path d="M1514.5,207.9531 L1514.5,217.9531 L1524.5,217.9531 L1514.5,207.9531 " fill="#FFFFAA" style="stroke: #808080; stroke-width: 1.0;"/><text fill="#000000" font-family="sans-serif" font-size="13" lengthAdjust="spacingAndGlyphs" textLength="248" x="1248.5" y="225.02">Used as input for a freemarker template</text><text fill="#000000" font-family="sans-serif" font-size="13" lengthAdjust="spacingAndGlyphs" textLength="261" x="1248.5" y="240.1528">that uses the provided fields and methods</text><!--class RelationId--><rect fill="url(#gutj4nasj6u7u0)" filter="url(#futj4nasj6u7u)" height="32" id="RelationId" style="stroke: #808080; stroke-width: 1.5;" width="88" x="484.5" y="474.9531"/><ellipse cx="499.5" cy="490.9531" fill="#ADD1B2" rx="11" ry="11" style="stroke: #808080; stroke-width: 1.0;"/><path d="M501.9688,497.0938 Q501.3906,497.3906 500.75,497.5313 Q500.1094,497.6875 499.4063,497.6875 Q496.9063,497.6875 495.5781,496.0469 Q494.2656,494.3906 494.2656,491.2656 Q494.2656,488.1406 495.5781,486.4844 Q496.9063,484.8281 499.4063,484.8281 Q500.1094,484.8281 500.75,484.9844 Q501.4063,485.1406 501.9688,485.4375 L501.9688,488.1563 Q501.3438,487.5781 500.75,487.3125 Q500.1563,487.0313 499.5313,487.0313 Q498.1875,487.0313 497.5,488.1094 Q496.8125,489.1719 496.8125,491.2656 Q496.8125,493.3594 497.5,494.4375 Q498.1875,495.5 499.5313,495.5 Q500.1563,495.5 500.75,495.2344 Q501.3438,494.9531 501.9688,494.375 L501.9688,497.0938 Z "/><text fill="#000000" font-family="sans-serif" font-size="12" lengthAdjust="spacingAndGlyphs" textLength="56" x="513.5" y="495.1074">RelationId</text><!--class IntrinsicRelationPart--><rect fill="url(#gutj4nasj6u7u0)" filter="url(#futj4nasj6u7u)" height="91.2188" id="IntrinsicRelationPart" style="stroke: #808080; stroke-width: 1.5;" width="143" x="317" y="182.4531"/><ellipse cx="332" cy="198.4531" fill="#ADD1B2" rx="11" ry="11" style="stroke: #808080; stroke-width: 1.0;"/><path d="M334.4688,204.5938 Q333.8906,204.8906 333.25,205.0313 Q332.6094,205.1875 331.9063,205.1875 Q329.4063,205.1875 328.0781,203.5469 Q326.7656,201.8906 326.7656,198.7656 Q326.7656,195.6406 328.0781,193.9844 Q329.4063,192.3281 331.9063,192.3281 Q332.6094,192.3281 333.25,192.4844 Q333.9063,192.6406 334.4688,192.9375 L334.4688,195.6563 Q333.8438,195.0781 333.25,194.8125 Q332.6563,194.5313 332.0313,194.5313 Q330.6875,194.5313 330,195.6094 Q329.3125,196.6719 329.3125,198.7656 Q329.3125,200.8594 330,201.9375 Q330.6875,203 332.0313,203 Q332.6563,203 333.25,202.7344 Q333.8438,202.4531 334.4688,201.875 L334.4688,204.5938 Z "/><text fill="#000000" font-family="sans-serif" font-size="12" lengthAdjust="spacingAndGlyphs" textLength="111" x="346" y="202.6074">IntrinsicRelationPart</text><line style="stroke: #808080; stroke-width: 1.5;" x1="318" x2="459" y1="214.4531" y2="214.4531"/><text fill="#000000" font-family="sans-serif" font-size="11" lengthAdjust="spacingAndGlyphs" textLength="62" x="323" y="228.6636">RelationId id</text><text fill="#000000" font-family="sans-serif" font-size="11" lengthAdjust="spacingAndGlyphs" textLength="84" x="323" y="241.4683">TypeElement left</text><text fill="#000000" font-family="sans-serif" font-size="11" lengthAdjust="spacingAndGlyphs" textLength="91" x="323" y="254.2729">TypeElement right</text><text fill="#000000" font-family="sans-serif" font-size="11" lengthAdjust="spacingAndGlyphs" textLength="82" x="323" y="267.0776">Relation relation</text><path d="M6,42.9531 L6,68.0859 A0,0 0 0 0 6,68.0859 L179.7507,68.0859 L330.0678,182.3442 L187.7507,68.0859 L329,68.0859 A0,0 0 0 0 329,68.0859 L329,52.9531 L319,42.9531 L6,42.9531 A0,0 0 0 0 6,42.9531 " fill="#FFFFAA" filter="url(#futj4nasj6u7u)" style="stroke: #808080; stroke-width: 1.0;"/><path d="M319,42.9531 L319,52.9531 L329,52.9531 L319,42.9531 " fill="#FFFFAA" style="stroke: #808080; stroke-width: 1.0;"/><text fill="#000000" font-family="sans-serif" font-size="13" lengthAdjust="spacingAndGlyphs" textLength="302" x="12" y="60.02">Models an inheritance relation or field association</text><!--class DiagramId--><rect fill="url(#gutj4nasj6u7u0)" filter="url(#futj4nasj6u7u)" height="32" id="DiagramId" style="stroke: #808080; stroke-width: 1.5;" width="90" x="745.5" y="684.9531"/><ellipse cx="760.5" cy="700.9531" fill="#ADD1B2" rx="11" ry="11" style="stroke: #808080; stroke-width: 1.0;"/><path d="M762.9688,707.0938 Q762.3906,707.3906 761.75,707.5313 Q761.1094,707.6875 760.4063,707.6875 Q757.9063,707.6875 756.5781,706.0469 Q755.2656,704.3906 755.2656,701.2656 Q755.2656,698.1406 756.5781,696.4844 Q757.9063,694.8281 760.4063,694.8281 Q761.1094,694.8281 761.75,694.9844 Q762.4063,695.1406 762.9688,695.4375 L762.9688,698.1563 Q762.3438,697.5781 761.75,697.3125 Q761.1563,697.0313 760.5313,697.0313 Q759.1875,697.0313 758.5,698.1094 Q757.8125,699.1719 757.8125,701.2656 Q757.8125,703.3594 758.5,704.4375 Q759.1875,705.5 760.5313,705.5 Q761.1563,705.5 761.75,705.2344 Q762.3438,704.9531 762.9688,704.375 L762.9688,707.0938 Z "/><text fill="#000000" font-family="sans-serif" font-size="12" lengthAdjust="spacingAndGlyphs" textLength="58" x="774.5" y="705.1074">DiagramId</text><!--class AdditionalRelationPart--><rect fill="url(#gutj4nasj6u7u0)" filter="url(#futj4nasj6u7u)" height="78.4141" id="AdditionalRelationPart" style="stroke: #808080; stroke-width: 1.5;" width="156" x="496.5" y="188.9531"/><ellipse cx="511.5" cy="204.9531" fill="#ADD1B2" rx="11" ry="11" style="stroke: #808080; stroke-width: 1.0;"/><path d="M513.9688,211.0938 Q513.3906,211.3906 512.75,211.5313 Q512.1094,211.6875 511.4063,211.6875 Q508.9063,211.6875 507.5781,210.0469 Q506.2656,208.3906 506.2656,205.2656 Q506.2656,202.1406 507.5781,200.4844 Q508.9063,198.8281 511.4063,198.8281 Q512.1094,198.8281 512.75,198.9844 Q513.4063,199.1406 513.9688,199.4375 L513.9688,202.1563 Q513.3438,201.5781 512.75,201.3125 Q512.1563,201.0313 511.5313,201.0313 Q510.1875,201.0313 509.5,202.1094 Q508.8125,203.1719 508.8125,205.2656 Q508.8125,207.3594 509.5,208.4375 Q510.1875,209.5 511.5313,209.5 Q512.1563,209.5 512.75,209.2344 Q513.3438,208.9531 513.9688,208.375 L513.9688,211.0938 Z "/><text fill="#000000" font-family="sans-serif" font-size="12" lengthAdjust="spacingAndGlyphs" textLength="124" x="525.5" y="209.1074">AdditionalRelationPart</text><line style="stroke: #808080; stroke-width: 1.5;" x1="497.5" x2="651.5" y1="220.9531" y2="220.9531"/><text fill="#000000" font-family="sans-serif" font-size="11" lengthAdjust="spacingAndGlyphs" textLength="62" x="502.5" y="235.1636">RelationId id</text><text fill="#000000" font-family="sans-serif" font-size="11" lengthAdjust="spacingAndGlyphs" textLength="80" x="502.5" y="247.9683">TypePart source</text><text fill="#000000" font-family="sans-serif" font-size="11" lengthAdjust="spacingAndGlyphs" textLength="128" x="502.5" y="260.7729">PlantUmlRelation relation</text><path d="M499.5,42.9531 L499.5,68.0859 A0,0 0 0 0 499.5,68.0859 L629.7939,68.0859 L589.0958,188.6129 L637.7939,68.0859 L777.5,68.0859 A0,0 0 0 0 777.5,68.0859 L777.5,52.9531 L767.5,42.9531 L499.5,42.9531 A0,0 0 0 0 499.5,42.9531 " fill="#FFFFAA" filter="url(#futj4nasj6u7u)" style="stroke: #808080; stroke-width: 1.0;"/><path d="M767.5,42.9531 L767.5,52.9531 L777.5,52.9531 L767.5,42.9531 " fill="#FFFFAA" style="stroke: #808080; stroke-width: 1.0;"/><text fill="#000000" font-family="sans-serif" font-size="13" lengthAdjust="spacingAndGlyphs" textLength="257" x="505.5" y="60.02">Models an additional dependency relation</text><!--class Relation--><rect fill="url(#gutj4nasj6u7u0)" filter="url(#futj4nasj6u7u)" height="78.4141" id="Relation" style="stroke: #808080; stroke-width: 1.5;" width="125" x="324" y="451.9531"/><ellipse cx="360.15" cy="467.9531" fill="#EB937F" rx="11" ry="11" style="stroke: #808080; stroke-width: 1.0;"/><path d="M364.2594,473.9531 L356.5406,473.9531 L356.5406,461.5625 L364.2594,461.5625 L364.2594,463.7188 L358.9938,463.7188 L358.9938,466.3906 L363.7594,466.3906 L363.7594,468.5469 L358.9938,468.5469 L358.9938,471.7969 L364.2594,471.7969 L364.2594,473.9531 Z "/><text fill="#000000" font-family="sans-serif" font-size="12" lengthAdjust="spacingAndGlyphs" textLength="46" x="378.85" y="472.1074">Relation</text><line style="stroke: #808080; stroke-width: 1.5;" x1="325" x2="448" y1="483.9531" y2="483.9531"/><text fill="#000000" font-family="sans-serif" font-size="11" lengthAdjust="spacingAndGlyphs" textLength="112" x="330" y="498.1636">Relation REALIZATION</text><text fill="#000000" font-family="sans-serif" font-size="11" lengthAdjust="spacingAndGlyphs" textLength="113" x="330" y="510.9683">Relation INHERITANCE</text><text fill="#000000" font-family="sans-serif" font-size="11" lengthAdjust="spacingAndGlyphs" textLength="113" x="330" y="523.7729">Relation ASSOCIATION</text><!--class TypePart--><rect fill="url(#gutj4nasj6u7u0)" filter="url(#futj4nasj6u7u)" height="265.6797" id="TypePart" style="stroke: #808080; stroke-width: 1.5;" width="366" x="607.5" y="357.9531"/><ellipse cx="761.25" cy="373.9531" fill="#ADD1B2" rx="11" ry="11" style="stroke: #808080; stroke-width: 1.0;"/><path d="M763.7188,380.0938 Q763.1406,380.3906 762.5,380.5313 Q761.8594,380.6875 761.1563,380.6875 Q758.6563,380.6875 757.3281,379.0469 Q756.0156,377.3906 756.0156,374.2656 Q756.0156,371.1406 757.3281,369.4844 Q758.6563,367.8281 761.1563,367.8281 Q761.8594,367.8281 762.5,367.9844 Q763.1563,368.1406 763.7188,368.4375 L763.7188,371.1563 Q763.0938,370.5781 762.5,370.3125 Q761.9063,370.0313 761.2813,370.0313 Q759.9375,370.0313 759.25,371.1094 Q758.5625,372.1719 758.5625,374.2656 Q758.5625,376.3594 759.25,377.4375 Q759.9375,378.5 761.2813,378.5 Q761.9063,378.5 762.5,378.2344 Q763.0938,377.9531 763.7188,377.375 L763.7188,380.0938 Z "/><text fill="#000000" font-family="sans-serif" font-size="12" lengthAdjust="spacingAndGlyphs" textLength="50" x="781.75" y="378.1074">TypePart</text><line style="stroke: #808080; stroke-width: 1.5;" x1="608.5" x2="972.5" y1="389.9531" y2="389.9531"/><text fill="#000000" font-family="sans-serif" font-size="11" lengthAdjust="spacingAndGlyphs" textLength="144" x="613.5" y="404.1636">Set&lt;DiagramId&gt; diagramIds</text><text fill="#000000" font-family="sans-serif" font-size="11" lengthAdjust="spacingAndGlyphs" textLength="128" x="613.5" y="416.9683">PlantUmlClass annotation</text><text fill="#000000" font-family="sans-serif" font-size="11" lengthAdjust="spacingAndGlyphs" textLength="131" x="613.5" y="429.7729">TypeElement typeElement</text><text fill="#000000" font-family="sans-serif" font-size="11" lengthAdjust="spacingAndGlyphs" textLength="136" x="613.5" y="442.5776">List&lt;PlantUmlNote&gt; notes</text><line style="stroke: #808080; stroke-width: 1.5;" x1="608.5" x2="972.5" y1="449.1719" y2="449.1719"/><text fill="#000000" font-family="sans-serif" font-size="11" lengthAdjust="spacingAndGlyphs" textLength="86" x="613.5" y="463.3823">String getName()</text><text fill="#000000" font-family="sans-serif" font-size="11" lengthAdjust="spacingAndGlyphs" textLength="210" x="613.5" y="476.187">List&lt;IntrinsicRelationPart&gt; getRelations()</text><text fill="#000000" font-family="sans-serif" font-size="11" lengthAdjust="spacingAndGlyphs" textLength="226" x="613.5" y="488.9917">List&lt;IntrinsicRelationPart&gt; getAssociations()</text><text fill="#000000" font-family="sans-serif" font-size="11" lengthAdjust="spacingAndGlyphs" textLength="270" x="613.5" y="501.7964">List&lt;AdditionalRelationPart&gt; getAdditionalRelations()</text><text fill="#000000" font-family="sans-serif" font-size="11" lengthAdjust="spacingAndGlyphs" textLength="225" x="613.5" y="514.6011">List&lt;VariableElement&gt; getAnnotatedFields()</text><text fill="#000000" font-family="sans-serif" font-size="11" lengthAdjust="spacingAndGlyphs" textLength="252" x="613.5" y="527.4058">List&lt;ExecutableElement&gt; getAnnotatedMethods()</text><text fill="#000000" font-family="sans-serif" font-size="11" lengthAdjust="spacingAndGlyphs" textLength="354" x="613.5" y="540.2104">Optional&lt;IntrinsicRelationPart&gt; associationPart(VariableElement field)</text><text fill="#000000" font-family="sans-serif" font-size="11" lengthAdjust="spacingAndGlyphs" textLength="225" x="613.5" y="553.0151">List&lt;IntrinsicRelationPart&gt; realizationParts()</text><text fill="#000000" font-family="sans-serif" font-size="11" lengthAdjust="spacingAndGlyphs" textLength="299" x="613.5" y="565.8198">Optional&lt;IntrinsicRelationPart&gt; getSuperClassAssociation()</text><text fill="#000000" font-family="sans-serif" font-size="11" lengthAdjust="spacingAndGlyphs" textLength="299" x="613.5" y="578.6245">Optional&lt;TypeElement&gt; toTypeElement(TypeMirror mirror)</text><text fill="#000000" font-family="sans-serif" font-size="11" lengthAdjust="spacingAndGlyphs" textLength="102" x="613.5" y="591.4292">boolean isInterface()</text><text fill="#000000" font-family="sans-serif" font-size="11" lengthAdjust="spacingAndGlyphs" textLength="100" x="613.5" y="604.2339">boolean isAbstract()</text><text fill="#000000" font-family="sans-serif" font-size="11" lengthAdjust="spacingAndGlyphs" textLength="86" x="613.5" y="617.0386">boolean isEnum()</text><path d="M689,215.4531 L689,240.5859 A0,0 0 0 0 689,240.5859 L785.5482,240.5859 L789.9942,357.9211 L793.5482,240.5859 L890,240.5859 A0,0 0 0 0 890,240.5859 L890,225.4531 L880,215.4531 L689,215.4531 A0,0 0 0 0 689,215.4531 " fill="#FFFFAA" filter="url(#futj4nasj6u7u)" style="stroke: #808080; stroke-width: 1.0;"/><path d="M880,215.4531 L880,225.4531 L890,225.4531 L880,215.4531 " fill="#FFFFAA" style="stroke: #808080; stroke-width: 1.0;"/><text fill="#000000" font-family="sans-serif" font-size="13" lengthAdjust="spacingAndGlyphs" textLength="180" x="695" y="232.52">Models a type in the diagram</text><!--class RelationPart--><rect fill="url(#gutj4nasj6u7u0)" filter="url(#futj4nasj6u7u)" height="52.8047" id="RelationPart" style="stroke: #808080; stroke-width: 1.5;" width="100" x="364.5" y="28.9531"/><ellipse cx="379.5" cy="44.9531" fill="#B4A7E5" rx="11" ry="11" style="stroke: #808080; stroke-width: 1.0;"/><path d="M375.9219,40.7188 L375.9219,38.5625 L383.3125,38.5625 L383.3125,40.7188 L380.8438,40.7188 L380.8438,48.7969 L383.3125,48.7969 L383.3125,50.9531 L375.9219,50.9531 L375.9219,48.7969 L378.3906,48.7969 L378.3906,40.7188 L375.9219,40.7188 Z "/><text fill="#000000" font-family="sans-serif" font-size="12" font-style="italic" lengthAdjust="spacingAndGlyphs" textLength="68" x="393.5" y="49.1074">RelationPart</text><line style="stroke: #808080; stroke-width: 1.5;" x1="365.5" x2="463.5" y1="60.9531" y2="60.9531"/><text fill="#000000" font-family="sans-serif" font-size="11" lengthAdjust="spacingAndGlyphs" textLength="86" x="370.5" y="75.1636">RelationId getId()</text><!--link RelationPart to IntrinsicRelationPart--><path d="M407.4611,102.1535 C403.7133,127.0188 399.1218,157.4816 395.3958,182.2021 " fill="none" id="RelationPart-IntrinsicRelationPart" style="stroke: #000000; stroke-width: 1.0; stroke-dasharray: 7.0,7.0;"/><polygon fill="none" points="400.5918,100.7615,410.4945,82.0282,414.4354,102.8481,400.5918,100.7615" style="stroke: #000000; stroke-width: 1.0;"/><!--link RelationPart to AdditionalRelationPart--><path d="M452.9746,96.9335 C478.873,124.8552 512.8045,161.4377 538.2295,188.8489 " fill="none" id="RelationPart-AdditionalRelationPart" style="stroke: #000000; stroke-width: 1.0; stroke-dasharray: 7.0,7.0;"/><polygon fill="none" points="447.618,101.452,439.1494,82.0282,457.8825,91.9313,447.618,101.452" style="stroke: #000000; stroke-width: 1.0;"/><!--link ClassDiagram to TypePart--><path d="M993.9842,297.0533 C975.3382,314.8211 954.6157,334.5675 933.7332,354.4664 " fill="none" id="ClassDiagram-TypePart" style="stroke: #000000; stroke-width: 1.0;"/><polygon fill="#000000" points="930.1077,357.9211,939.3827,354.6084,933.7275,354.4719,933.8639,348.8167,930.1077,357.9211" style="stroke: #000000; stroke-width: 1.0;"/><!--link IntrinsicRelationPart to RelationId--><path d="M417.4857,273.6092 C432.7125,298.2356 451.3121,329.3629 466.5,357.9531 C487.0902,396.7127 508.0458,443.5372 519.5503,470.0188 " fill="none" id="IntrinsicRelationPart-RelationId" style="stroke: #000000; stroke-width: 1.0;"/><polygon fill="#000000" points="521.5862,474.7202,521.6802,464.8718,519.5992,470.132,514.339,468.051,521.5862,474.7202" style="stroke: #000000; stroke-width: 1.0;"/><!--link IntrinsicRelationPart to Relation--><path d="M388.1539,273.464 C387.785,321.977 387.2046,398.2947 386.8386,446.4273 " fill="none" id="IntrinsicRelationPart-Relation" style="stroke: #000000; stroke-width: 1.0;"/><polygon fill="#000000" points="386.7995,451.5738,390.868,442.6046,386.8376,446.574,382.8683,442.5436,386.7995,451.5738" style="stroke: #000000; stroke-width: 1.0;"/><!--link AdditionalRelationPart to RelationId--><path d="M567.663,267.0429 C557.8025,323.4193 539.9277,425.6166 532.2113,469.7341 " fill="none" id="AdditionalRelationPart-RelationId" style="stroke: #000000; stroke-width: 1.0;"/><polygon fill="#000000" points="531.3219,474.8194,536.8129,466.6433,532.1835,469.8942,528.9326,465.2648,531.3219,474.8194" style="stroke: #000000; stroke-width: 1.0;"/><!--link AdditionalRelationPart to TypePart--><path d="M606.6041,267.0429 C625.9153,290.556 651.7726,322.0396 677.9851,353.9558 " fill="none" id="AdditionalRelationPart-TypePart" style="stroke: #000000; stroke-width: 1.0;"/><polygon fill="#000000" points="681.1831,357.8497,678.5622,348.356,678.0097,353.9858,672.3799,353.4334,681.1831,357.8497" style="stroke: #000000; stroke-width: 1.0;"/><!--link TypePart to DiagramId--><path d="M790.5,624.2469 C790.5,645.7377 790.5,665.5196 790.5,679.6103 " fill="none" id="TypePart-DiagramId" style="stroke: #000000; stroke-width: 1.0;"/><polygon fill="#000000" points="790.5,684.9115,794.5,675.9115,790.5,679.9115,786.5,675.9115,790.5,684.9115" style="stroke: #000000; stroke-width: 1.0;"/><!--link PlantUmlClassDiagramProcessor to ClassDiagram--><path d="M1066.5,82.0282 C1066.5,101.2545 1066.5,128.2404 1066.5,153.7842 " fill="none" id="PlantUmlClassDiagramProcessor-ClassDiagram" style="stroke: #000000; stroke-width: 1.0; stroke-dasharray: 7.0,7.0;"/><polygon fill="#000000" points="1066.5,158.871,1070.5,149.871,1066.5,153.871,1062.5,149.871,1066.5,158.871" style="stroke: #000000; stroke-width: 1.0;"/><text fill="#000000" font-family="sans-serif" font-size="13" lengthAdjust="spacingAndGlyphs" textLength="128" x="1067.5" y="125.02">generates/processes</text><!--
@startuml
skinparam class {
	BackgroundColor #F0F0F0/#C0C0C0
	BorderColor grey
    BackgroundColor<<new>> #e6ffe6/#b3ffb3
    BorderColor<<new>> green
    BorderColor<<new_in_context>> green
	BorderColor<<modified>> blue
	BackgroundColor<<modified>> #e6e6ff/#b3b3ff
	BackgroundColor<<required>> #ffd700/yellow
    BorderColor<<required>> orange
	ArrowColor black
}

skinParam noteBackgroundColor #FFFFAA
skinParam noteBorderColor gray
hide empty members
title The PlantUML class annotation processor

class PlantUmlClassDiagramProcessor {

    boolean process(Set<? extends TypeElement> annotations, RoundEnvironment roundEnv)
}


class ClassDiagram {
    String title
    List<String> includeFiles
    List<TypePart> parts

    List<IntrinsicRelationPart> getInheritanceRelations()
    List<IntrinsicRelationPart> getAssociations()
    List<AdditionalRelationPart> getAdditionalRelations()
    String simpleTypeName(TypeMirror typeMirror)
}

note right of ClassDiagram
Used as input for a freemarker template
that uses the provided fields and methods
end note

class RelationId

class IntrinsicRelationPart {
    RelationId id
    TypeElement left
    TypeElement right
    Relation relation

}

note top of IntrinsicRelationPart
Models an inheritance relation or field association
end note

class DiagramId

class AdditionalRelationPart {
    RelationId id
    TypePart source
    PlantUmlRelation relation

}

note top of AdditionalRelationPart
Models an additional dependency relation
end note


enum Relation {
    Relation REALIZATION
    Relation INHERITANCE
    Relation ASSOCIATION

}


class TypePart {
    Set<DiagramId> diagramIds
    PlantUmlClass annotation
    TypeElement typeElement
    List<PlantUmlNote> notes

    String getName()
    List<IntrinsicRelationPart> getRelations()
    List<IntrinsicRelationPart> getAssociations()
    List<AdditionalRelationPart> getAdditionalRelations()
    List<VariableElement> getAnnotatedFields()
    List<ExecutableElement> getAnnotatedMethods()
    Optional<IntrinsicRelationPart> associationPart(VariableElement field)
    List<IntrinsicRelationPart> realizationParts()
    Optional<IntrinsicRelationPart> getSuperClassAssociation()
    Optional<TypeElement> toTypeElement(TypeMirror mirror)
    boolean isInterface()
    boolean isAbstract()
    boolean isEnum()
}

note top of TypePart
Models a type in the diagram
end note


interface RelationPart {

    RelationId getId()
}


RelationPart <|.. IntrinsicRelationPart
RelationPart <|.. AdditionalRelationPart

ClassDiagram - -> TypePart
IntrinsicRelationPart - -> RelationId
IntrinsicRelationPart - -> Relation
AdditionalRelationPart - -> RelationId
AdditionalRelationPart - -> TypePart
TypePart - -> DiagramId
    PlantUmlClassDiagramProcessor ..> ClassDiagram: generates/processes

@enduml

PlantUML version 1.2019.06(Fri May 24 19:10:25 CEST 2019)
(APACHE source distribution)
Java Runtime: OpenJDK Runtime Environment
JVM: OpenJDK 64-Bit Server VM
Java Version: 11.0.4+10-b304.69
Operating System: Linux
OS Version: 4.15.0-64-generic
Default Encoding: UTF-8
Language: en
Country: US
--></g></svg>