<?xml version="1.0" encoding="UTF-8" standalone="no"?><svg xmlns="http://www.w3.org/2000/svg" xmlns:xlink="http://www.w3.org/1999/xlink" contentScriptType="application/ecmascript" contentStyleType="text/css" height="536px" preserveAspectRatio="none" style="width:702px;height:536px;" version="1.1" viewBox="0 0 702 536" width="702px" zoomAndPan="magnify"><defs><linearGradient id="g1250wna8qz7mj0" x1="0%" x2="100%" y1="0%" y2="100%"><stop offset="0%" stop-color="#F0F0F0"/><stop offset="100%" stop-color="#C0C0C0"/></linearGradient><filter height="300%" id="f1250wna8qz7mj" width="300%" x="-1" y="-1"><feGaussianBlur result="blurOut" stdDeviation="2.0"/><feColorMatrix in="blurOut" result="blurOut2" type="matrix" values="0 0 0 0 0 0 0 0 0 0 0 0 0 0 0 0 0 0 .4 0"/><feOffset dx="4.0" dy="4.0" in="blurOut2" result="blurOut3"/><feBlend in="SourceGraphic" in2="blurOut3" mode="normal"/></filter></defs><g><!--class PlantUmlClassDiagramProcessor--><rect fill="url(#g1250wna8qz7mj0)" filter="url(#f1250wna8qz7mj)" height="52.8047" id="PlantUmlClassDiagramProcessor" style="stroke: #808080; stroke-width: 1.5;" width="473" x="6" y="8"/><ellipse cx="147.25" cy="24" fill="#ADD1B2" rx="11" ry="11" style="stroke: #808080; stroke-width: 1.0;"/><path d="M149.7188,30.1406 Q149.1406,30.4375 148.5,30.5781 Q147.8594,30.7344 147.1563,30.7344 Q144.6563,30.7344 143.3281,29.0938 Q142.0156,27.4375 142.0156,24.3125 Q142.0156,21.1875 143.3281,19.5313 Q144.6563,17.875 147.1563,17.875 Q147.8594,17.875 148.5,18.0313 Q149.1563,18.1875 149.7188,18.4844 L149.7188,21.2031 Q149.0938,20.625 148.5,20.3594 Q147.9063,20.0781 147.2813,20.0781 Q145.9375,20.0781 145.25,21.1563 Q144.5625,22.2188 144.5625,24.3125 Q144.5625,26.4063 145.25,27.4844 Q145.9375,28.5469 147.2813,28.5469 Q147.9063,28.5469 148.5,28.2813 Q149.0938,28 149.7188,27.4219 L149.7188,30.1406 Z "/><text fill="#000000" font-family="sans-serif" font-size="12" lengthAdjust="spacingAndGlyphs" textLength="182" x="167.75" y="28.1543">PlantUmlClassDiagramProcessor</text><line style="stroke: #808080; stroke-width: 1.5;" x1="7" x2="478" y1="40" y2="40"/><ellipse cx="17" cy="51.9023" fill="#84BE84" rx="3" ry="3" style="stroke: #038048; stroke-width: 1.0;"/><text fill="#000000" font-family="sans-serif" font-size="11" lengthAdjust="spacingAndGlyphs" textLength="447" x="26" y="54.2104">boolean process(Set&lt;? extends TypeElement&gt; annotations, RoundEnvironment roundEnv)</text><!--class ClassDiagram--><rect fill="url(#g1250wna8qz7mj0)" filter="url(#f1250wna8qz7mj)" height="124.8281" id="ClassDiagram" style="stroke: #808080; stroke-width: 1.5;" width="262" x="111.5" y="138"/><ellipse cx="199.25" cy="154" fill="#ADD1B2" rx="11" ry="11" style="stroke: #808080; stroke-width: 1.0;"/><path d="M201.7188,160.1406 Q201.1406,160.4375 200.5,160.5781 Q199.8594,160.7344 199.1563,160.7344 Q196.6563,160.7344 195.3281,159.0938 Q194.0156,157.4375 194.0156,154.3125 Q194.0156,151.1875 195.3281,149.5313 Q196.6563,147.875 199.1563,147.875 Q199.8594,147.875 200.5,148.0313 Q201.1563,148.1875 201.7188,148.4844 L201.7188,151.2031 Q201.0938,150.625 200.5,150.3594 Q199.9063,150.0781 199.2813,150.0781 Q197.9375,150.0781 197.25,151.1563 Q196.5625,152.2188 196.5625,154.3125 Q196.5625,156.4063 197.25,157.4844 Q197.9375,158.5469 199.2813,158.5469 Q199.9063,158.5469 200.5,158.2813 Q201.0938,158 201.7188,157.4219 L201.7188,160.1406 Z "/><text fill="#000000" font-family="sans-serif" font-size="12" lengthAdjust="spacingAndGlyphs" textLength="78" x="219.75" y="158.1543">ClassDiagram</text><line style="stroke: #808080; stroke-width: 1.5;" x1="112.5" x2="372.5" y1="170" y2="170"/><ellipse cx="122.5" cy="181.9023" fill="none" rx="3" ry="3" style="stroke: #038048; stroke-width: 1.0;"/><text fill="#000000" font-family="sans-serif" font-size="11" lengthAdjust="spacingAndGlyphs" textLength="52" x="131.5" y="184.2104">String title</text><ellipse cx="122.5" cy="194.707" fill="none" rx="3" ry="3" style="stroke: #038048; stroke-width: 1.0;"/><text fill="#000000" font-family="sans-serif" font-size="11" lengthAdjust="spacingAndGlyphs" textLength="127" x="131.5" y="197.0151">List&lt;String&gt; includeFiles</text><ellipse cx="122.5" cy="207.5117" fill="none" rx="3" ry="3" style="stroke: #038048; stroke-width: 1.0;"/><text fill="#000000" font-family="sans-serif" font-size="11" lengthAdjust="spacingAndGlyphs" textLength="108" x="131.5" y="209.8198">List&lt;TypePart&gt; parts</text><line style="stroke: #808080; stroke-width: 1.5;" x1="112.5" x2="372.5" y1="216.4141" y2="216.4141"/><ellipse cx="122.5" cy="228.3164" fill="#84BE84" rx="3" ry="3" style="stroke: #038048; stroke-width: 1.0;"/><text fill="#000000" font-family="sans-serif" font-size="11" lengthAdjust="spacingAndGlyphs" textLength="236" x="131.5" y="230.6245">String simpleTypeName(TypeMirror typeMirror)</text><ellipse cx="122.5" cy="241.1211" fill="#84BE84" rx="3" ry="3" style="stroke: #038048; stroke-width: 1.0;"/><text fill="#000000" font-family="sans-serif" font-size="11" lengthAdjust="spacingAndGlyphs" textLength="226" x="131.5" y="243.4292">List&lt;RelationPart&gt; getInheritanceRelations()</text><ellipse cx="122.5" cy="253.9258" fill="#84BE84" rx="3" ry="3" style="stroke: #038048; stroke-width: 1.0;"/><text fill="#000000" font-family="sans-serif" font-size="11" lengthAdjust="spacingAndGlyphs" textLength="186" x="131.5" y="256.2339">List&lt;RelationPart&gt; getAssociations()</text><!--class TypePart--><rect fill="url(#g1250wna8qz7mj0)" filter="url(#f1250wna8qz7mj)" height="201.6563" id="TypePart" style="stroke: #808080; stroke-width: 1.5;" width="285" x="276" y="324"/><ellipse cx="389.25" cy="340" fill="#ADD1B2" rx="11" ry="11" style="stroke: #808080; stroke-width: 1.0;"/><path d="M391.7188,346.1406 Q391.1406,346.4375 390.5,346.5781 Q389.8594,346.7344 389.1563,346.7344 Q386.6563,346.7344 385.3281,345.0938 Q384.0156,343.4375 384.0156,340.3125 Q384.0156,337.1875 385.3281,335.5313 Q386.6563,333.875 389.1563,333.875 Q389.8594,333.875 390.5,334.0313 Q391.1563,334.1875 391.7188,334.4844 L391.7188,337.2031 Q391.0938,336.625 390.5,336.3594 Q389.9063,336.0781 389.2813,336.0781 Q387.9375,336.0781 387.25,337.1563 Q386.5625,338.2188 386.5625,340.3125 Q386.5625,342.4063 387.25,343.4844 Q387.9375,344.5469 389.2813,344.5469 Q389.9063,344.5469 390.5,344.2813 Q391.0938,344 391.7188,343.4219 L391.7188,346.1406 Z "/><text fill="#000000" font-family="sans-serif" font-size="12" lengthAdjust="spacingAndGlyphs" textLength="50" x="409.75" y="344.1543">TypePart</text><line style="stroke: #808080; stroke-width: 1.5;" x1="277" x2="560" y1="356" y2="356"/><ellipse cx="287" cy="367.9023" fill="none" rx="3" ry="3" style="stroke: #038048; stroke-width: 1.0;"/><text fill="#000000" font-family="sans-serif" font-size="11" lengthAdjust="spacingAndGlyphs" textLength="121" x="296" y="370.2104">Set&lt;String&gt; diagramIds</text><ellipse cx="287" cy="380.707" fill="none" rx="3" ry="3" style="stroke: #038048; stroke-width: 1.0;"/><text fill="#000000" font-family="sans-serif" font-size="11" lengthAdjust="spacingAndGlyphs" textLength="128" x="296" y="383.0151">PlantUmlClass annotation</text><ellipse cx="287" cy="393.5117" fill="none" rx="3" ry="3" style="stroke: #038048; stroke-width: 1.0;"/><text fill="#000000" font-family="sans-serif" font-size="11" lengthAdjust="spacingAndGlyphs" textLength="131" x="296" y="395.8198">TypeElement typeElement</text><ellipse cx="287" cy="406.3164" fill="none" rx="3" ry="3" style="stroke: #038048; stroke-width: 1.0;"/><text fill="#000000" font-family="sans-serif" font-size="11" lengthAdjust="spacingAndGlyphs" textLength="136" x="296" y="408.6245">List&lt;PlantUmlNote&gt; notes</text><line style="stroke: #808080; stroke-width: 1.5;" x1="277" x2="560" y1="415.2188" y2="415.2188"/><ellipse cx="287" cy="427.1211" fill="#84BE84" rx="3" ry="3" style="stroke: #038048; stroke-width: 1.0;"/><text fill="#000000" font-family="sans-serif" font-size="11" lengthAdjust="spacingAndGlyphs" textLength="86" x="296" y="429.4292">String getName()</text><ellipse cx="287" cy="439.9258" fill="#84BE84" rx="3" ry="3" style="stroke: #038048; stroke-width: 1.0;"/><text fill="#000000" font-family="sans-serif" font-size="11" lengthAdjust="spacingAndGlyphs" textLength="170" x="296" y="442.2339">List&lt;RelationPart&gt; getRelations()</text><ellipse cx="287" cy="452.7305" fill="#84BE84" rx="3" ry="3" style="stroke: #038048; stroke-width: 1.0;"/><text fill="#000000" font-family="sans-serif" font-size="11" lengthAdjust="spacingAndGlyphs" textLength="186" x="296" y="455.0386">List&lt;RelationPart&gt; getAssociations()</text><ellipse cx="287" cy="465.5352" fill="#84BE84" rx="3" ry="3" style="stroke: #038048; stroke-width: 1.0;"/><text fill="#000000" font-family="sans-serif" font-size="11" lengthAdjust="spacingAndGlyphs" textLength="225" x="296" y="467.8433">List&lt;VariableElement&gt; getAnnotatedFields()</text><ellipse cx="287" cy="478.3398" fill="#84BE84" rx="3" ry="3" style="stroke: #038048; stroke-width: 1.0;"/><text fill="#000000" font-family="sans-serif" font-size="11" lengthAdjust="spacingAndGlyphs" textLength="259" x="296" y="480.6479">Optional&lt;RelationPart&gt; getSuperClassAssociation()</text><ellipse cx="287" cy="491.1445" fill="#84BE84" rx="3" ry="3" style="stroke: #038048; stroke-width: 1.0;"/><text fill="#000000" font-family="sans-serif" font-size="11" lengthAdjust="spacingAndGlyphs" textLength="102" x="296" y="493.4526">boolean isInterface()</text><ellipse cx="287" cy="503.9492" fill="#84BE84" rx="3" ry="3" style="stroke: #038048; stroke-width: 1.0;"/><text fill="#000000" font-family="sans-serif" font-size="11" lengthAdjust="spacingAndGlyphs" textLength="100" x="296" y="506.2573">boolean isAbstract()</text><ellipse cx="287" cy="516.7539" fill="#84BE84" rx="3" ry="3" style="stroke: #038048; stroke-width: 1.0;"/><text fill="#000000" font-family="sans-serif" font-size="11" lengthAdjust="spacingAndGlyphs" textLength="86" x="296" y="519.062">boolean isEnum()</text><!--class RelationPart--><rect fill="url(#g1250wna8qz7mj0)" filter="url(#f1250wna8qz7mj)" height="91.2188" id="RelationPart" style="stroke: #808080; stroke-width: 1.5;" width="117" x="8" y="379.5"/><ellipse cx="30.65" cy="395.5" fill="#ADD1B2" rx="11" ry="11" style="stroke: #808080; stroke-width: 1.0;"/><path d="M33.1188,401.6406 Q32.5406,401.9375 31.9,402.0781 Q31.2594,402.2344 30.5563,402.2344 Q28.0563,402.2344 26.7281,400.5938 Q25.4156,398.9375 25.4156,395.8125 Q25.4156,392.6875 26.7281,391.0313 Q28.0563,389.375 30.5563,389.375 Q31.2594,389.375 31.9,389.5313 Q32.5563,389.6875 33.1188,389.9844 L33.1188,392.7031 Q32.4938,392.125 31.9,391.8594 Q31.3063,391.5781 30.6813,391.5781 Q29.3375,391.5781 28.65,392.6563 Q27.9625,393.7188 27.9625,395.8125 Q27.9625,397.9063 28.65,398.9844 Q29.3375,400.0469 30.6813,400.0469 Q31.3063,400.0469 31.9,399.7813 Q32.4938,399.5 33.1188,398.9219 L33.1188,401.6406 Z "/><text fill="#000000" font-family="sans-serif" font-size="12" lengthAdjust="spacingAndGlyphs" textLength="68" x="46.35" y="399.6543">RelationPart</text><line style="stroke: #808080; stroke-width: 1.5;" x1="9" x2="124" y1="411.5" y2="411.5"/><ellipse cx="19" cy="423.4023" fill="none" rx="3" ry="3" style="stroke: #038048; stroke-width: 1.0;"/><text fill="#000000" font-family="sans-serif" font-size="11" lengthAdjust="spacingAndGlyphs" textLength="62" x="28" y="425.7104">RelationId id</text><ellipse cx="19" cy="436.207" fill="none" rx="3" ry="3" style="stroke: #038048; stroke-width: 1.0;"/><text fill="#000000" font-family="sans-serif" font-size="11" lengthAdjust="spacingAndGlyphs" textLength="84" x="28" y="438.5151">TypeElement left</text><ellipse cx="19" cy="449.0117" fill="none" rx="3" ry="3" style="stroke: #038048; stroke-width: 1.0;"/><text fill="#000000" font-family="sans-serif" font-size="11" lengthAdjust="spacingAndGlyphs" textLength="91" x="28" y="451.3198">TypeElement right</text><ellipse cx="19" cy="461.8164" fill="none" rx="3" ry="3" style="stroke: #038048; stroke-width: 1.0;"/><text fill="#000000" font-family="sans-serif" font-size="11" lengthAdjust="spacingAndGlyphs" textLength="82" x="28" y="464.1245">Relation relation</text><path d="M408.5,180.5 L408.5,196.5 L373.5146,200.5 L408.5,204.5 L408.5,220.7656 A0,0 0 0 0 408.5,220.7656 L690.5,220.7656 A0,0 0 0 0 690.5,220.7656 L690.5,190.5 L680.5,180.5 L408.5,180.5 A0,0 0 0 0 408.5,180.5 " fill="#FFFFAA" filter="url(#f1250wna8qz7mj)" style="stroke: #808080; stroke-width: 1.0;"/><path d="M680.5,180.5 L680.5,190.5 L690.5,190.5 L680.5,180.5 " fill="#FFFFAA" style="stroke: #808080; stroke-width: 1.0;"/><text fill="#000000" font-family="sans-serif" font-size="13" lengthAdjust="spacingAndGlyphs" textLength="248" x="414.5" y="197.5669">Used as input for a freemarker template</text><text fill="#000000" font-family="sans-serif" font-size="13" lengthAdjust="spacingAndGlyphs" textLength="261" x="414.5" y="212.6997">that uses the provided fields and methods</text><!--class Relation--><rect fill="url(#g1250wna8qz7mj0)" filter="url(#f1250wna8qz7mj)" height="78.4141" id="Relation" style="stroke: #808080; stroke-width: 1.5;" width="81" x="160" y="386"/><ellipse cx="176.35" cy="402" fill="#EB937F" rx="11" ry="11" style="stroke: #808080; stroke-width: 1.0;"/><path d="M180.4594,408 L172.7406,408 L172.7406,395.6094 L180.4594,395.6094 L180.4594,397.7656 L175.1938,397.7656 L175.1938,400.4375 L179.9594,400.4375 L179.9594,402.5938 L175.1938,402.5938 L175.1938,405.8438 L180.4594,405.8438 L180.4594,408 Z "/><text fill="#000000" font-family="sans-serif" font-size="12" lengthAdjust="spacingAndGlyphs" textLength="46" x="190.65" y="406.1543">Relation</text><line style="stroke: #808080; stroke-width: 1.5;" x1="161" x2="240" y1="418" y2="418"/><text fill="#000000" font-family="sans-serif" font-size="11" lengthAdjust="spacingAndGlyphs" textLength="68" x="166" y="432.2104">REALIZATION</text><text fill="#000000" font-family="sans-serif" font-size="11" lengthAdjust="spacingAndGlyphs" textLength="69" x="166" y="445.0151">INHERITANCE</text><text fill="#000000" font-family="sans-serif" font-size="11" lengthAdjust="spacingAndGlyphs" textLength="69" x="166" y="457.8198">ASSOCIATION</text><!--link PlantUmlClassDiagramProcessor to ClassDiagram--><path d="M242.5,61.1708 C242.5,80.4225 242.5,107.3295 242.5,132.3699 " fill="none" id="PlantUmlClassDiagramProcessor-ClassDiagram" style="stroke: #000000; stroke-width: 1.0; stroke-dasharray: 7.0,7.0;"/><polygon fill="#000000" points="242.5,137.6815,246.5,128.6815,242.5,132.6815,238.5,128.6815,242.5,137.6815" style="stroke: #000000; stroke-width: 1.0;"/><text fill="#000000" font-family="sans-serif" font-size="13" lengthAdjust="spacingAndGlyphs" textLength="128" x="243.5" y="104.0669">generates/processes</text><!--link ClassDiagram to TypePart--><path d="M291.5258,263.0358 C305.2372,280.5255 320.5305,300.0332 335.6222,319.2837 " fill="none" id="ClassDiagram-TypePart" style="stroke: #000000; stroke-width: 1.0;"/><polygon fill="#000000" points="339.0422,323.6461,336.6373,314.0954,335.9573,319.7112,330.3415,319.0312,339.0422,323.6461" style="stroke: #000000; stroke-width: 1.0;"/><text fill="#000000" font-family="sans-serif" font-size="13" lengthAdjust="spacingAndGlyphs" textLength="22" x="310.6819" y="313.076">0..*</text><!--link ClassDiagram to RelationPart--><path d="M190.9354,263.2989 C175.2389,282.6511 158.0342,304.1022 142.5,324 C129.553,340.5839 115.6439,358.9122 103.3093,375.3523 " fill="none" id="ClassDiagram-RelationPart" style="stroke: #000000; stroke-width: 1.0;"/><polygon fill="#000000" points="100.2088,379.4891,108.8072,374.6863,103.2075,375.4881,102.4057,369.8884,100.2088,379.4891" style="stroke: #000000; stroke-width: 1.0;"/><text fill="#000000" font-family="sans-serif" font-size="13" lengthAdjust="spacingAndGlyphs" textLength="22" x="81.6861" y="368.4321">0..*</text><!--link RelationPart to Relation--><path d="M125.125,425 C134.987,425 144.849,425 154.711,425 " fill="none" id="RelationPart-Relation" style="stroke: #000000; stroke-width: 1.0;"/><polygon fill="#000000" points="159.8682,425,150.8682,421,154.8682,425,150.8682,429,159.8682,425" style="stroke: #000000; stroke-width: 1.0;"/><!--
@startuml

skinParam componentStyle uml2

skinparam class {
	BackgroundColor #F0F0F0/#C0C0C0
	BorderColor grey
    BackgroundColor<<new>> #e6ffe6/#b3ffb3
    BorderColor<<new>> green
    BorderColor<<new_in_context>> green
	BorderColor<<modified>> blue
	BackgroundColor<<modified>> #e6e6ff/#b3b3ff
	BackgroundColor<<required>> #ffd700/yellow
    BorderColor<<required>> orange
	BackgroundColor<<virtual>> #ffffff
    BorderColor<<virtual>> #ffffff
	BackgroundColor<<mapping>> #FFFFAA
    BorderColor<<mapping>> #FFFFAA
	ArrowColor black
}

hide empty members
hide <<virtual>> circle
hide <<mapping>> circle

skinparam object {
	BackgroundColor #F0F0F0/#C0C0C0
	BorderColor grey
    BackgroundColor<<new>> #e6ffe6/#b3ffb3
    BorderColor<<new>> green
	BackgroundColor<<required>> #ffd700/yellow
    BorderColor<<required>> orange
	ArrowColor black
}

skinparam entity {
	BackgroundColor #F0F0F0/#C0C0C0
	BorderColor grey
    BackgroundColor<<new>> #e6ffe6/#b3ffb3
    BorderColor<<new>> green
	BackgroundColor<<required>> #ffd700/yellow
    BorderColor<<required>> orange
	ArrowColor black
}

skinparam control {
	BackgroundColor #F0F0F0/#C0C0C0
	BorderColor grey
    BackgroundColor<<new>> #e6ffe6/#b3ffb3
    BorderColor<<new>> green
	BackgroundColor<<required>> #ffd700/yellow
    BorderColor<<required>> orange
	ArrowColor black
}

skinparam database {
	BackgroundColor #F0F0F0/#C0C0C0
	BorderColor grey
    BackgroundColor<<new>> #e6ffe6/#b3ffb3
    BorderColor<<new>> green
	BackgroundColor<<required>> #ffd700/yellow
    BorderColor<<required>> orange
	ArrowColor black
}

skinparam component {
	BackgroundColor #F0F0F0/#C0C0C0
	BorderColor grey
	BackgroundColor<<new>> #e6ffe6/#b3ffb3
    BorderColor<<new>> green
	BackgroundColor<<required>> #ffd700/yellow
    BorderColor<<required>> orange
	ArrowColor black
}

skinparam rectangle {
	BackgroundColor #F0F0F0/#C0C0C0
	BorderColor grey
    BackgroundColor<<new>> #e6ffe6/#b3ffb3
    BorderColor<<new>> green
	BackgroundColor<<required>> #ffd700/yellow
    BorderColor<<required>> orange
	ArrowColor black
}

skinparam interface {
	BackgroundColor #F0F0F0/#C0C0C0
	BorderColor grey
    BackgroundColor<<new>> #e6ffe6/#b3ffb3
    BorderColor<<new>> green
	BackgroundColor<<required>> #ffd700/yellow
    BorderColor<<required>> orange
	ArrowColor black
}

skinparam boundary {
	BackgroundColor #F0F0F0/#C0C0C0
	BorderColor grey
    BackgroundColor<<new>> #e6ffe6/#b3ffb3
    BorderColor<<new>> green
	BackgroundColor<<required>> #ffd700/yellow
    BorderColor<<required>> orange
	ArrowColor black
}

skinparam node {
	BackgroundColor #F0F0F0/#C0C0C0
	BorderColor grey
    BackgroundColor<<new>> #e6ffe6/#b3ffb3
    BorderColor<<new>> green
	BackgroundColor<<required>> #ffd700/yellow
    BorderColor<<required>> orange
	ArrowColor black
}

skinparam cloud {
	BackgroundColor #CFE9F1
	BorderColor grey
    BackgroundColor<<new>> #e6ffe6/#b3ffb3
    BorderColor<<new>> green
	BackgroundColor<<required>> #ffd700/yellow
    BorderColor<<required>> orange
	ArrowColor black
}

skinparam sequence {
    BoxBackgroundColor #FAFAFA
    BoxBorderColor grey
	ArrowColor black
	ActorBorderColor grey
	LifeLineBorderColor black
	LifeLineBackgroundColor #E0E0E0|#FFFFFF

	ParticipantBorderColor grey
	ParticipantBackgroundColor #F0F0F0/#C0C0C0
	ParticipantBorderColor<<new>> green
	ParticipantBackgroundColor<<new>> #e6ffe6/#b3ffb3
	ParticipantBorderColor<<new_in_context>> green
	ParticipantBorderColor<<modified>> blue
	ParticipantBackgroundColor<<modified>> #e6e6ff/#b3b3ff
	ParticipantBackgroundColor<<required>> #ffd700/yellow
    ParticipantBorderColor<<required>> orange
	ParticipantFontColor black

	ActorBackgroundColor #F0F0F0/#C0C0C0
    ActorBackgroundColor<<new>> #e6ffe6/#b3ffb3
}

skinparam usecase {
    BackgroundColor #E0F0FF
    BorderColor DarkSlateGray
}

skinparam activity {
	ActivityBackgroundColor #F0F0F0/#C0C0C0
	ActivityBorderColor grey
	ActivityDiamondBackgroundColor #F0F0F0/#C0C0C0
	ActivityDiamondBorderColor grey
	ArrowColor black
}

skinParam noteBackgroundColor #FFFFAA
skinParam noteBorderColor gray
hide empty members

class PlantUmlClassDiagramProcessor {
    + boolean process(Set<? extends TypeElement> annotations, RoundEnvironment roundEnv)
}

class ClassDiagram {
    + String title
    + List<String> includeFiles
    + List<TypePart> parts

    + String simpleTypeName(TypeMirror typeMirror)
    + List<RelationPart> getInheritanceRelations()
    + List<RelationPart> getAssociations()
}

class TypePart {
    + Set<String> diagramIds
    + PlantUmlClass annotation
    + TypeElement typeElement
    + List<PlantUmlNote> notes

    + String getName()
    + List<RelationPart> getRelations()
    + List<RelationPart> getAssociations()
    + List<VariableElement> getAnnotatedFields()
    + Optional<RelationPart> getSuperClassAssociation()
    + boolean isInterface()
    + boolean isAbstract()
    + boolean isEnum()
}

class RelationPart {
    + RelationId id
    + TypeElement left
    + TypeElement right
    + Relation relation
}

note right of ClassDiagram
Used as input for a freemarker template
that uses the provided fields and methods
end note

enum Relation {
    REALIZATION
    INHERITANCE
    ASSOCIATION
}

PlantUmlClassDiagramProcessor ..> ClassDiagram: generates/processes
ClassDiagram - -> "0..*" TypePart
ClassDiagram - -> "0..*" RelationPart
RelationPart -> Relation

@enduml

PlantUML version 1.2019.06(Fri May 24 19:10:25 CEST 2019)
(APACHE source distribution)
Java Runtime: OpenJDK Runtime Environment
JVM: OpenJDK 64-Bit Server VM
Java Version: 11.0.3+12-b304.39
Operating System: Linux
OS Version: 4.15.0-58-generic
Default Encoding: UTF-8
Language: en
Country: US
--></g></svg>