<?xml version="1.0" encoding="UTF-8" standalone="no"?><svg xmlns="http://www.w3.org/2000/svg" xmlns:xlink="http://www.w3.org/1999/xlink" contentScriptType="application/ecmascript" contentStyleType="text/css" height="675px" preserveAspectRatio="none" style="width:1605px;height:675px;" version="1.1" viewBox="0 0 1605 675" width="1605px" zoomAndPan="magnify"><defs><linearGradient id="g1eihfp6t5nl5h0" x1="0%" x2="100%" y1="0%" y2="100%"><stop offset="0%" stop-color="#F0F0F0"/><stop offset="100%" stop-color="#C0C0C0"/></linearGradient><filter height="300%" id="f1eihfp6t5nl5h" width="300%" x="-1" y="-1"><feGaussianBlur result="blurOut" stdDeviation="2.0"/><feColorMatrix in="blurOut" result="blurOut2" type="matrix" values="0 0 0 0 0 0 0 0 0 0 0 0 0 0 0 0 0 0 .4 0"/><feOffset dx="4.0" dy="4.0" in="blurOut2" result="blurOut3"/><feBlend in="SourceGraphic" in2="blurOut3" mode="normal"/></filter></defs><g><text fill="#000000" font-family="sans-serif" font-size="18" lengthAdjust="spacingAndGlyphs" textLength="359" x="626" y="16.708">The PlantUML class annotation processor</text><!--class PlantUmlClassDiagramProcessor--><rect fill="url(#g1eihfp6t5nl5h0)" filter="url(#f1eihfp6t5nl5h)" height="52.8047" id="PlantUmlClassDiagramProcessor" style="stroke: #808080; stroke-width: 1.5;" width="459" x="6" y="28.9531"/><ellipse cx="140.25" cy="44.9531" fill="#ADD1B2" rx="11" ry="11" style="stroke: #808080; stroke-width: 1.0;"/><path d="M142.7188,51.0938 Q142.1406,51.3906 141.5,51.5313 Q140.8594,51.6875 140.1563,51.6875 Q137.6563,51.6875 136.3281,50.0469 Q135.0156,48.3906 135.0156,45.2656 Q135.0156,42.1406 136.3281,40.4844 Q137.6563,38.8281 140.1563,38.8281 Q140.8594,38.8281 141.5,38.9844 Q142.1563,39.1406 142.7188,39.4375 L142.7188,42.1563 Q142.0938,41.5781 141.5,41.3125 Q140.9063,41.0313 140.2813,41.0313 Q138.9375,41.0313 138.25,42.1094 Q137.5625,43.1719 137.5625,45.2656 Q137.5625,47.3594 138.25,48.4375 Q138.9375,49.5 140.2813,49.5 Q140.9063,49.5 141.5,49.2344 Q142.0938,48.9531 142.7188,48.375 L142.7188,51.0938 Z "/><text fill="#000000" font-family="sans-serif" font-size="12" lengthAdjust="spacingAndGlyphs" textLength="182" x="160.75" y="49.1074">PlantUmlClassDiagramProcessor</text><line style="stroke: #808080; stroke-width: 1.5;" x1="7" x2="464" y1="60.9531" y2="60.9531"/><text fill="#000000" font-family="sans-serif" font-size="11" lengthAdjust="spacingAndGlyphs" textLength="447" x="12" y="75.1636">boolean process(Set&lt;? extends TypeElement&gt; annotations, RoundEnvironment roundEnv)</text><!--class Relation--><rect fill="url(#g1eihfp6t5nl5h0)" filter="url(#f1eihfp6t5nl5h)" height="78.4141" id="Relation" style="stroke: #808080; stroke-width: 1.5;" width="125" x="1170" y="425.9531"/><ellipse cx="1206.15" cy="441.9531" fill="#EB937F" rx="11" ry="11" style="stroke: #808080; stroke-width: 1.0;"/><path d="M1210.2594,447.9531 L1202.5406,447.9531 L1202.5406,435.5625 L1210.2594,435.5625 L1210.2594,437.7188 L1204.9938,437.7188 L1204.9938,440.3906 L1209.7594,440.3906 L1209.7594,442.5469 L1204.9938,442.5469 L1204.9938,445.7969 L1210.2594,445.7969 L1210.2594,447.9531 Z "/><text fill="#000000" font-family="sans-serif" font-size="12" lengthAdjust="spacingAndGlyphs" textLength="46" x="1224.85" y="446.1074">Relation</text><line style="stroke: #808080; stroke-width: 1.5;" x1="1171" x2="1294" y1="457.9531" y2="457.9531"/><text fill="#000000" font-family="sans-serif" font-size="11" lengthAdjust="spacingAndGlyphs" textLength="112" x="1176" y="472.1636">Relation REALIZATION</text><text fill="#000000" font-family="sans-serif" font-size="11" lengthAdjust="spacingAndGlyphs" textLength="113" x="1176" y="484.9683">Relation INHERITANCE</text><text fill="#000000" font-family="sans-serif" font-size="11" lengthAdjust="spacingAndGlyphs" textLength="113" x="1176" y="497.7729">Relation ASSOCIATION</text><!--class ClassDiagram--><rect fill="url(#g1eihfp6t5nl5h0)" filter="url(#f1eihfp6t5nl5h)" height="137.6328" id="ClassDiagram" style="stroke: #808080; stroke-width: 1.5;" width="282" x="94.5" y="158.9531"/><ellipse cx="192.25" cy="174.9531" fill="#ADD1B2" rx="11" ry="11" style="stroke: #808080; stroke-width: 1.0;"/><path d="M194.7188,181.0938 Q194.1406,181.3906 193.5,181.5313 Q192.8594,181.6875 192.1563,181.6875 Q189.6563,181.6875 188.3281,180.0469 Q187.0156,178.3906 187.0156,175.2656 Q187.0156,172.1406 188.3281,170.4844 Q189.6563,168.8281 192.1563,168.8281 Q192.8594,168.8281 193.5,168.9844 Q194.1563,169.1406 194.7188,169.4375 L194.7188,172.1563 Q194.0938,171.5781 193.5,171.3125 Q192.9063,171.0313 192.2813,171.0313 Q190.9375,171.0313 190.25,172.1094 Q189.5625,173.1719 189.5625,175.2656 Q189.5625,177.3594 190.25,178.4375 Q190.9375,179.5 192.2813,179.5 Q192.9063,179.5 193.5,179.2344 Q194.0938,178.9531 194.7188,178.375 L194.7188,181.0938 Z "/><text fill="#000000" font-family="sans-serif" font-size="12" lengthAdjust="spacingAndGlyphs" textLength="78" x="212.75" y="179.1074">ClassDiagram</text><line style="stroke: #808080; stroke-width: 1.5;" x1="95.5" x2="375.5" y1="190.9531" y2="190.9531"/><text fill="#000000" font-family="sans-serif" font-size="11" lengthAdjust="spacingAndGlyphs" textLength="52" x="100.5" y="205.1636">String title</text><text fill="#000000" font-family="sans-serif" font-size="11" lengthAdjust="spacingAndGlyphs" textLength="127" x="100.5" y="217.9683">List&lt;String&gt; includeFiles</text><text fill="#000000" font-family="sans-serif" font-size="11" lengthAdjust="spacingAndGlyphs" textLength="108" x="100.5" y="230.7729">List&lt;TypePart&gt; parts</text><line style="stroke: #808080; stroke-width: 1.5;" x1="95.5" x2="375.5" y1="237.3672" y2="237.3672"/><text fill="#000000" font-family="sans-serif" font-size="11" lengthAdjust="spacingAndGlyphs" textLength="266" x="100.5" y="251.5776">List&lt;IntrinsicRelationPart&gt; getInheritanceRelations()</text><text fill="#000000" font-family="sans-serif" font-size="11" lengthAdjust="spacingAndGlyphs" textLength="226" x="100.5" y="264.3823">List&lt;IntrinsicRelationPart&gt; getAssociations()</text><text fill="#000000" font-family="sans-serif" font-size="11" lengthAdjust="spacingAndGlyphs" textLength="270" x="100.5" y="277.187">List&lt;AdditionalRelationPart&gt; getAdditionalRelations()</text><text fill="#000000" font-family="sans-serif" font-size="11" lengthAdjust="spacingAndGlyphs" textLength="236" x="100.5" y="289.9917">String simpleTypeName(TypeMirror typeMirror)</text><path d="M411.5,207.9531 L411.5,223.9531 L376.6641,227.9531 L411.5,231.9531 L411.5,248.2188 A0,0 0 0 0 411.5,248.2188 L693.5,248.2188 A0,0 0 0 0 693.5,248.2188 L693.5,217.9531 L683.5,207.9531 L411.5,207.9531 A0,0 0 0 0 411.5,207.9531 " fill="#FFFFAA" filter="url(#f1eihfp6t5nl5h)" style="stroke: #808080; stroke-width: 1.0;"/><path d="M683.5,207.9531 L683.5,217.9531 L693.5,217.9531 L683.5,207.9531 " fill="#FFFFAA" style="stroke: #808080; stroke-width: 1.0;"/><text fill="#000000" font-family="sans-serif" font-size="13" lengthAdjust="spacingAndGlyphs" textLength="248" x="417.5" y="225.02">Used as input for a freemarker template</text><text fill="#000000" font-family="sans-serif" font-size="13" lengthAdjust="spacingAndGlyphs" textLength="261" x="417.5" y="240.1528">that uses the provided fields and methods</text><!--class DiagramId--><rect fill="url(#g1eihfp6t5nl5h0)" filter="url(#f1eihfp6t5nl5h)" height="32" id="DiagramId" style="stroke: #808080; stroke-width: 1.5;" width="90" x="784.5" y="632.9531"/><ellipse cx="799.5" cy="648.9531" fill="#ADD1B2" rx="11" ry="11" style="stroke: #808080; stroke-width: 1.0;"/><path d="M801.9688,655.0938 Q801.3906,655.3906 800.75,655.5313 Q800.1094,655.6875 799.4063,655.6875 Q796.9063,655.6875 795.5781,654.0469 Q794.2656,652.3906 794.2656,649.2656 Q794.2656,646.1406 795.5781,644.4844 Q796.9063,642.8281 799.4063,642.8281 Q800.1094,642.8281 800.75,642.9844 Q801.4063,643.1406 801.9688,643.4375 L801.9688,646.1563 Q801.3438,645.5781 800.75,645.3125 Q800.1563,645.0313 799.5313,645.0313 Q798.1875,645.0313 797.5,646.1094 Q796.8125,647.1719 796.8125,649.2656 Q796.8125,651.3594 797.5,652.4375 Q798.1875,653.5 799.5313,653.5 Q800.1563,653.5 800.75,653.2344 Q801.3438,652.9531 801.9688,652.375 L801.9688,655.0938 Z "/><text fill="#000000" font-family="sans-serif" font-size="12" lengthAdjust="spacingAndGlyphs" textLength="58" x="813.5" y="653.1074">DiagramId</text><!--class RelationPart--><rect fill="url(#g1eihfp6t5nl5h0)" filter="url(#f1eihfp6t5nl5h)" height="52.8047" id="RelationPart" style="stroke: #808080; stroke-width: 1.5;" width="100" x="1134.5" y="28.9531"/><ellipse cx="1149.5" cy="44.9531" fill="#B4A7E5" rx="11" ry="11" style="stroke: #808080; stroke-width: 1.0;"/><path d="M1145.9219,40.7188 L1145.9219,38.5625 L1153.3125,38.5625 L1153.3125,40.7188 L1150.8438,40.7188 L1150.8438,48.7969 L1153.3125,48.7969 L1153.3125,50.9531 L1145.9219,50.9531 L1145.9219,48.7969 L1148.3906,48.7969 L1148.3906,40.7188 L1145.9219,40.7188 Z "/><text fill="#000000" font-family="sans-serif" font-size="12" font-style="italic" lengthAdjust="spacingAndGlyphs" textLength="68" x="1163.5" y="49.1074">RelationPart</text><line style="stroke: #808080; stroke-width: 1.5;" x1="1135.5" x2="1233.5" y1="60.9531" y2="60.9531"/><text fill="#000000" font-family="sans-serif" font-size="11" lengthAdjust="spacingAndGlyphs" textLength="86" x="1140.5" y="75.1636">RelationId getId()</text><!--class TypePart--><rect fill="url(#g1eihfp6t5nl5h0)" filter="url(#f1eihfp6t5nl5h)" height="214.4609" id="TypePart" style="stroke: #808080; stroke-width: 1.5;" width="311" x="674" y="357.9531"/><ellipse cx="800.25" cy="373.9531" fill="#ADD1B2" rx="11" ry="11" style="stroke: #808080; stroke-width: 1.0;"/><path d="M802.7188,380.0938 Q802.1406,380.3906 801.5,380.5313 Q800.8594,380.6875 800.1563,380.6875 Q797.6563,380.6875 796.3281,379.0469 Q795.0156,377.3906 795.0156,374.2656 Q795.0156,371.1406 796.3281,369.4844 Q797.6563,367.8281 800.1563,367.8281 Q800.8594,367.8281 801.5,367.9844 Q802.1563,368.1406 802.7188,368.4375 L802.7188,371.1563 Q802.0938,370.5781 801.5,370.3125 Q800.9063,370.0313 800.2813,370.0313 Q798.9375,370.0313 798.25,371.1094 Q797.5625,372.1719 797.5625,374.2656 Q797.5625,376.3594 798.25,377.4375 Q798.9375,378.5 800.2813,378.5 Q800.9063,378.5 801.5,378.2344 Q802.0938,377.9531 802.7188,377.375 L802.7188,380.0938 Z "/><text fill="#000000" font-family="sans-serif" font-size="12" lengthAdjust="spacingAndGlyphs" textLength="50" x="820.75" y="378.1074">TypePart</text><line style="stroke: #808080; stroke-width: 1.5;" x1="675" x2="984" y1="389.9531" y2="389.9531"/><text fill="#000000" font-family="sans-serif" font-size="11" lengthAdjust="spacingAndGlyphs" textLength="144" x="680" y="404.1636">Set&lt;DiagramId&gt; diagramIds</text><text fill="#000000" font-family="sans-serif" font-size="11" lengthAdjust="spacingAndGlyphs" textLength="128" x="680" y="416.9683">PlantUmlClass annotation</text><text fill="#000000" font-family="sans-serif" font-size="11" lengthAdjust="spacingAndGlyphs" textLength="131" x="680" y="429.7729">TypeElement typeElement</text><text fill="#000000" font-family="sans-serif" font-size="11" lengthAdjust="spacingAndGlyphs" textLength="136" x="680" y="442.5776">List&lt;PlantUmlNote&gt; notes</text><line style="stroke: #808080; stroke-width: 1.5;" x1="675" x2="984" y1="449.1719" y2="449.1719"/><text fill="#000000" font-family="sans-serif" font-size="11" lengthAdjust="spacingAndGlyphs" textLength="86" x="680" y="463.3823">String getName()</text><text fill="#000000" font-family="sans-serif" font-size="11" lengthAdjust="spacingAndGlyphs" textLength="226" x="680" y="476.187">List&lt;IntrinsicRelationPart&gt; getAssociations()</text><text fill="#000000" font-family="sans-serif" font-size="11" lengthAdjust="spacingAndGlyphs" textLength="270" x="680" y="488.9917">List&lt;AdditionalRelationPart&gt; getAdditionalRelations()</text><text fill="#000000" font-family="sans-serif" font-size="11" lengthAdjust="spacingAndGlyphs" textLength="225" x="680" y="501.7964">List&lt;VariableElement&gt; getAnnotatedFields()</text><text fill="#000000" font-family="sans-serif" font-size="11" lengthAdjust="spacingAndGlyphs" textLength="252" x="680" y="514.6011">List&lt;ExecutableElement&gt; getAnnotatedMethods()</text><text fill="#000000" font-family="sans-serif" font-size="11" lengthAdjust="spacingAndGlyphs" textLength="299" x="680" y="527.4058">Optional&lt;IntrinsicRelationPart&gt; getSuperClassAssociation()</text><text fill="#000000" font-family="sans-serif" font-size="11" lengthAdjust="spacingAndGlyphs" textLength="102" x="680" y="540.2104">boolean isInterface()</text><text fill="#000000" font-family="sans-serif" font-size="11" lengthAdjust="spacingAndGlyphs" textLength="100" x="680" y="553.0151">boolean isAbstract()</text><text fill="#000000" font-family="sans-serif" font-size="11" lengthAdjust="spacingAndGlyphs" textLength="86" x="680" y="565.8198">boolean isEnum()</text><path d="M729,215.4531 L729,240.5859 A0,0 0 0 0 729,240.5859 L825.5,240.5859 L829.5,357.7101 L833.5,240.5859 L930,240.5859 A0,0 0 0 0 930,240.5859 L930,225.4531 L920,215.4531 L729,215.4531 A0,0 0 0 0 729,215.4531 " fill="#FFFFAA" filter="url(#f1eihfp6t5nl5h)" style="stroke: #808080; stroke-width: 1.0;"/><path d="M920,215.4531 L920,225.4531 L930,225.4531 L920,215.4531 " fill="#FFFFAA" style="stroke: #808080; stroke-width: 1.0;"/><text fill="#000000" font-family="sans-serif" font-size="13" lengthAdjust="spacingAndGlyphs" textLength="180" x="735" y="232.52">Models a type in the diagram</text><!--class IntrinsicRelationPart--><rect fill="url(#g1eihfp6t5nl5h0)" filter="url(#f1eihfp6t5nl5h)" height="91.2188" id="IntrinsicRelationPart" style="stroke: #808080; stroke-width: 1.5;" width="143" x="1161" y="182.4531"/><ellipse cx="1176" cy="198.4531" fill="#ADD1B2" rx="11" ry="11" style="stroke: #808080; stroke-width: 1.0;"/><path d="M1178.4688,204.5938 Q1177.8906,204.8906 1177.25,205.0313 Q1176.6094,205.1875 1175.9063,205.1875 Q1173.4063,205.1875 1172.0781,203.5469 Q1170.7656,201.8906 1170.7656,198.7656 Q1170.7656,195.6406 1172.0781,193.9844 Q1173.4063,192.3281 1175.9063,192.3281 Q1176.6094,192.3281 1177.25,192.4844 Q1177.9063,192.6406 1178.4688,192.9375 L1178.4688,195.6563 Q1177.8438,195.0781 1177.25,194.8125 Q1176.6563,194.5313 1176.0313,194.5313 Q1174.6875,194.5313 1174,195.6094 Q1173.3125,196.6719 1173.3125,198.7656 Q1173.3125,200.8594 1174,201.9375 Q1174.6875,203 1176.0313,203 Q1176.6563,203 1177.25,202.7344 Q1177.8438,202.4531 1178.4688,201.875 L1178.4688,204.5938 Z "/><text fill="#000000" font-family="sans-serif" font-size="12" lengthAdjust="spacingAndGlyphs" textLength="111" x="1190" y="202.6074">IntrinsicRelationPart</text><line style="stroke: #808080; stroke-width: 1.5;" x1="1162" x2="1303" y1="214.4531" y2="214.4531"/><text fill="#000000" font-family="sans-serif" font-size="11" lengthAdjust="spacingAndGlyphs" textLength="62" x="1167" y="228.6636">RelationId id</text><text fill="#000000" font-family="sans-serif" font-size="11" lengthAdjust="spacingAndGlyphs" textLength="84" x="1167" y="241.4683">TypeElement left</text><text fill="#000000" font-family="sans-serif" font-size="11" lengthAdjust="spacingAndGlyphs" textLength="91" x="1167" y="254.2729">TypeElement right</text><text fill="#000000" font-family="sans-serif" font-size="11" lengthAdjust="spacingAndGlyphs" textLength="82" x="1167" y="267.0776">Relation relation</text><path d="M1270,42.9531 L1270,68.0859 A0,0 0 0 0 1270,68.0859 L1412.8671,68.0859 L1285.1154,182.3442 L1420.8671,68.0859 L1593,68.0859 A0,0 0 0 0 1593,68.0859 L1593,52.9531 L1583,42.9531 L1270,42.9531 A0,0 0 0 0 1270,42.9531 " fill="#FFFFAA" filter="url(#f1eihfp6t5nl5h)" style="stroke: #808080; stroke-width: 1.0;"/><path d="M1583,42.9531 L1583,52.9531 L1593,52.9531 L1583,42.9531 " fill="#FFFFAA" style="stroke: #808080; stroke-width: 1.0;"/><text fill="#000000" font-family="sans-serif" font-size="13" lengthAdjust="spacingAndGlyphs" textLength="302" x="1276" y="60.02">Models an inheritance relation or field association</text><!--class RelationId--><rect fill="url(#g1eihfp6t5nl5h0)" filter="url(#f1eihfp6t5nl5h)" height="32" id="RelationId" style="stroke: #808080; stroke-width: 1.5;" width="88" x="1042.5" y="448.9531"/><ellipse cx="1057.5" cy="464.9531" fill="#ADD1B2" rx="11" ry="11" style="stroke: #808080; stroke-width: 1.0;"/><path d="M1059.9688,471.0938 Q1059.3906,471.3906 1058.75,471.5313 Q1058.1094,471.6875 1057.4063,471.6875 Q1054.9063,471.6875 1053.5781,470.0469 Q1052.2656,468.3906 1052.2656,465.2656 Q1052.2656,462.1406 1053.5781,460.4844 Q1054.9063,458.8281 1057.4063,458.8281 Q1058.1094,458.8281 1058.75,458.9844 Q1059.4063,459.1406 1059.9688,459.4375 L1059.9688,462.1563 Q1059.3438,461.5781 1058.75,461.3125 Q1058.1563,461.0313 1057.5313,461.0313 Q1056.1875,461.0313 1055.5,462.1094 Q1054.8125,463.1719 1054.8125,465.2656 Q1054.8125,467.3594 1055.5,468.4375 Q1056.1875,469.5 1057.5313,469.5 Q1058.1563,469.5 1058.75,469.2344 Q1059.3438,468.9531 1059.9688,468.375 L1059.9688,471.0938 Z "/><text fill="#000000" font-family="sans-serif" font-size="12" lengthAdjust="spacingAndGlyphs" textLength="56" x="1071.5" y="469.1074">RelationId</text><!--class AdditionalRelationPart--><rect fill="url(#g1eihfp6t5nl5h0)" filter="url(#f1eihfp6t5nl5h)" height="78.4141" id="AdditionalRelationPart" style="stroke: #808080; stroke-width: 1.5;" width="161" x="965" y="188.9531"/><ellipse cx="982.25" cy="204.9531" fill="#ADD1B2" rx="11" ry="11" style="stroke: #808080; stroke-width: 1.0;"/><path d="M984.7188,211.0938 Q984.1406,211.3906 983.5,211.5313 Q982.8594,211.6875 982.1563,211.6875 Q979.6563,211.6875 978.3281,210.0469 Q977.0156,208.3906 977.0156,205.2656 Q977.0156,202.1406 978.3281,200.4844 Q979.6563,198.8281 982.1563,198.8281 Q982.8594,198.8281 983.5,198.9844 Q984.1563,199.1406 984.7188,199.4375 L984.7188,202.1563 Q984.0938,201.5781 983.5,201.3125 Q982.9063,201.0313 982.2813,201.0313 Q980.9375,201.0313 980.25,202.1094 Q979.5625,203.1719 979.5625,205.2656 Q979.5625,207.3594 980.25,208.4375 Q980.9375,209.5 982.2813,209.5 Q982.9063,209.5 983.5,209.2344 Q984.0938,208.9531 984.7188,208.375 L984.7188,211.0938 Z "/><text fill="#000000" font-family="sans-serif" font-size="12" lengthAdjust="spacingAndGlyphs" textLength="124" x="996.75" y="209.1074">AdditionalRelationPart</text><line style="stroke: #808080; stroke-width: 1.5;" x1="966" x2="1125" y1="220.9531" y2="220.9531"/><text fill="#000000" font-family="sans-serif" font-size="11" lengthAdjust="spacingAndGlyphs" textLength="62" x="971" y="235.1636">RelationId id</text><text fill="#000000" font-family="sans-serif" font-size="11" lengthAdjust="spacingAndGlyphs" textLength="80" x="971" y="247.9683">TypePart source</text><text fill="#000000" font-family="sans-serif" font-size="11" lengthAdjust="spacingAndGlyphs" textLength="149" x="971" y="260.7729">PlantUmlDependency relation</text><path d="M821.5,42.9531 L821.5,68.0859 A0,0 0 0 0 821.5,68.0859 L962.7503,68.0859 L1026.115,188.6129 L970.7503,68.0859 L1099.5,68.0859 A0,0 0 0 0 1099.5,68.0859 L1099.5,52.9531 L1089.5,42.9531 L821.5,42.9531 A0,0 0 0 0 821.5,42.9531 " fill="#FFFFAA" filter="url(#f1eihfp6t5nl5h)" style="stroke: #808080; stroke-width: 1.0;"/><path d="M1089.5,42.9531 L1089.5,52.9531 L1099.5,52.9531 L1089.5,42.9531 " fill="#FFFFAA" style="stroke: #808080; stroke-width: 1.0;"/><text fill="#000000" font-family="sans-serif" font-size="13" lengthAdjust="spacingAndGlyphs" textLength="257" x="827.5" y="60.02">Models an additional dependency relation</text><!--link RelationPart to IntrinsicRelationPart--><path d="M1197.2857,101.4018 C1204.2425,126.4028 1212.8211,157.2319 1219.7693,182.2021 " fill="none" id="RelationPart-IntrinsicRelationPart" style="stroke: #000000; stroke-width: 1.0; stroke-dasharray: 7.0,7.0;"/><polygon fill="none" points="1190.5126,103.1727,1191.8948,82.0282,1204.0002,99.4196,1190.5126,103.1727" style="stroke: #000000; stroke-width: 1.0;"/><!--link RelationPart to AdditionalRelationPart--><path d="M1150.4455,97.7149 C1128.0282,125.535 1098.8925,161.6927 1077.01,188.8489 " fill="none" id="RelationPart-AdditionalRelationPart" style="stroke: #000000; stroke-width: 1.0; stroke-dasharray: 7.0,7.0;"/><polygon fill="none" points="1145.0863,93.2093,1163.0859,82.0282,1155.9876,101.9936,1145.0863,93.2093" style="stroke: #000000; stroke-width: 1.0;"/><!--link ClassDiagram to TypePart--><path d="M376.6843,289.5777 C382.6952,292.0887 388.6529,294.5565 394.5,296.9531 C484.8385,333.9814 586.5983,373.4055 668.9707,404.7507 " fill="none" id="ClassDiagram-TypePart" style="stroke: #000000; stroke-width: 1.0;"/><polygon fill="#000000" points="673.87,406.6143,666.8801,399.676,669.1967,404.8367,664.0359,407.1533,673.87,406.6143" style="stroke: #000000; stroke-width: 1.0;"/><!--link TypePart to DiagramId--><path d="M829.5,571.9867 C829.5,593.2513 829.5,613.4146 829.5,627.7652 " fill="none" id="TypePart-DiagramId" style="stroke: #000000; stroke-width: 1.0;"/><polygon fill="#000000" points="829.5,632.7806,833.5,623.7806,829.5,627.7806,825.5,623.7806,829.5,632.7806" style="stroke: #000000; stroke-width: 1.0;"/><!--link IntrinsicRelationPart to RelationId--><path d="M1204.3497,273.6491 C1172.6585,325.0931 1122.5551,406.4252 1099.2296,444.2893 " fill="none" id="IntrinsicRelationPart-RelationId" style="stroke: #000000; stroke-width: 1.0;"/><polygon fill="#000000" points="1096.5208,448.6865,1104.647,443.122,1099.1434,444.4295,1097.8358,438.9259,1096.5208,448.6865" style="stroke: #000000; stroke-width: 1.0;"/><!--link IntrinsicRelationPart to Relation--><path d="M1232.5,273.6491 C1232.5,316.0452 1232.5,378.7405 1232.5,420.676 " fill="none" id="IntrinsicRelationPart-Relation" style="stroke: #000000; stroke-width: 1.0;"/><polygon fill="#000000" points="1232.5,425.6844,1236.5,416.6844,1232.5,420.6844,1228.5,416.6844,1232.5,425.6844" style="stroke: #000000; stroke-width: 1.0;"/><!--link AdditionalRelationPart to RelationId--><path d="M1052.2703,267.0888 C1061.0207,317.6703 1075.9478,403.9563 1082.8283,443.7288 " fill="none" id="AdditionalRelationPart-RelationId" style="stroke: #000000; stroke-width: 1.0;"/><polygon fill="#000000" points="1083.7051,448.7971,1086.1122,439.2469,1082.8527,443.8703,1078.2293,440.6108,1083.7051,448.7971" style="stroke: #000000; stroke-width: 1.0;"/><!--link AdditionalRelationPart to TypePart--><path d="M1009.832,267.0888 C988.0698,290.9668 959.056,322.8013 930.6735,353.9433 " fill="none" id="AdditionalRelationPart-TypePart" style="stroke: #000000; stroke-width: 1.0;"/><polygon fill="#000000" points="927.2158,357.7371,936.2346,353.7797,930.5838,354.0417,930.3219,348.3909,927.2158,357.7371" style="stroke: #000000; stroke-width: 1.0;"/><!--link PlantUmlClassDiagramProcessor to ClassDiagram--><path d="M235.5,82.0282 C235.5,101.2545 235.5,128.2404 235.5,153.7842 " fill="none" id="PlantUmlClassDiagramProcessor-ClassDiagram" style="stroke: #000000; stroke-width: 1.0; stroke-dasharray: 7.0,7.0;"/><polygon fill="#000000" points="235.5,158.871,239.5,149.871,235.5,153.871,231.5,149.871,235.5,158.871" style="stroke: #000000; stroke-width: 1.0;"/><text fill="#000000" font-family="sans-serif" font-size="13" lengthAdjust="spacingAndGlyphs" textLength="128" x="236.5" y="125.02">generates/processes</text><!--
@startuml
skinparam class {
	BackgroundColor #F0F0F0/#C0C0C0
	BorderColor grey
    BackgroundColor<<new>> #e6ffe6/#b3ffb3
    BorderColor<<new>> green
    BorderColor<<new_in_context>> green
	BorderColor<<modified>> blue
	BackgroundColor<<modified>> #e6e6ff/#b3b3ff
	BackgroundColor<<required>> #ffd700/yellow
    BorderColor<<required>> orange
	ArrowColor black
}

skinParam noteBackgroundColor #FFFFAA
skinParam noteBorderColor gray
hide empty members
title The PlantUML class annotation processor

class PlantUmlClassDiagramProcessor {

    boolean process(Set<? extends TypeElement> annotations, RoundEnvironment roundEnv)
}


enum Relation {
    Relation REALIZATION
    Relation INHERITANCE
    Relation ASSOCIATION

}


class ClassDiagram {
    String title
    List<String> includeFiles
    List<TypePart> parts

    List<IntrinsicRelationPart> getInheritanceRelations()
    List<IntrinsicRelationPart> getAssociations()
    List<AdditionalRelationPart> getAdditionalRelations()
    String simpleTypeName(TypeMirror typeMirror)
}

note right of ClassDiagram
Used as input for a freemarker template
that uses the provided fields and methods
end note

class DiagramId

interface RelationPart {

    RelationId getId()
}


class TypePart {
    Set<DiagramId> diagramIds
    PlantUmlClass annotation
    TypeElement typeElement
    List<PlantUmlNote> notes

    String getName()
    List<IntrinsicRelationPart> getAssociations()
    List<AdditionalRelationPart> getAdditionalRelations()
    List<VariableElement> getAnnotatedFields()
    List<ExecutableElement> getAnnotatedMethods()
    Optional<IntrinsicRelationPart> getSuperClassAssociation()
    boolean isInterface()
    boolean isAbstract()
    boolean isEnum()
}

note top of TypePart
Models a type in the diagram
end note


class IntrinsicRelationPart {
    RelationId id
    TypeElement left
    TypeElement right
    Relation relation

}

note top of IntrinsicRelationPart
Models an inheritance relation or field association
end note

class RelationId

class AdditionalRelationPart {
    RelationId id
    TypePart source
    PlantUmlDependency relation

}

note top of AdditionalRelationPart
Models an additional dependency relation
end note


RelationPart <|.. IntrinsicRelationPart
RelationPart <|.. AdditionalRelationPart

ClassDiagram - -> TypePart
TypePart - -> DiagramId
IntrinsicRelationPart - -> RelationId
IntrinsicRelationPart - -> Relation
AdditionalRelationPart - -> RelationId
AdditionalRelationPart - -> TypePart
    PlantUmlClassDiagramProcessor ..> ClassDiagram: generates/processes

@enduml

PlantUML version 1.2019.06(Fri May 24 19:10:25 CEST 2019)
(APACHE source distribution)
Java Runtime: OpenJDK Runtime Environment
JVM: OpenJDK 64-Bit Server VM
Java Version: 11.0.4+10-b520.11
Operating System: Linux
OS Version: 4.15.0-72-generic
Default Encoding: UTF-8
Language: en
Country: US
--></g></svg>