<?xml version="1.0" encoding="UTF-8" standalone="no"?><svg xmlns="http://www.w3.org/2000/svg" xmlns:xlink="http://www.w3.org/1999/xlink" contentScriptType="application/ecmascript" contentStyleType="text/css" height="675px" preserveAspectRatio="none" style="width:1536px;height:675px;" version="1.1" viewBox="0 0 1536 675" width="1536px" zoomAndPan="magnify"><defs><linearGradient id="gadt5o459zh290" x1="0%" x2="100%" y1="0%" y2="100%"><stop offset="0%" stop-color="#F0F0F0"/><stop offset="100%" stop-color="#C0C0C0"/></linearGradient><filter height="300%" id="fadt5o459zh29" width="300%" x="-1" y="-1"><feGaussianBlur result="blurOut" stdDeviation="2.0"/><feColorMatrix in="blurOut" result="blurOut2" type="matrix" values="0 0 0 0 0 0 0 0 0 0 0 0 0 0 0 0 0 0 .4 0"/><feOffset dx="4.0" dy="4.0" in="blurOut2" result="blurOut3"/><feBlend in="SourceGraphic" in2="blurOut3" mode="normal"/></filter></defs><g><text fill="#000000" font-family="sans-serif" font-size="18" lengthAdjust="spacingAndGlyphs" textLength="359" x="592" y="16.708">The PlantUML class annotation processor</text><!--class RelationId--><rect fill="url(#gadt5o459zh290)" filter="url(#fadt5o459zh29)" height="32" id="RelationId" style="stroke: #808080; stroke-width: 1.5;" width="88" x="491.5" y="448.9531"/><ellipse cx="506.5" cy="464.9531" fill="#ADD1B2" rx="11" ry="11" style="stroke: #808080; stroke-width: 1.0;"/><path d="M508.9688,471.0938 Q508.3906,471.3906 507.75,471.5313 Q507.1094,471.6875 506.4063,471.6875 Q503.9063,471.6875 502.5781,470.0469 Q501.2656,468.3906 501.2656,465.2656 Q501.2656,462.1406 502.5781,460.4844 Q503.9063,458.8281 506.4063,458.8281 Q507.1094,458.8281 507.75,458.9844 Q508.4063,459.1406 508.9688,459.4375 L508.9688,462.1563 Q508.3438,461.5781 507.75,461.3125 Q507.1563,461.0313 506.5313,461.0313 Q505.1875,461.0313 504.5,462.1094 Q503.8125,463.1719 503.8125,465.2656 Q503.8125,467.3594 504.5,468.4375 Q505.1875,469.5 506.5313,469.5 Q507.1563,469.5 507.75,469.2344 Q508.3438,468.9531 508.9688,468.375 L508.9688,471.0938 Z "/><text fill="#000000" font-family="sans-serif" font-size="12" lengthAdjust="spacingAndGlyphs" textLength="56" x="520.5" y="469.1074">RelationId</text><!--class DiagramId--><rect fill="url(#gadt5o459zh290)" filter="url(#fadt5o459zh29)" height="32" id="DiagramId" style="stroke: #808080; stroke-width: 1.5;" width="90" x="744.5" y="632.9531"/><ellipse cx="759.5" cy="648.9531" fill="#ADD1B2" rx="11" ry="11" style="stroke: #808080; stroke-width: 1.0;"/><path d="M761.9688,655.0938 Q761.3906,655.3906 760.75,655.5313 Q760.1094,655.6875 759.4063,655.6875 Q756.9063,655.6875 755.5781,654.0469 Q754.2656,652.3906 754.2656,649.2656 Q754.2656,646.1406 755.5781,644.4844 Q756.9063,642.8281 759.4063,642.8281 Q760.1094,642.8281 760.75,642.9844 Q761.4063,643.1406 761.9688,643.4375 L761.9688,646.1563 Q761.3438,645.5781 760.75,645.3125 Q760.1563,645.0313 759.5313,645.0313 Q758.1875,645.0313 757.5,646.1094 Q756.8125,647.1719 756.8125,649.2656 Q756.8125,651.3594 757.5,652.4375 Q758.1875,653.5 759.5313,653.5 Q760.1563,653.5 760.75,653.2344 Q761.3438,652.9531 761.9688,652.375 L761.9688,655.0938 Z "/><text fill="#000000" font-family="sans-serif" font-size="12" lengthAdjust="spacingAndGlyphs" textLength="58" x="773.5" y="653.1074">DiagramId</text><!--class TypePart--><rect fill="url(#gadt5o459zh290)" filter="url(#fadt5o459zh29)" height="214.4609" id="TypePart" style="stroke: #808080; stroke-width: 1.5;" width="311" x="634" y="357.9531"/><ellipse cx="760.25" cy="373.9531" fill="#ADD1B2" rx="11" ry="11" style="stroke: #808080; stroke-width: 1.0;"/><path d="M762.7188,380.0938 Q762.1406,380.3906 761.5,380.5313 Q760.8594,380.6875 760.1563,380.6875 Q757.6563,380.6875 756.3281,379.0469 Q755.0156,377.3906 755.0156,374.2656 Q755.0156,371.1406 756.3281,369.4844 Q757.6563,367.8281 760.1563,367.8281 Q760.8594,367.8281 761.5,367.9844 Q762.1563,368.1406 762.7188,368.4375 L762.7188,371.1563 Q762.0938,370.5781 761.5,370.3125 Q760.9063,370.0313 760.2813,370.0313 Q758.9375,370.0313 758.25,371.1094 Q757.5625,372.1719 757.5625,374.2656 Q757.5625,376.3594 758.25,377.4375 Q758.9375,378.5 760.2813,378.5 Q760.9063,378.5 761.5,378.2344 Q762.0938,377.9531 762.7188,377.375 L762.7188,380.0938 Z "/><text fill="#000000" font-family="sans-serif" font-size="12" lengthAdjust="spacingAndGlyphs" textLength="50" x="780.75" y="378.1074">TypePart</text><line style="stroke: #808080; stroke-width: 1.5;" x1="635" x2="944" y1="389.9531" y2="389.9531"/><text fill="#000000" font-family="sans-serif" font-size="11" lengthAdjust="spacingAndGlyphs" textLength="144" x="640" y="404.1636">Set&lt;DiagramId&gt; diagramIds</text><text fill="#000000" font-family="sans-serif" font-size="11" lengthAdjust="spacingAndGlyphs" textLength="128" x="640" y="416.9683">PlantUmlClass annotation</text><text fill="#000000" font-family="sans-serif" font-size="11" lengthAdjust="spacingAndGlyphs" textLength="131" x="640" y="429.7729">TypeElement typeElement</text><text fill="#000000" font-family="sans-serif" font-size="11" lengthAdjust="spacingAndGlyphs" textLength="136" x="640" y="442.5776">List&lt;PlantUmlNote&gt; notes</text><line style="stroke: #808080; stroke-width: 1.5;" x1="635" x2="944" y1="449.1719" y2="449.1719"/><text fill="#000000" font-family="sans-serif" font-size="11" lengthAdjust="spacingAndGlyphs" textLength="86" x="640" y="463.3823">String getName()</text><text fill="#000000" font-family="sans-serif" font-size="11" lengthAdjust="spacingAndGlyphs" textLength="226" x="640" y="476.187">List&lt;IntrinsicRelationPart&gt; getAssociations()</text><text fill="#000000" font-family="sans-serif" font-size="11" lengthAdjust="spacingAndGlyphs" textLength="270" x="640" y="488.9917">List&lt;AdditionalRelationPart&gt; getAdditionalRelations()</text><text fill="#000000" font-family="sans-serif" font-size="11" lengthAdjust="spacingAndGlyphs" textLength="225" x="640" y="501.7964">List&lt;VariableElement&gt; getAnnotatedFields()</text><text fill="#000000" font-family="sans-serif" font-size="11" lengthAdjust="spacingAndGlyphs" textLength="252" x="640" y="514.6011">List&lt;ExecutableElement&gt; getAnnotatedMethods()</text><text fill="#000000" font-family="sans-serif" font-size="11" lengthAdjust="spacingAndGlyphs" textLength="299" x="640" y="527.4058">Optional&lt;IntrinsicRelationPart&gt; getSuperClassAssociation()</text><text fill="#000000" font-family="sans-serif" font-size="11" lengthAdjust="spacingAndGlyphs" textLength="102" x="640" y="540.2104">boolean isInterface()</text><text fill="#000000" font-family="sans-serif" font-size="11" lengthAdjust="spacingAndGlyphs" textLength="100" x="640" y="553.0151">boolean isAbstract()</text><text fill="#000000" font-family="sans-serif" font-size="11" lengthAdjust="spacingAndGlyphs" textLength="86" x="640" y="565.8198">boolean isEnum()</text><path d="M689,215.4531 L689,240.5859 A0,0 0 0 0 689,240.5859 L785.5,240.5859 L789.5,357.7101 L793.5,240.5859 L890,240.5859 A0,0 0 0 0 890,240.5859 L890,225.4531 L880,215.4531 L689,215.4531 A0,0 0 0 0 689,215.4531 " fill="#FFFFAA" filter="url(#fadt5o459zh29)" style="stroke: #808080; stroke-width: 1.0;"/><path d="M880,215.4531 L880,225.4531 L890,225.4531 L880,215.4531 " fill="#FFFFAA" style="stroke: #808080; stroke-width: 1.0;"/><text fill="#000000" font-family="sans-serif" font-size="13" lengthAdjust="spacingAndGlyphs" textLength="180" x="695" y="232.52">Models a type in the diagram</text><!--class ClassDiagram--><rect fill="url(#gadt5o459zh290)" filter="url(#fadt5o459zh29)" height="137.6328" id="ClassDiagram" style="stroke: #808080; stroke-width: 1.5;" width="282" x="925.5" y="158.9531"/><ellipse cx="1023.25" cy="174.9531" fill="#ADD1B2" rx="11" ry="11" style="stroke: #808080; stroke-width: 1.0;"/><path d="M1025.7188,181.0938 Q1025.1406,181.3906 1024.5,181.5313 Q1023.8594,181.6875 1023.1563,181.6875 Q1020.6563,181.6875 1019.3281,180.0469 Q1018.0156,178.3906 1018.0156,175.2656 Q1018.0156,172.1406 1019.3281,170.4844 Q1020.6563,168.8281 1023.1563,168.8281 Q1023.8594,168.8281 1024.5,168.9844 Q1025.1563,169.1406 1025.7188,169.4375 L1025.7188,172.1563 Q1025.0938,171.5781 1024.5,171.3125 Q1023.9063,171.0313 1023.2813,171.0313 Q1021.9375,171.0313 1021.25,172.1094 Q1020.5625,173.1719 1020.5625,175.2656 Q1020.5625,177.3594 1021.25,178.4375 Q1021.9375,179.5 1023.2813,179.5 Q1023.9063,179.5 1024.5,179.2344 Q1025.0938,178.9531 1025.7188,178.375 L1025.7188,181.0938 Z "/><text fill="#000000" font-family="sans-serif" font-size="12" lengthAdjust="spacingAndGlyphs" textLength="78" x="1043.75" y="179.1074">ClassDiagram</text><line style="stroke: #808080; stroke-width: 1.5;" x1="926.5" x2="1206.5" y1="190.9531" y2="190.9531"/><text fill="#000000" font-family="sans-serif" font-size="11" lengthAdjust="spacingAndGlyphs" textLength="52" x="931.5" y="205.1636">String title</text><text fill="#000000" font-family="sans-serif" font-size="11" lengthAdjust="spacingAndGlyphs" textLength="127" x="931.5" y="217.9683">List&lt;String&gt; includeFiles</text><text fill="#000000" font-family="sans-serif" font-size="11" lengthAdjust="spacingAndGlyphs" textLength="108" x="931.5" y="230.7729">List&lt;TypePart&gt; parts</text><line style="stroke: #808080; stroke-width: 1.5;" x1="926.5" x2="1206.5" y1="237.3672" y2="237.3672"/><text fill="#000000" font-family="sans-serif" font-size="11" lengthAdjust="spacingAndGlyphs" textLength="266" x="931.5" y="251.5776">List&lt;IntrinsicRelationPart&gt; getInheritanceRelations()</text><text fill="#000000" font-family="sans-serif" font-size="11" lengthAdjust="spacingAndGlyphs" textLength="226" x="931.5" y="264.3823">List&lt;IntrinsicRelationPart&gt; getAssociations()</text><text fill="#000000" font-family="sans-serif" font-size="11" lengthAdjust="spacingAndGlyphs" textLength="270" x="931.5" y="277.187">List&lt;AdditionalRelationPart&gt; getAdditionalRelations()</text><text fill="#000000" font-family="sans-serif" font-size="11" lengthAdjust="spacingAndGlyphs" textLength="236" x="931.5" y="289.9917">String simpleTypeName(TypeMirror typeMirror)</text><path d="M1242.5,207.9531 L1242.5,223.9531 L1207.6641,227.9531 L1242.5,231.9531 L1242.5,248.2188 A0,0 0 0 0 1242.5,248.2188 L1524.5,248.2188 A0,0 0 0 0 1524.5,248.2188 L1524.5,217.9531 L1514.5,207.9531 L1242.5,207.9531 A0,0 0 0 0 1242.5,207.9531 " fill="#FFFFAA" filter="url(#fadt5o459zh29)" style="stroke: #808080; stroke-width: 1.0;"/><path d="M1514.5,207.9531 L1514.5,217.9531 L1524.5,217.9531 L1514.5,207.9531 " fill="#FFFFAA" style="stroke: #808080; stroke-width: 1.0;"/><text fill="#000000" font-family="sans-serif" font-size="13" lengthAdjust="spacingAndGlyphs" textLength="248" x="1248.5" y="225.02">Used as input for a freemarker template</text><text fill="#000000" font-family="sans-serif" font-size="13" lengthAdjust="spacingAndGlyphs" textLength="261" x="1248.5" y="240.1528">that uses the provided fields and methods</text><!--class RelationPart--><rect fill="url(#gadt5o459zh290)" filter="url(#fadt5o459zh29)" height="52.8047" id="RelationPart" style="stroke: #808080; stroke-width: 1.5;" width="100" x="364.5" y="28.9531"/><ellipse cx="379.5" cy="44.9531" fill="#B4A7E5" rx="11" ry="11" style="stroke: #808080; stroke-width: 1.0;"/><path d="M375.9219,40.7188 L375.9219,38.5625 L383.3125,38.5625 L383.3125,40.7188 L380.8438,40.7188 L380.8438,48.7969 L383.3125,48.7969 L383.3125,50.9531 L375.9219,50.9531 L375.9219,48.7969 L378.3906,48.7969 L378.3906,40.7188 L375.9219,40.7188 Z "/><text fill="#000000" font-family="sans-serif" font-size="12" font-style="italic" lengthAdjust="spacingAndGlyphs" textLength="68" x="393.5" y="49.1074">RelationPart</text><line style="stroke: #808080; stroke-width: 1.5;" x1="365.5" x2="463.5" y1="60.9531" y2="60.9531"/><text fill="#000000" font-family="sans-serif" font-size="11" lengthAdjust="spacingAndGlyphs" textLength="86" x="370.5" y="75.1636">RelationId getId()</text><!--class AdditionalRelationPart--><rect fill="url(#gadt5o459zh290)" filter="url(#fadt5o459zh29)" height="78.4141" id="AdditionalRelationPart" style="stroke: #808080; stroke-width: 1.5;" width="161" x="493" y="188.9531"/><ellipse cx="510.25" cy="204.9531" fill="#ADD1B2" rx="11" ry="11" style="stroke: #808080; stroke-width: 1.0;"/><path d="M512.7188,211.0938 Q512.1406,211.3906 511.5,211.5313 Q510.8594,211.6875 510.1563,211.6875 Q507.6563,211.6875 506.3281,210.0469 Q505.0156,208.3906 505.0156,205.2656 Q505.0156,202.1406 506.3281,200.4844 Q507.6563,198.8281 510.1563,198.8281 Q510.8594,198.8281 511.5,198.9844 Q512.1563,199.1406 512.7188,199.4375 L512.7188,202.1563 Q512.0938,201.5781 511.5,201.3125 Q510.9063,201.0313 510.2813,201.0313 Q508.9375,201.0313 508.25,202.1094 Q507.5625,203.1719 507.5625,205.2656 Q507.5625,207.3594 508.25,208.4375 Q508.9375,209.5 510.2813,209.5 Q510.9063,209.5 511.5,209.2344 Q512.0938,208.9531 512.7188,208.375 L512.7188,211.0938 Z "/><text fill="#000000" font-family="sans-serif" font-size="12" lengthAdjust="spacingAndGlyphs" textLength="124" x="524.75" y="209.1074">AdditionalRelationPart</text><line style="stroke: #808080; stroke-width: 1.5;" x1="494" x2="653" y1="220.9531" y2="220.9531"/><text fill="#000000" font-family="sans-serif" font-size="11" lengthAdjust="spacingAndGlyphs" textLength="62" x="499" y="235.1636">RelationId id</text><text fill="#000000" font-family="sans-serif" font-size="11" lengthAdjust="spacingAndGlyphs" textLength="80" x="499" y="247.9683">TypePart source</text><text fill="#000000" font-family="sans-serif" font-size="11" lengthAdjust="spacingAndGlyphs" textLength="149" x="499" y="260.7729">PlantUmlDependency relation</text><path d="M499.5,42.9531 L499.5,68.0859 A0,0 0 0 0 499.5,68.0859 L629.7204,68.0859 L588.3238,188.6129 L637.7204,68.0859 L777.5,68.0859 A0,0 0 0 0 777.5,68.0859 L777.5,52.9531 L767.5,42.9531 L499.5,42.9531 A0,0 0 0 0 499.5,42.9531 " fill="#FFFFAA" filter="url(#fadt5o459zh29)" style="stroke: #808080; stroke-width: 1.0;"/><path d="M767.5,42.9531 L767.5,52.9531 L777.5,52.9531 L767.5,42.9531 " fill="#FFFFAA" style="stroke: #808080; stroke-width: 1.0;"/><text fill="#000000" font-family="sans-serif" font-size="13" lengthAdjust="spacingAndGlyphs" textLength="257" x="505.5" y="60.02">Models an additional dependency relation</text><!--class PlantUmlClassDiagramProcessor--><rect fill="url(#gadt5o459zh290)" filter="url(#fadt5o459zh29)" height="52.8047" id="PlantUmlClassDiagramProcessor" style="stroke: #808080; stroke-width: 1.5;" width="459" x="837" y="28.9531"/><ellipse cx="971.25" cy="44.9531" fill="#ADD1B2" rx="11" ry="11" style="stroke: #808080; stroke-width: 1.0;"/><path d="M973.7188,51.0938 Q973.1406,51.3906 972.5,51.5313 Q971.8594,51.6875 971.1563,51.6875 Q968.6563,51.6875 967.3281,50.0469 Q966.0156,48.3906 966.0156,45.2656 Q966.0156,42.1406 967.3281,40.4844 Q968.6563,38.8281 971.1563,38.8281 Q971.8594,38.8281 972.5,38.9844 Q973.1563,39.1406 973.7188,39.4375 L973.7188,42.1563 Q973.0938,41.5781 972.5,41.3125 Q971.9063,41.0313 971.2813,41.0313 Q969.9375,41.0313 969.25,42.1094 Q968.5625,43.1719 968.5625,45.2656 Q968.5625,47.3594 969.25,48.4375 Q969.9375,49.5 971.2813,49.5 Q971.9063,49.5 972.5,49.2344 Q973.0938,48.9531 973.7188,48.375 L973.7188,51.0938 Z "/><text fill="#000000" font-family="sans-serif" font-size="12" lengthAdjust="spacingAndGlyphs" textLength="182" x="991.75" y="49.1074">PlantUmlClassDiagramProcessor</text><line style="stroke: #808080; stroke-width: 1.5;" x1="838" x2="1295" y1="60.9531" y2="60.9531"/><text fill="#000000" font-family="sans-serif" font-size="11" lengthAdjust="spacingAndGlyphs" textLength="447" x="843" y="75.1636">boolean process(Set&lt;? extends TypeElement&gt; annotations, RoundEnvironment roundEnv)</text><!--class IntrinsicRelationPart--><rect fill="url(#gadt5o459zh290)" filter="url(#fadt5o459zh29)" height="91.2188" id="IntrinsicRelationPart" style="stroke: #808080; stroke-width: 1.5;" width="143" x="315" y="182.4531"/><ellipse cx="330" cy="198.4531" fill="#ADD1B2" rx="11" ry="11" style="stroke: #808080; stroke-width: 1.0;"/><path d="M332.4688,204.5938 Q331.8906,204.8906 331.25,205.0313 Q330.6094,205.1875 329.9063,205.1875 Q327.4063,205.1875 326.0781,203.5469 Q324.7656,201.8906 324.7656,198.7656 Q324.7656,195.6406 326.0781,193.9844 Q327.4063,192.3281 329.9063,192.3281 Q330.6094,192.3281 331.25,192.4844 Q331.9063,192.6406 332.4688,192.9375 L332.4688,195.6563 Q331.8438,195.0781 331.25,194.8125 Q330.6563,194.5313 330.0313,194.5313 Q328.6875,194.5313 328,195.6094 Q327.3125,196.6719 327.3125,198.7656 Q327.3125,200.8594 328,201.9375 Q328.6875,203 330.0313,203 Q330.6563,203 331.25,202.7344 Q331.8438,202.4531 332.4688,201.875 L332.4688,204.5938 Z "/><text fill="#000000" font-family="sans-serif" font-size="12" lengthAdjust="spacingAndGlyphs" textLength="111" x="344" y="202.6074">IntrinsicRelationPart</text><line style="stroke: #808080; stroke-width: 1.5;" x1="316" x2="457" y1="214.4531" y2="214.4531"/><text fill="#000000" font-family="sans-serif" font-size="11" lengthAdjust="spacingAndGlyphs" textLength="62" x="321" y="228.6636">RelationId id</text><text fill="#000000" font-family="sans-serif" font-size="11" lengthAdjust="spacingAndGlyphs" textLength="84" x="321" y="241.4683">TypeElement left</text><text fill="#000000" font-family="sans-serif" font-size="11" lengthAdjust="spacingAndGlyphs" textLength="91" x="321" y="254.2729">TypeElement right</text><text fill="#000000" font-family="sans-serif" font-size="11" lengthAdjust="spacingAndGlyphs" textLength="82" x="321" y="267.0776">Relation relation</text><path d="M6,42.9531 L6,68.0859 A0,0 0 0 0 6,68.0859 L179.6036,68.0859 L328.5966,182.3442 L187.6036,68.0859 L329,68.0859 A0,0 0 0 0 329,68.0859 L329,52.9531 L319,42.9531 L6,42.9531 A0,0 0 0 0 6,42.9531 " fill="#FFFFAA" filter="url(#fadt5o459zh29)" style="stroke: #808080; stroke-width: 1.0;"/><path d="M319,42.9531 L319,52.9531 L329,52.9531 L319,42.9531 " fill="#FFFFAA" style="stroke: #808080; stroke-width: 1.0;"/><text fill="#000000" font-family="sans-serif" font-size="13" lengthAdjust="spacingAndGlyphs" textLength="302" x="12" y="60.02">Models an inheritance relation or field association</text><!--class Relation--><rect fill="url(#gadt5o459zh290)" filter="url(#fadt5o459zh29)" height="78.4141" id="Relation" style="stroke: #808080; stroke-width: 1.5;" width="125" x="324" y="425.9531"/><ellipse cx="360.15" cy="441.9531" fill="#EB937F" rx="11" ry="11" style="stroke: #808080; stroke-width: 1.0;"/><path d="M364.2594,447.9531 L356.5406,447.9531 L356.5406,435.5625 L364.2594,435.5625 L364.2594,437.7188 L358.9938,437.7188 L358.9938,440.3906 L363.7594,440.3906 L363.7594,442.5469 L358.9938,442.5469 L358.9938,445.7969 L364.2594,445.7969 L364.2594,447.9531 Z "/><text fill="#000000" font-family="sans-serif" font-size="12" lengthAdjust="spacingAndGlyphs" textLength="46" x="378.85" y="446.1074">Relation</text><line style="stroke: #808080; stroke-width: 1.5;" x1="325" x2="448" y1="457.9531" y2="457.9531"/><text fill="#000000" font-family="sans-serif" font-size="11" lengthAdjust="spacingAndGlyphs" textLength="112" x="330" y="472.1636">Relation REALIZATION</text><text fill="#000000" font-family="sans-serif" font-size="11" lengthAdjust="spacingAndGlyphs" textLength="113" x="330" y="484.9683">Relation INHERITANCE</text><text fill="#000000" font-family="sans-serif" font-size="11" lengthAdjust="spacingAndGlyphs" textLength="113" x="330" y="497.7729">Relation ASSOCIATION</text><!--link RelationPart to AdditionalRelationPart--><path d="M452.7341,96.9335 C478.4707,124.8552 512.1901,161.4377 537.4562,188.8489 " fill="none" id="RelationPart-AdditionalRelationPart" style="stroke: #000000; stroke-width: 1.0; stroke-dasharray: 7.0,7.0;"/><polygon fill="none" points="447.4032,101.4783,438.9953,82.0282,457.6974,91.9898,447.4032,101.4783" style="stroke: #000000; stroke-width: 1.0;"/><!--link RelationPart to IntrinsicRelationPart--><path d="M406.9807,101.7772 C402.9335,126.711 397.9591,157.3567 393.9262,182.2021 " fill="none" id="RelationPart-IntrinsicRelationPart" style="stroke: #000000; stroke-width: 1.0; stroke-dasharray: 7.0,7.0;"/><polygon fill="none" points="400.0723,100.6482,410.1864,82.0282,413.8914,102.8914,400.0723,100.6482" style="stroke: #000000; stroke-width: 1.0;"/><!--link TypePart to DiagramId--><path d="M789.5,571.9867 C789.5,593.2513 789.5,613.4146 789.5,627.7652 " fill="none" id="TypePart-DiagramId" style="stroke: #000000; stroke-width: 1.0;"/><polygon fill="#000000" points="789.5,632.7806,793.5,623.7806,789.5,627.7806,785.5,623.7806,789.5,632.7806" style="stroke: #000000; stroke-width: 1.0;"/><!--link ClassDiagram to TypePart--><path d="M985.6355,297.1404 C964.6527,315.0932 941.5218,334.8839 918.7274,354.3867 " fill="none" id="ClassDiagram-TypePart" style="stroke: #000000; stroke-width: 1.0;"/><polygon fill="#000000" points="914.7752,357.7682,924.2142,354.9565,918.5744,354.5176,919.0132,348.8778,914.7752,357.7682" style="stroke: #000000; stroke-width: 1.0;"/><!--link AdditionalRelationPart to RelationId--><path d="M567.2251,267.0888 C559.115,317.6703 545.2801,403.9563 538.9031,443.7288 " fill="none" id="AdditionalRelationPart-RelationId" style="stroke: #000000; stroke-width: 1.0;"/><polygon fill="#000000" points="538.0904,448.7971,543.465,440.544,538.8821,443.8602,535.5659,439.2773,538.0904,448.7971" style="stroke: #000000; stroke-width: 1.0;"/><!--link AdditionalRelationPart to TypePart--><path d="M609.168,267.0888 C630.9302,290.9668 659.944,322.8013 688.3265,353.9433 " fill="none" id="AdditionalRelationPart-TypePart" style="stroke: #000000; stroke-width: 1.0;"/><polygon fill="#000000" points="691.7842,357.7371,688.6781,348.3909,688.4162,354.0417,682.7654,353.7797,691.7842,357.7371" style="stroke: #000000; stroke-width: 1.0;"/><!--link IntrinsicRelationPart to RelationId--><path d="M415.2287,273.6491 C447.5711,325.0931 498.704,406.4252 522.5088,444.2893 " fill="none" id="IntrinsicRelationPart-RelationId" style="stroke: #000000; stroke-width: 1.0;"/><polygon fill="#000000" points="525.2733,448.6865,523.8696,438.9382,522.6122,444.4535,517.0968,443.196,525.2733,448.6865" style="stroke: #000000; stroke-width: 1.0;"/><!--link IntrinsicRelationPart to Relation--><path d="M386.5,273.6491 C386.5,316.0452 386.5,378.7405 386.5,420.676 " fill="none" id="IntrinsicRelationPart-Relation" style="stroke: #000000; stroke-width: 1.0;"/><polygon fill="#000000" points="386.5,425.6844,390.5,416.6844,386.5,420.6844,382.5,416.6844,386.5,425.6844" style="stroke: #000000; stroke-width: 1.0;"/><!--link PlantUmlClassDiagramProcessor to ClassDiagram--><path d="M1066.5,82.0282 C1066.5,101.2545 1066.5,128.2404 1066.5,153.7842 " fill="none" id="PlantUmlClassDiagramProcessor-ClassDiagram" style="stroke: #000000; stroke-width: 1.0; stroke-dasharray: 7.0,7.0;"/><polygon fill="#000000" points="1066.5,158.871,1070.5,149.871,1066.5,153.871,1062.5,149.871,1066.5,158.871" style="stroke: #000000; stroke-width: 1.0;"/><text fill="#000000" font-family="sans-serif" font-size="13" lengthAdjust="spacingAndGlyphs" textLength="128" x="1067.5" y="125.02">generates/processes</text><!--
@startuml
skinparam class {
	BackgroundColor #F0F0F0/#C0C0C0
	BorderColor grey
    BackgroundColor<<new>> #e6ffe6/#b3ffb3
    BorderColor<<new>> green
    BorderColor<<new_in_context>> green
	BorderColor<<modified>> blue
	BackgroundColor<<modified>> #e6e6ff/#b3b3ff
	BackgroundColor<<required>> #ffd700/yellow
    BorderColor<<required>> orange
	ArrowColor black
}

skinParam noteBackgroundColor #FFFFAA
skinParam noteBorderColor gray
hide empty members
title The PlantUML class annotation processor
class RelationId
class DiagramId

class TypePart {
    Set<DiagramId> diagramIds
    PlantUmlClass annotation
    TypeElement typeElement
    List<PlantUmlNote> notes

    String getName()
    List<IntrinsicRelationPart> getAssociations()
    List<AdditionalRelationPart> getAdditionalRelations()
    List<VariableElement> getAnnotatedFields()
    List<ExecutableElement> getAnnotatedMethods()
    Optional<IntrinsicRelationPart> getSuperClassAssociation()
    boolean isInterface()
    boolean isAbstract()
    boolean isEnum()
}

note top of TypePart
Models a type in the diagram
end note


class ClassDiagram {
    String title
    List<String> includeFiles
    List<TypePart> parts

    List<IntrinsicRelationPart> getInheritanceRelations()
    List<IntrinsicRelationPart> getAssociations()
    List<AdditionalRelationPart> getAdditionalRelations()
    String simpleTypeName(TypeMirror typeMirror)
}

note right of ClassDiagram
Used as input for a freemarker template
that uses the provided fields and methods
end note


interface RelationPart {

    RelationId getId()
}


class AdditionalRelationPart {
    RelationId id
    TypePart source
    PlantUmlDependency relation

}

note top of AdditionalRelationPart
Models an additional dependency relation
end note


class PlantUmlClassDiagramProcessor {

    boolean process(Set<? extends TypeElement> annotations, RoundEnvironment roundEnv)
}


class IntrinsicRelationPart {
    RelationId id
    TypeElement left
    TypeElement right
    Relation relation

}

note top of IntrinsicRelationPart
Models an inheritance relation or field association
end note


enum Relation {
    Relation REALIZATION
    Relation INHERITANCE
    Relation ASSOCIATION

}


RelationPart <|.. AdditionalRelationPart
RelationPart <|.. IntrinsicRelationPart

TypePart - -> DiagramId
ClassDiagram - -> TypePart
AdditionalRelationPart - -> RelationId
AdditionalRelationPart - -> TypePart
IntrinsicRelationPart - -> RelationId
IntrinsicRelationPart - -> Relation
    PlantUmlClassDiagramProcessor ..> ClassDiagram: generates/processes

@enduml

PlantUML version 1.2019.06(Fri May 24 19:10:25 CEST 2019)
(APACHE source distribution)
Java Runtime: OpenJDK Runtime Environment
JVM: OpenJDK 64-Bit Server VM
Java Version: 11.0.4+10-b304.77
Operating System: Linux
OS Version: 4.15.0-70-generic
Default Encoding: UTF-8
Language: en
Country: US
--></g></svg>