<?xml version="1.0" encoding="UTF-8" standalone="no"?><svg xmlns="http://www.w3.org/2000/svg" xmlns:xlink="http://www.w3.org/1999/xlink" contentScriptType="application/ecmascript" contentStyleType="text/css" height="369px" preserveAspectRatio="none" style="width:162px;height:369px;" version="1.1" viewBox="0 0 162 369" width="162px" zoomAndPan="magnify"><defs><linearGradient id="g1a02fr9deip050" x1="0%" x2="100%" y1="0%" y2="100%"><stop offset="0%" stop-color="#F0F0F0"/><stop offset="100%" stop-color="#C0C0C0"/></linearGradient><filter height="300%" id="f1a02fr9deip05" width="300%" x="-1" y="-1"><feGaussianBlur result="blurOut" stdDeviation="2.0"/><feColorMatrix in="blurOut" result="blurOut2" type="matrix" values="0 0 0 0 0 0 0 0 0 0 0 0 0 0 0 0 0 0 .4 0"/><feOffset dx="4.0" dy="4.0" in="blurOut2" result="blurOut3"/><feBlend in="SourceGraphic" in2="blurOut3" mode="normal"/></filter></defs><g><!--class GroundVehicle--><rect fill="url(#g1a02fr9deip050)" filter="url(#f1a02fr9deip05)" height="52.8047" id="GroundVehicle" style="stroke: #808080; stroke-width: 1.5;" width="114" x="6" y="100"/><ellipse cx="21" cy="116" fill="#A9DCDF" rx="11" ry="11" style="stroke: #808080; stroke-width: 1.0;"/><path d="M21.1094,111.0938 L19.9531,116.1719 L22.2813,116.1719 L21.1094,111.0938 Z M19.625,108.8594 L22.6094,108.8594 L25.9688,121.25 L23.5156,121.25 L22.75,118.1875 L19.4688,118.1875 L18.7188,121.25 L16.2813,121.25 L19.625,108.8594 Z "/><text fill="#000000" font-family="sans-serif" font-size="12" font-style="italic" lengthAdjust="spacingAndGlyphs" textLength="82" x="35" y="120.1543">GroundVehicle</text><line style="stroke: #808080; stroke-width: 1.5;" x1="7" x2="119" y1="132" y2="132"/><text fill="#000000" font-family="sans-serif" font-size="11" lengthAdjust="spacingAndGlyphs" textLength="101" x="12" y="146.2104">int numberOfWheels</text><!--class Car--><rect fill="url(#g1a02fr9deip050)" filter="url(#f1a02fr9deip05)" height="32" id="Car" style="stroke: #808080; stroke-width: 1.5;" width="51" x="37.5" y="326"/><ellipse cx="52.5" cy="342" fill="#ADD1B2" rx="11" ry="11" style="stroke: #808080; stroke-width: 1.0;"/><path d="M54.9688,348.1406 Q54.3906,348.4375 53.75,348.5781 Q53.1094,348.7344 52.4063,348.7344 Q49.9063,348.7344 48.5781,347.0938 Q47.2656,345.4375 47.2656,342.3125 Q47.2656,339.1875 48.5781,337.5313 Q49.9063,335.875 52.4063,335.875 Q53.1094,335.875 53.75,336.0313 Q54.4063,336.1875 54.9688,336.4844 L54.9688,339.2031 Q54.3438,338.625 53.75,338.3594 Q53.1563,338.0781 52.5313,338.0781 Q51.1875,338.0781 50.5,339.1563 Q49.8125,340.2188 49.8125,342.3125 Q49.8125,344.4063 50.5,345.4844 Q51.1875,346.5469 52.5313,346.5469 Q53.1563,346.5469 53.75,346.2813 Q54.3438,346 54.9688,345.4219 L54.9688,348.1406 Z "/><text fill="#000000" font-family="sans-serif" font-size="12" lengthAdjust="spacingAndGlyphs" textLength="19" x="66.5" y="346.1543">Car</text><!--class Train--><rect fill="url(#g1a02fr9deip050)" filter="url(#f1a02fr9deip05)" height="52.8047" id="Train" style="stroke: #808080; stroke-width: 1.5;" width="82" x="69" y="213"/><ellipse cx="93.9" cy="229" fill="#ADD1B2" rx="11" ry="11" style="stroke: #808080; stroke-width: 1.0;"/><path d="M96.3688,235.1406 Q95.7906,235.4375 95.15,235.5781 Q94.5094,235.7344 93.8063,235.7344 Q91.3063,235.7344 89.9781,234.0938 Q88.6656,232.4375 88.6656,229.3125 Q88.6656,226.1875 89.9781,224.5313 Q91.3063,222.875 93.8063,222.875 Q94.5094,222.875 95.15,223.0313 Q95.8063,223.1875 96.3688,223.4844 L96.3688,226.2031 Q95.7438,225.625 95.15,225.3594 Q94.5563,225.0781 93.9313,225.0781 Q92.5875,225.0781 91.9,226.1563 Q91.2125,227.2188 91.2125,229.3125 Q91.2125,231.4063 91.9,232.4844 Q92.5875,233.5469 93.9313,233.5469 Q94.5563,233.5469 95.15,233.2813 Q95.7438,233 96.3688,232.4219 L96.3688,235.1406 Z "/><text fill="#000000" font-family="sans-serif" font-size="12" lengthAdjust="spacingAndGlyphs" textLength="28" x="110.1" y="233.1543">Train</text><line style="stroke: #808080; stroke-width: 1.5;" x1="70" x2="150" y1="245" y2="245"/><text fill="#000000" font-family="sans-serif" font-size="11" lengthAdjust="spacingAndGlyphs" textLength="70" x="75" y="259.2104">Car loadedCar</text><!--class Vehicle--><rect fill="url(#g1a02fr9deip050)" filter="url(#f1a02fr9deip05)" height="32" id="Vehicle" style="stroke: #808080; stroke-width: 1.5;" width="73" x="26.5" y="8"/><ellipse cx="41.5" cy="24" fill="#ADD1B2" rx="11" ry="11" style="stroke: #808080; stroke-width: 1.0;"/><path d="M43.9688,30.1406 Q43.3906,30.4375 42.75,30.5781 Q42.1094,30.7344 41.4063,30.7344 Q38.9063,30.7344 37.5781,29.0938 Q36.2656,27.4375 36.2656,24.3125 Q36.2656,21.1875 37.5781,19.5313 Q38.9063,17.875 41.4063,17.875 Q42.1094,17.875 42.75,18.0313 Q43.4063,18.1875 43.9688,18.4844 L43.9688,21.2031 Q43.3438,20.625 42.75,20.3594 Q42.1563,20.0781 41.5313,20.0781 Q40.1875,20.0781 39.5,21.1563 Q38.8125,22.2188 38.8125,24.3125 Q38.8125,26.4063 39.5,27.4844 Q40.1875,28.5469 41.5313,28.5469 Q42.1563,28.5469 42.75,28.2813 Q43.3438,28 43.9688,27.4219 L43.9688,30.1406 Z "/><text fill="#000000" font-family="sans-serif" font-size="12" lengthAdjust="spacingAndGlyphs" textLength="41" x="55.5" y="28.1543">Vehicle</text><!--link Vehicle to GroundVehicle--><path d="M63,60.4872 C63,73.4689 63,87.8323 63,99.8369 " fill="none" id="Vehicle-GroundVehicle" style="stroke: #000000; stroke-width: 1.0;"/><polygon fill="none" points="56.0001,60.0157,63,40.0156,70.0001,60.0156,56.0001,60.0157" style="stroke: #000000; stroke-width: 1.0;"/><!--link GroundVehicle to Car--><path d="M55.291,173.4236 C53.5164,186.2222 51.8896,200.1129 51,213 C49.3777,236.4996 49.1575,242.5166 51,266 C52.63,286.7745 56.7295,310.4517 59.6835,325.7797 " fill="none" id="GroundVehicle-Car" style="stroke: #000000; stroke-width: 1.0;"/><polygon fill="none" points="48.4224,172.025,58.3131,153.2854,62.2674,174.1028,48.4224,172.025" style="stroke: #000000; stroke-width: 1.0;"/><!--link GroundVehicle to Train--><path d="M81.9046,171.9515 C87.6893,185.8595 93.8607,200.6969 98.9416,212.9128 " fill="none" id="GroundVehicle-Train" style="stroke: #000000; stroke-width: 1.0;"/><polygon fill="none" points="75.3559,174.4341,74.1383,153.2794,88.2823,169.0575,75.3559,174.4341" style="stroke: #000000; stroke-width: 1.0;"/><!--link Train to Car--><path d="M97.774,266.1631 C89.9356,283.2575 79.9041,305.1347 72.6317,320.9947 " fill="none" id="Train-Car" style="stroke: #000000; stroke-width: 1.0;"/><polygon fill="#000000" points="70.4688,325.7117,77.856,319.1979,72.5528,321.1667,70.584,315.8635,70.4688,325.7117" style="stroke: #000000; stroke-width: 1.0;"/><!--
@startuml
skinparam class {
	BackgroundColor #F0F0F0/#C0C0C0
	BorderColor grey
    BackgroundColor<<new>> #e6ffe6/#b3ffb3
    BorderColor<<new>> green
    BorderColor<<new_in_context>> green
	BorderColor<<modified>> blue
	BackgroundColor<<modified>> #e6e6ff/#b3b3ff
	BackgroundColor<<required>> #ffd700/yellow
    BorderColor<<required>> orange
	ArrowColor black
}

skinParam noteBackgroundColor #FFFFAA
skinParam noteBorderColor gray
hide empty members

abstract class GroundVehicle {
    int numberOfWheels

}

class Car

class Train {
    Car loadedCar

}

class Vehicle

Vehicle <|- - GroundVehicle
GroundVehicle <|- - Car
GroundVehicle <|- - Train

Train - -> Car

@enduml

PlantUML version 1.2019.06(Fri May 24 19:10:25 CEST 2019)
(APACHE source distribution)
Java Runtime: OpenJDK Runtime Environment
JVM: OpenJDK 64-Bit Server VM
Java Version: 11.0.4+10-b304.69
Operating System: Linux
OS Version: 4.15.0-64-generic
Default Encoding: UTF-8
Language: en
Country: US
--></g></svg>