<?xml version="1.0" encoding="UTF-8" standalone="no"?><svg xmlns="http://www.w3.org/2000/svg" xmlns:xlink="http://www.w3.org/1999/xlink" contentScriptType="application/ecmascript" contentStyleType="text/css" height="369px" preserveAspectRatio="none" style="width:399px;height:369px;" version="1.1" viewBox="0 0 399 369" width="399px" zoomAndPan="magnify"><defs><linearGradient id="grk91t552ix3u0" x1="0%" x2="100%" y1="0%" y2="100%"><stop offset="0%" stop-color="#F0F0F0"/><stop offset="100%" stop-color="#C0C0C0"/></linearGradient><filter height="300%" id="frk91t552ix3u" width="300%" x="-1" y="-1"><feGaussianBlur result="blurOut" stdDeviation="2.0"/><feColorMatrix in="blurOut" result="blurOut2" type="matrix" values="0 0 0 0 0 0 0 0 0 0 0 0 0 0 0 0 0 0 .4 0"/><feOffset dx="4.0" dy="4.0" in="blurOut2" result="blurOut3"/><feBlend in="SourceGraphic" in2="blurOut3" mode="normal"/></filter></defs><g><!--class Vehicle--><rect fill="url(#grk91t552ix3u0)" filter="url(#frk91t552ix3u)" height="32" id="Vehicle" style="stroke: #808080; stroke-width: 1.5;" width="73" x="6" y="8"/><ellipse cx="21" cy="24" fill="#ADD1B2" rx="11" ry="11" style="stroke: #808080; stroke-width: 1.0;"/><path d="M23.4688,30.1406 Q22.8906,30.4375 22.25,30.5781 Q21.6094,30.7344 20.9063,30.7344 Q18.4063,30.7344 17.0781,29.0938 Q15.7656,27.4375 15.7656,24.3125 Q15.7656,21.1875 17.0781,19.5313 Q18.4063,17.875 20.9063,17.875 Q21.6094,17.875 22.25,18.0313 Q22.9063,18.1875 23.4688,18.4844 L23.4688,21.2031 Q22.8438,20.625 22.25,20.3594 Q21.6563,20.0781 21.0313,20.0781 Q19.6875,20.0781 19,21.1563 Q18.3125,22.2188 18.3125,24.3125 Q18.3125,26.4063 19,27.4844 Q19.6875,28.5469 21.0313,28.5469 Q21.6563,28.5469 22.25,28.2813 Q22.8438,28 23.4688,27.4219 L23.4688,30.1406 Z "/><text fill="#000000" font-family="sans-serif" font-size="12" lengthAdjust="spacingAndGlyphs" textLength="41" x="35" y="28.1543">Vehicle</text><!--class GroundVehicle--><rect fill="url(#grk91t552ix3u0)" filter="url(#frk91t552ix3u)" height="52.8047" id="GroundVehicle" style="stroke: #808080; stroke-width: 1.5;" width="114" x="80.5" y="100"/><ellipse cx="95.5" cy="116" fill="#A9DCDF" rx="11" ry="11" style="stroke: #808080; stroke-width: 1.0;"/><path d="M95.6094,111.0938 L94.4531,116.1719 L96.7813,116.1719 L95.6094,111.0938 Z M94.125,108.8594 L97.1094,108.8594 L100.4688,121.25 L98.0156,121.25 L97.25,118.1875 L93.9688,118.1875 L93.2188,121.25 L90.7813,121.25 L94.125,108.8594 Z "/><text fill="#000000" font-family="sans-serif" font-size="12" font-style="italic" lengthAdjust="spacingAndGlyphs" textLength="82" x="109.5" y="120.1543">GroundVehicle</text><line style="stroke: #808080; stroke-width: 1.5;" x1="81.5" x2="193.5" y1="132" y2="132"/><text fill="#000000" font-family="sans-serif" font-size="11" lengthAdjust="spacingAndGlyphs" textLength="101" x="86.5" y="146.2104">int numberOfWheels</text><path d="M114,11.5 L114,36.6328 A0,0 0 0 0 114,36.6328 L217.7285,36.6328 L162.6915,99.6028 L225.7285,36.6328 L353,36.6328 A0,0 0 0 0 353,36.6328 L353,21.5 L343,11.5 L114,11.5 A0,0 0 0 0 114,11.5 " fill="#FFFFAA" filter="url(#frk91t552ix3u)" style="stroke: #808080; stroke-width: 1.0;"/><path d="M343,11.5 L343,21.5 L353,21.5 L343,11.5 " fill="#FFFFAA" style="stroke: #808080; stroke-width: 1.0;"/><text fill="#000000" font-family="sans-serif" font-size="13" lengthAdjust="spacingAndGlyphs" textLength="218" x="120" y="28.5669">A vehicle that drives on the ground</text><path d="M229.5,106.5 L229.5,122.5 L194.6113,126.5 L229.5,130.5 L229.5,146.7656 A0,0 0 0 0 229.5,146.7656 L387.5,146.7656 A0,0 0 0 0 387.5,146.7656 L387.5,116.5 L377.5,106.5 L229.5,106.5 A0,0 0 0 0 229.5,106.5 " fill="#FFFFAA" filter="url(#frk91t552ix3u)" style="stroke: #808080; stroke-width: 1.0;"/><path d="M377.5,106.5 L377.5,116.5 L387.5,116.5 L377.5,106.5 " fill="#FFFFAA" style="stroke: #808080; stroke-width: 1.0;"/><text fill="#000000" font-family="sans-serif" font-size="13" lengthAdjust="spacingAndGlyphs" textLength="137" x="235.5" y="123.5669">Multiple notes may be</text><text fill="#000000" font-family="sans-serif" font-size="13" lengthAdjust="spacingAndGlyphs" textLength="114" x="235.5" y="138.6997">attached to a type</text><!--class Train--><rect fill="url(#grk91t552ix3u0)" filter="url(#frk91t552ix3u)" height="52.8047" id="Train" style="stroke: #808080; stroke-width: 1.5;" width="82" x="49.5" y="213"/><ellipse cx="74.4" cy="229" fill="#ADD1B2" rx="11" ry="11" style="stroke: #808080; stroke-width: 1.0;"/><path d="M76.8688,235.1406 Q76.2906,235.4375 75.65,235.5781 Q75.0094,235.7344 74.3063,235.7344 Q71.8063,235.7344 70.4781,234.0938 Q69.1656,232.4375 69.1656,229.3125 Q69.1656,226.1875 70.4781,224.5313 Q71.8063,222.875 74.3063,222.875 Q75.0094,222.875 75.65,223.0313 Q76.3063,223.1875 76.8688,223.4844 L76.8688,226.2031 Q76.2438,225.625 75.65,225.3594 Q75.0563,225.0781 74.4313,225.0781 Q73.0875,225.0781 72.4,226.1563 Q71.7125,227.2188 71.7125,229.3125 Q71.7125,231.4063 72.4,232.4844 Q73.0875,233.5469 74.4313,233.5469 Q75.0563,233.5469 75.65,233.2813 Q76.2438,233 76.8688,232.4219 L76.8688,235.1406 Z "/><text fill="#000000" font-family="sans-serif" font-size="12" lengthAdjust="spacingAndGlyphs" textLength="28" x="90.6" y="233.1543">Train</text><line style="stroke: #808080; stroke-width: 1.5;" x1="50.5" x2="130.5" y1="245" y2="245"/><text fill="#000000" font-family="sans-serif" font-size="11" lengthAdjust="spacingAndGlyphs" textLength="70" x="55.5" y="259.2104">Car loadedCar</text><!--class Car--><rect fill="url(#grk91t552ix3u0)" filter="url(#frk91t552ix3u)" height="32" id="Car" style="stroke: #808080; stroke-width: 1.5;" width="51" x="112" y="326"/><ellipse cx="127" cy="342" fill="#ADD1B2" rx="11" ry="11" style="stroke: #808080; stroke-width: 1.0;"/><path d="M129.4688,348.1406 Q128.8906,348.4375 128.25,348.5781 Q127.6094,348.7344 126.9063,348.7344 Q124.4063,348.7344 123.0781,347.0938 Q121.7656,345.4375 121.7656,342.3125 Q121.7656,339.1875 123.0781,337.5313 Q124.4063,335.875 126.9063,335.875 Q127.6094,335.875 128.25,336.0313 Q128.9063,336.1875 129.4688,336.4844 L129.4688,339.2031 Q128.8438,338.625 128.25,338.3594 Q127.6563,338.0781 127.0313,338.0781 Q125.6875,338.0781 125,339.1563 Q124.3125,340.2188 124.3125,342.3125 Q124.3125,344.4063 125,345.4844 Q125.6875,346.5469 127.0313,346.5469 Q127.6563,346.5469 128.25,346.2813 Q128.8438,346 129.4688,345.4219 L129.4688,348.1406 Z "/><text fill="#000000" font-family="sans-serif" font-size="12" lengthAdjust="spacingAndGlyphs" textLength="19" x="141" y="346.1543">Car</text><!--link Vehicle to GroundVehicle--><path d="M71.0655,54.8207 C84.3569,69.1614 100.0133,86.0538 112.7879,99.8369 " fill="none" id="Vehicle-GroundVehicle" style="stroke: #000000; stroke-width: 1.0;"/><polygon fill="none" points="65.8051,59.4426,57.3438,40.0156,76.0731,49.9259,65.8051,59.4426" style="stroke: #000000; stroke-width: 1.0;"/><!--link GroundVehicle to Train--><path d="M118.5954,171.9515 C112.8107,185.8595 106.6393,200.6969 101.5584,212.9128 " fill="none" id="GroundVehicle-Train" style="stroke: #000000; stroke-width: 1.0;"/><polygon fill="none" points="112.2177,169.0575,126.3617,153.2794,125.1441,174.4341,112.2177,169.0575" style="stroke: #000000; stroke-width: 1.0;"/><!--link GroundVehicle to Car--><path d="M145.209,173.4236 C146.9836,186.2222 148.6104,200.1129 149.5,213 C151.1223,236.4996 151.3425,242.5166 149.5,266 C147.87,286.7745 143.7705,310.4517 140.8165,325.7797 " fill="none" id="GroundVehicle-Car" style="stroke: #000000; stroke-width: 1.0;"/><polygon fill="none" points="138.2326,174.1028,142.1869,153.2854,152.0776,172.025,138.2326,174.1028" style="stroke: #000000; stroke-width: 1.0;"/><!--link Train to Car--><path d="M102.726,266.1631 C110.5644,283.2575 120.5959,305.1347 127.8683,320.9947 " fill="none" id="Train-Car" style="stroke: #000000; stroke-width: 1.0;"/><polygon fill="#000000" points="130.0312,325.7117,129.916,315.8635,127.9472,321.1667,122.644,319.1979,130.0312,325.7117" style="stroke: #000000; stroke-width: 1.0;"/><!--
@startuml
skinparam class {
	BackgroundColor #F0F0F0/#C0C0C0
	BorderColor grey
    BackgroundColor<<new>> #e6ffe6/#b3ffb3
    BorderColor<<new>> green
    BorderColor<<new_in_context>> green
	BorderColor<<modified>> blue
	BackgroundColor<<modified>> #e6e6ff/#b3b3ff
	BackgroundColor<<required>> #ffd700/yellow
    BorderColor<<required>> orange
	ArrowColor black
}

skinParam noteBackgroundColor #FFFFAA
skinParam noteBorderColor gray
hide empty members
class Vehicle

abstract class GroundVehicle {
    int numberOfWheels

}

note top of GroundVehicle
A vehicle that drives on the ground
end note

note right of GroundVehicle
Multiple notes may be
attached to a type
end note


class Train {
    Car loadedCar

}

class Car

Vehicle <|- - GroundVehicle
GroundVehicle <|- - Train
GroundVehicle <|- - Car

Train - -> Car

@enduml

PlantUML version 1.2019.06(Fri May 24 19:10:25 CEST 2019)
(APACHE source distribution)
Java Runtime: OpenJDK Runtime Environment
JVM: OpenJDK 64-Bit Server VM
Java Version: 11.0.4+10-b520.11
Operating System: Linux
OS Version: 4.15.0-72-generic
Default Encoding: UTF-8
Language: en
Country: US
--></g></svg>