<?xml version="1.0" encoding="UTF-8" standalone="no"?><svg xmlns="http://www.w3.org/2000/svg" xmlns:xlink="http://www.w3.org/1999/xlink" contentScriptType="application/ecmascript" contentStyleType="text/css" height="391px" preserveAspectRatio="none" style="width:431px;height:391px;" version="1.1" viewBox="0 0 431 391" width="431px" zoomAndPan="magnify"><defs><linearGradient id="g1c1dxogg8vy5p0" x1="0%" x2="100%" y1="0%" y2="100%"><stop offset="0%" stop-color="#F0F0F0"/><stop offset="100%" stop-color="#C0C0C0"/></linearGradient><filter height="300%" id="f1c1dxogg8vy5p" width="300%" x="-1" y="-1"><feGaussianBlur result="blurOut" stdDeviation="2.0"/><feColorMatrix in="blurOut" result="blurOut2" type="matrix" values="0 0 0 0 0 0 0 0 0 0 0 0 0 0 0 0 0 0 .4 0"/><feOffset dx="4.0" dy="4.0" in="blurOut2" result="blurOut3"/><feBlend in="SourceGraphic" in2="blurOut3" mode="normal"/></filter></defs><g><!--class Wing--><rect fill="url(#g1c1dxogg8vy5p0)" filter="url(#f1c1dxogg8vy5p)" height="32" id="Wing" style="stroke: #808080; stroke-width: 1.5;" width="60" x="6" y="343"/><ellipse cx="21" cy="359" fill="#ADD1B2" rx="11" ry="11" style="stroke: #808080; stroke-width: 1.0;"/><path d="M23.4688,365.1406 Q22.8906,365.4375 22.25,365.5781 Q21.6094,365.7344 20.9063,365.7344 Q18.4063,365.7344 17.0781,364.0938 Q15.7656,362.4375 15.7656,359.3125 Q15.7656,356.1875 17.0781,354.5313 Q18.4063,352.875 20.9063,352.875 Q21.6094,352.875 22.25,353.0313 Q22.9063,353.1875 23.4688,353.4844 L23.4688,356.2031 Q22.8438,355.625 22.25,355.3594 Q21.6563,355.0781 21.0313,355.0781 Q19.6875,355.0781 19,356.1563 Q18.3125,357.2188 18.3125,359.3125 Q18.3125,361.4063 19,362.4844 Q19.6875,363.5469 21.0313,363.5469 Q21.6563,363.5469 22.25,363.2813 Q22.8438,363 23.4688,362.4219 L23.4688,365.1406 Z "/><text fill="#000000" font-family="sans-serif" font-size="12" lengthAdjust="spacingAndGlyphs" textLength="28" x="35" y="363.1543">Wing</text><!--class GroundVehicle--><rect fill="url(#g1c1dxogg8vy5p0)" filter="url(#f1c1dxogg8vy5p)" height="52.8047" id="GroundVehicle" style="stroke: #808080; stroke-width: 1.5;" width="114" x="228" y="100"/><ellipse cx="243" cy="116" fill="#A9DCDF" rx="11" ry="11" style="stroke: #808080; stroke-width: 1.0;"/><path d="M243.1094,111.0938 L241.9531,116.1719 L244.2813,116.1719 L243.1094,111.0938 Z M241.625,108.8594 L244.6094,108.8594 L247.9688,121.25 L245.5156,121.25 L244.75,118.1875 L241.4688,118.1875 L240.7188,121.25 L238.2813,121.25 L241.625,108.8594 Z "/><text fill="#000000" font-family="sans-serif" font-size="12" font-style="italic" lengthAdjust="spacingAndGlyphs" textLength="82" x="257" y="120.1543">GroundVehicle</text><line style="stroke: #808080; stroke-width: 1.5;" x1="229" x2="341" y1="132" y2="132"/><text fill="#000000" font-family="sans-serif" font-size="11" lengthAdjust="spacingAndGlyphs" textLength="101" x="234" y="146.2104">int numberOfWheels</text><!--class Airplane--><rect fill="url(#g1c1dxogg8vy5p0)" filter="url(#f1c1dxogg8vy5p)" height="65.6094" id="Airplane" style="stroke: #808080; stroke-width: 1.5;" width="88" x="44" y="213"/><ellipse cx="63.5" cy="229" fill="#ADD1B2" rx="11" ry="11" style="stroke: #808080; stroke-width: 1.0;"/><path d="M65.9688,235.1406 Q65.3906,235.4375 64.75,235.5781 Q64.1094,235.7344 63.4063,235.7344 Q60.9063,235.7344 59.5781,234.0938 Q58.2656,232.4375 58.2656,229.3125 Q58.2656,226.1875 59.5781,224.5313 Q60.9063,222.875 63.4063,222.875 Q64.1094,222.875 64.75,223.0313 Q65.4063,223.1875 65.9688,223.4844 L65.9688,226.2031 Q65.3438,225.625 64.75,225.3594 Q64.1563,225.0781 63.5313,225.0781 Q62.1875,225.0781 61.5,226.1563 Q60.8125,227.2188 60.8125,229.3125 Q60.8125,231.4063 61.5,232.4844 Q62.1875,233.5469 63.5313,233.5469 Q64.1563,233.5469 64.75,233.2813 Q65.3438,233 65.9688,232.4219 L65.9688,235.1406 Z "/><text fill="#000000" font-family="sans-serif" font-size="12" lengthAdjust="spacingAndGlyphs" textLength="46" x="78.5" y="233.1543">Airplane</text><line style="stroke: #808080; stroke-width: 1.5;" x1="45" x2="131" y1="245" y2="245"/><text fill="#000000" font-family="sans-serif" font-size="11" lengthAdjust="spacingAndGlyphs" textLength="69" x="50" y="259.2104">Wing leftWing</text><text fill="#000000" font-family="sans-serif" font-size="11" lengthAdjust="spacingAndGlyphs" textLength="76" x="50" y="272.0151">Wing rightWing</text><path d="M101.5,339 L101.5,379.2656 A0,0 0 0 0 101.5,379.2656 L318.5,379.2656 A0,0 0 0 0 318.5,379.2656 L318.5,349 L308.5,339 L192.0832,339 L123.9442,279.2925 L184.0832,339 L101.5,339 A0,0 0 0 0 101.5,339 " fill="#FFFFAA" filter="url(#f1c1dxogg8vy5p)" style="stroke: #808080; stroke-width: 1.0;"/><path d="M308.5,339 L308.5,349 L318.5,349 L308.5,339 " fill="#FFFFAA" style="stroke: #808080; stroke-width: 1.0;"/><text fill="#000000" font-family="sans-serif" font-size="13" lengthAdjust="spacingAndGlyphs" textLength="159" x="107.5" y="356.0669">This models an airplane, a</text><text fill="#000000" font-family="sans-serif" font-size="13" font-style="italic" lengthAdjust="spacingAndGlyphs" textLength="33" x="270.5" y="356.0669">flying</text><text fill="#000000" font-family="sans-serif" font-size="13" lengthAdjust="spacingAndGlyphs" textLength="86" x="107.5" y="371.1997">vehicle that is</text><text fill="#000000" font-family="sans-serif" font-size="13" font-weight="bold" lengthAdjust="spacingAndGlyphs" textLength="30" x="197.5" y="371.1997">very</text><text fill="#000000" font-family="sans-serif" font-size="13" lengthAdjust="spacingAndGlyphs" textLength="26" x="231.5" y="371.1997">fast.</text><!--class Car--><rect fill="url(#g1c1dxogg8vy5p0)" filter="url(#f1c1dxogg8vy5p)" height="32" id="Car" style="stroke: #808080; stroke-width: 1.5;" width="51" x="353.5" y="343"/><ellipse cx="368.5" cy="359" fill="#ADD1B2" rx="11" ry="11" style="stroke: #808080; stroke-width: 1.0;"/><path d="M370.9688,365.1406 Q370.3906,365.4375 369.75,365.5781 Q369.1094,365.7344 368.4063,365.7344 Q365.9063,365.7344 364.5781,364.0938 Q363.2656,362.4375 363.2656,359.3125 Q363.2656,356.1875 364.5781,354.5313 Q365.9063,352.875 368.4063,352.875 Q369.1094,352.875 369.75,353.0313 Q370.4063,353.1875 370.9688,353.4844 L370.9688,356.2031 Q370.3438,355.625 369.75,355.3594 Q369.1563,355.0781 368.5313,355.0781 Q367.1875,355.0781 366.5,356.1563 Q365.8125,357.2188 365.8125,359.3125 Q365.8125,361.4063 366.5,362.4844 Q367.1875,363.5469 368.5313,363.5469 Q369.1563,363.5469 369.75,363.2813 Q370.3438,363 370.9688,362.4219 L370.9688,365.1406 Z "/><text fill="#000000" font-family="sans-serif" font-size="12" lengthAdjust="spacingAndGlyphs" textLength="19" x="382.5" y="363.1543">Car</text><!--class Flying--><rect fill="url(#g1c1dxogg8vy5p0)" filter="url(#f1c1dxogg8vy5p)" height="32" id="Flying" style="stroke: #808080; stroke-width: 1.5;" width="65" x="81.5" y="8"/><ellipse cx="96.5" cy="24" fill="#B4A7E5" rx="11" ry="11" style="stroke: #808080; stroke-width: 1.0;"/><path d="M92.9219,19.7656 L92.9219,17.6094 L100.3125,17.6094 L100.3125,19.7656 L97.8438,19.7656 L97.8438,27.8438 L100.3125,27.8438 L100.3125,30 L92.9219,30 L92.9219,27.8438 L95.3906,27.8438 L95.3906,19.7656 L92.9219,19.7656 Z "/><text fill="#000000" font-family="sans-serif" font-size="12" font-style="italic" lengthAdjust="spacingAndGlyphs" textLength="33" x="110.5" y="28.1543">Flying</text><!--class FlyingVehicle--><rect fill="url(#g1c1dxogg8vy5p0)" filter="url(#f1c1dxogg8vy5p)" height="32" id="FlyingVehicle" style="stroke: #808080; stroke-width: 1.5;" width="106" x="61" y="110.5"/><ellipse cx="76" cy="126.5" fill="#ADD1B2" rx="11" ry="11" style="stroke: #808080; stroke-width: 1.0;"/><path d="M78.4688,132.6406 Q77.8906,132.9375 77.25,133.0781 Q76.6094,133.2344 75.9063,133.2344 Q73.4063,133.2344 72.0781,131.5938 Q70.7656,129.9375 70.7656,126.8125 Q70.7656,123.6875 72.0781,122.0313 Q73.4063,120.375 75.9063,120.375 Q76.6094,120.375 77.25,120.5313 Q77.9063,120.6875 78.4688,120.9844 L78.4688,123.7031 Q77.8438,123.125 77.25,122.8594 Q76.6563,122.5781 76.0313,122.5781 Q74.6875,122.5781 74,123.6563 Q73.3125,124.7188 73.3125,126.8125 Q73.3125,128.9063 74,129.9844 Q74.6875,131.0469 76.0313,131.0469 Q76.6563,131.0469 77.25,130.7813 Q77.8438,130.5 78.4688,129.9219 L78.4688,132.6406 Z "/><text fill="#000000" font-family="sans-serif" font-size="12" lengthAdjust="spacingAndGlyphs" textLength="74" x="90" y="130.6543">FlyingVehicle</text><!--class Train--><rect fill="url(#g1c1dxogg8vy5p0)" filter="url(#f1c1dxogg8vy5p)" height="52.8047" id="Train" style="stroke: #808080; stroke-width: 1.5;" width="82" x="338" y="219.5"/><ellipse cx="362.9" cy="235.5" fill="#ADD1B2" rx="11" ry="11" style="stroke: #808080; stroke-width: 1.0;"/><path d="M365.3688,241.6406 Q364.7906,241.9375 364.15,242.0781 Q363.5094,242.2344 362.8063,242.2344 Q360.3063,242.2344 358.9781,240.5938 Q357.6656,238.9375 357.6656,235.8125 Q357.6656,232.6875 358.9781,231.0313 Q360.3063,229.375 362.8063,229.375 Q363.5094,229.375 364.15,229.5313 Q364.8063,229.6875 365.3688,229.9844 L365.3688,232.7031 Q364.7438,232.125 364.15,231.8594 Q363.5563,231.5781 362.9313,231.5781 Q361.5875,231.5781 360.9,232.6563 Q360.2125,233.7188 360.2125,235.8125 Q360.2125,237.9063 360.9,238.9844 Q361.5875,240.0469 362.9313,240.0469 Q363.5563,240.0469 364.15,239.7813 Q364.7438,239.5 365.3688,238.9219 L365.3688,241.6406 Z "/><text fill="#000000" font-family="sans-serif" font-size="12" lengthAdjust="spacingAndGlyphs" textLength="28" x="379.1" y="239.6543">Train</text><line style="stroke: #808080; stroke-width: 1.5;" x1="339" x2="419" y1="251.5" y2="251.5"/><text fill="#000000" font-family="sans-serif" font-size="11" lengthAdjust="spacingAndGlyphs" textLength="70" x="344" y="265.7104">Car loadedCar</text><!--class Vehicle--><rect fill="url(#g1c1dxogg8vy5p0)" filter="url(#f1c1dxogg8vy5p)" height="32" id="Vehicle" style="stroke: #808080; stroke-width: 1.5;" width="73" x="201.5" y="8"/><ellipse cx="216.5" cy="24" fill="#ADD1B2" rx="11" ry="11" style="stroke: #808080; stroke-width: 1.0;"/><path d="M218.9688,30.1406 Q218.3906,30.4375 217.75,30.5781 Q217.1094,30.7344 216.4063,30.7344 Q213.9063,30.7344 212.5781,29.0938 Q211.2656,27.4375 211.2656,24.3125 Q211.2656,21.1875 212.5781,19.5313 Q213.9063,17.875 216.4063,17.875 Q217.1094,17.875 217.75,18.0313 Q218.4063,18.1875 218.9688,18.4844 L218.9688,21.2031 Q218.3438,20.625 217.75,20.3594 Q217.1563,20.0781 216.5313,20.0781 Q215.1875,20.0781 214.5,21.1563 Q213.8125,22.2188 213.8125,24.3125 Q213.8125,26.4063 214.5,27.4844 Q215.1875,28.5469 216.5313,28.5469 Q217.1563,28.5469 217.75,28.2813 Q218.3438,28 218.9688,27.4219 L218.9688,30.1406 Z "/><text fill="#000000" font-family="sans-serif" font-size="12" lengthAdjust="spacingAndGlyphs" textLength="41" x="230.5" y="28.1543">Vehicle</text><!--link Vehicle to GroundVehicle--><path d="M253.8537,58.5745 C260.0302,72.0446 266.9976,87.2394 272.774,99.8369 " fill="none" id="Vehicle-GroundVehicle" style="stroke: #000000; stroke-width: 1.0;"/><polygon fill="none" points="247.317,61.1132,245.3438,40.0156,260.0429,55.2779,247.317,61.1132" style="stroke: #000000; stroke-width: 1.0;"/><!--link FlyingVehicle to Airplane--><path d="M106.1868,162.4109 C102.7251,178.3211 98.6766,196.9288 95.2792,212.5437 " fill="none" id="FlyingVehicle-Airplane" style="stroke: #000000; stroke-width: 1.0;"/><polygon fill="none" points="99.4015,160.6709,110.4935,142.6163,113.0814,163.6473,99.4015,160.6709" style="stroke: #000000; stroke-width: 1.0;"/><!--link GroundVehicle to Car--><path d="M291.1293,173.2697 C296.3611,204.2779 305.5637,245.3033 321,279 C332.0742,303.1745 351.0006,327.4026 364.211,342.7572 " fill="none" id="GroundVehicle-Car" style="stroke: #000000; stroke-width: 1.0;"/><polygon fill="none" points="284.1585,173.9922,288.0514,153.1633,297.9973,171.8737,284.1585,173.9922" style="stroke: #000000; stroke-width: 1.0;"/><!--link Vehicle to FlyingVehicle--><path d="M203.1949,52.7703 C180.7163,71.3514 152.2898,94.8491 133.6482,110.2586 " fill="none" id="Vehicle-FlyingVehicle" style="stroke: #000000; stroke-width: 1.0;"/><polygon fill="none" points="198.7499,47.3628,218.625,40.0156,207.6696,58.1535,198.7499,47.3628" style="stroke: #000000; stroke-width: 1.0;"/><!--link Flying to FlyingVehicle--><path d="M114,60.0509 C114,77.1817 114,96.8035 114,110.2586 " fill="none" id="Flying-FlyingVehicle" style="stroke: #000000; stroke-width: 1.0; stroke-dasharray: 7.0,7.0;"/><polygon fill="none" points="107.0001,60.0157,114,40.0156,121.0001,60.0156,107.0001,60.0157" style="stroke: #000000; stroke-width: 1.0;"/><!--link GroundVehicle to Train--><path d="M318.33,168.8717 C331.4928,185.6052 346.2223,204.3305 357.8716,219.14 " fill="none" id="GroundVehicle-Train" style="stroke: #000000; stroke-width: 1.0;"/><polygon fill="none" points="312.725,173.0683,305.8616,153.0209,323.7287,164.4126,312.725,173.0683" style="stroke: #000000; stroke-width: 1.0;"/><!--link Airplane to Wing--><path d="M60.9381,279.2925 C50.4501,298.2901 40.2787,321.5246 35.4863,337.9952 " fill="none" id="Airplane-Wing" style="stroke: #000000; stroke-width: 1.0;"/><polygon fill="#000000" points="34.1773,342.8774,40.3718,335.2205,35.4723,338.048,32.6448,333.1485,34.1773,342.8774" style="stroke: #000000; stroke-width: 1.0;"/><!--link Airplane to Wing--><path d="M85.1117,279.2925 C78.1584,298.4539 66.7805,321.9255 56.1722,338.4196 " fill="none" id="Airplane-Wing-1" style="stroke: #000000; stroke-width: 1.0;"/><polygon fill="#000000" points="53.2049,342.8774,61.5216,337.6018,55.9754,338.7152,54.8621,333.169,53.2049,342.8774" style="stroke: #000000; stroke-width: 1.0;"/><!--link Train to Car--><path d="M379,272.7794 C379,292.5343 379,319.0658 379,337.457 " fill="none" id="Train-Car" style="stroke: #000000; stroke-width: 1.0;"/><polygon fill="#000000" points="379,342.8868,383,333.8868,379,337.8868,375,333.8868,379,342.8868" style="stroke: #000000; stroke-width: 1.0;"/><!--
@startuml
skinparam class {
	BackgroundColor #F0F0F0/#C0C0C0
	BorderColor grey
    BackgroundColor<<new>> #e6ffe6/#b3ffb3
    BorderColor<<new>> green
    BorderColor<<new_in_context>> green
	BorderColor<<modified>> blue
	BackgroundColor<<modified>> #e6e6ff/#b3b3ff
	BackgroundColor<<required>> #ffd700/yellow
    BorderColor<<required>> orange
	ArrowColor black
}

skinParam noteBackgroundColor #FFFFAA
skinParam noteBorderColor gray
hide empty members
class Wing

abstract class GroundVehicle {
    int numberOfWheels

}


class Airplane {
    Wing leftWing
    Wing rightWing

}

note bottom of Airplane
This models an airplane, a //flying//
vehicle that is **very** fast.
end note

class Car
interface Flying
class FlyingVehicle

class Train {
    Car loadedCar

}

class Vehicle

Vehicle <|- - GroundVehicle
FlyingVehicle <|- - Airplane
GroundVehicle <|- - Car
Vehicle <|- - FlyingVehicle
Flying <|.. FlyingVehicle
GroundVehicle <|- - Train

Airplane - -> Wing
Airplane - -> Wing
Train - -> Car

@enduml

PlantUML version 1.2019.06(Fri May 24 19:10:25 CEST 2019)
(APACHE source distribution)
Java Runtime: OpenJDK Runtime Environment
JVM: OpenJDK 64-Bit Server VM
Java Version: 11.0.4+10-b304.69
Operating System: Linux
OS Version: 4.15.0-64-generic
Default Encoding: UTF-8
Language: en
Country: US
--></g></svg>