<?xml version="1.0" encoding="UTF-8" standalone="no"?><svg xmlns="http://www.w3.org/2000/svg" xmlns:xlink="http://www.w3.org/1999/xlink" contentScriptType="application/ecmascript" contentStyleType="text/css" height="97px" preserveAspectRatio="none" style="width:248px;height:97px;" version="1.1" viewBox="0 0 248 97" width="248px" zoomAndPan="magnify"><defs><linearGradient id="gq3t9y47yrxis0" x1="0%" x2="100%" y1="0%" y2="100%"><stop offset="0%" stop-color="#F0F0F0"/><stop offset="100%" stop-color="#C0C0C0"/></linearGradient><filter height="300%" id="fq3t9y47yrxis" width="300%" x="-1" y="-1"><feGaussianBlur result="blurOut" stdDeviation="2.0"/><feColorMatrix in="blurOut" result="blurOut2" type="matrix" values="0 0 0 0 0 0 0 0 0 0 0 0 0 0 0 0 0 0 .4 0"/><feOffset dx="4.0" dy="4.0" in="blurOut2" result="blurOut3"/><feBlend in="SourceGraphic" in2="blurOut3" mode="normal"/></filter></defs><g><!--class Relation--><rect fill="url(#gq3t9y47yrxis0)" filter="url(#fq3t9y47yrxis)" height="78.4141" id="Relation" style="stroke: #808080; stroke-width: 1.5;" width="125" x="6" y="8"/><ellipse cx="42.15" cy="24" fill="#EB937F" rx="11" ry="11" style="stroke: #808080; stroke-width: 1.0;"/><path d="M46.2594,30 L38.5406,30 L38.5406,17.6094 L46.2594,17.6094 L46.2594,19.7656 L40.9938,19.7656 L40.9938,22.4375 L45.7594,22.4375 L45.7594,24.5938 L40.9938,24.5938 L40.9938,27.8438 L46.2594,27.8438 L46.2594,30 Z "/><text fill="#000000" font-family="sans-serif" font-size="12" lengthAdjust="spacingAndGlyphs" textLength="46" x="60.85" y="28.1543">Relation</text><line style="stroke: #808080; stroke-width: 1.5;" x1="7" x2="130" y1="40" y2="40"/><text fill="#000000" font-family="sans-serif" font-size="11" lengthAdjust="spacingAndGlyphs" textLength="112" x="12" y="54.2104">Relation REALIZATION</text><text fill="#000000" font-family="sans-serif" font-size="11" lengthAdjust="spacingAndGlyphs" textLength="113" x="12" y="67.0151">Relation INHERITANCE</text><text fill="#000000" font-family="sans-serif" font-size="11" lengthAdjust="spacingAndGlyphs" textLength="113" x="12" y="79.8198">Relation ASSOCIATION</text><!--link Relation to Relation--><path d="M131.3295,42.1298 C150.7498,42.2281 166,43.8516 166,47 C166,49.8533 153.4751,51.4541 136.6724,51.8024 " fill="none" id="Relation-Relation" style="stroke: #000000; stroke-width: 1.0;"/><polygon fill="#000000" points="131.3295,51.8702,140.3796,55.7554,136.3291,51.8066,140.2779,47.7561,131.3295,51.8702" style="stroke: #000000; stroke-width: 1.0;"/><!--link Relation to Relation--><path d="M131.2068,37.7856 C167.352,35.9051 201,38.9766 201,47 C201,54.6473 170.4326,57.7961 136.27,56.4462 " fill="none" id="Relation-Relation-1" style="stroke: #000000; stroke-width: 1.0;"/><polygon fill="#000000" points="131.2068,56.2144,140.0144,60.6219,136.2016,56.4431,140.3804,52.6303,131.2068,56.2144" style="stroke: #000000; stroke-width: 1.0;"/><!--link Relation to Relation--><path d="M131.2181,34.5182 C182.6186,29.357 236,33.5176 236,47 C236,60.0348 186.1046,64.3564 136.3426,59.9651 " fill="none" id="Relation-Relation-2" style="stroke: #000000; stroke-width: 1.0;"/><polygon fill="#000000" points="131.2181,59.4818,139.8027,64.3093,136.196,59.9514,140.554,56.3447,131.2181,59.4818" style="stroke: #000000; stroke-width: 1.0;"/><!--
@startuml
skinparam class {
	BackgroundColor #F0F0F0/#C0C0C0
	BorderColor grey
    BackgroundColor<<new>> #e6ffe6/#b3ffb3
    BorderColor<<new>> green
    BorderColor<<new_in_context>> green
	BorderColor<<modified>> blue
	BackgroundColor<<modified>> #e6e6ff/#b3b3ff
	BackgroundColor<<required>> #ffd700/yellow
    BorderColor<<required>> orange
	ArrowColor black
}

skinParam noteBackgroundColor #FFFFAA
skinParam noteBorderColor gray
hide empty members

enum Relation {
    Relation REALIZATION
    Relation INHERITANCE
    Relation ASSOCIATION

}



Relation - -> Relation
Relation - -> Relation
Relation - -> Relation

@enduml

PlantUML version 1.2019.06(Fri May 24 19:10:25 CEST 2019)
(APACHE source distribution)
Java Runtime: OpenJDK Runtime Environment
JVM: OpenJDK 64-Bit Server VM
Java Version: 11.0.4+10-b304.69
Operating System: Linux
OS Version: 4.15.0-64-generic
Default Encoding: UTF-8
Language: en
Country: US
--></g></svg>