<?xml version="1.0" encoding="UTF-8" standalone="no"?><svg xmlns="http://www.w3.org/2000/svg" xmlns:xlink="http://www.w3.org/1999/xlink" contentScriptType="application/ecmascript" contentStyleType="text/css" height="391px" preserveAspectRatio="none" style="width:645px;height:391px;" version="1.1" viewBox="0 0 645 391" width="645px" zoomAndPan="magnify"><defs><linearGradient id="gtgwvd7r0uexz0" x1="0%" x2="100%" y1="0%" y2="100%"><stop offset="0%" stop-color="#F0F0F0"/><stop offset="100%" stop-color="#C0C0C0"/></linearGradient><filter height="300%" id="ftgwvd7r0uexz" width="300%" x="-1" y="-1"><feGaussianBlur result="blurOut" stdDeviation="2.0"/><feColorMatrix in="blurOut" result="blurOut2" type="matrix" values="0 0 0 0 0 0 0 0 0 0 0 0 0 0 0 0 0 0 .4 0"/><feOffset dx="4.0" dy="4.0" in="blurOut2" result="blurOut3"/><feBlend in="SourceGraphic" in2="blurOut3" mode="normal"/></filter></defs><g><!--class Flying--><rect fill="url(#gtgwvd7r0uexz0)" filter="url(#ftgwvd7r0uexz)" height="32" id="Flying" style="stroke: #808080; stroke-width: 1.5;" width="65" x="549" y="8"/><ellipse cx="564" cy="24" fill="#B4A7E5" rx="11" ry="11" style="stroke: #808080; stroke-width: 1.0;"/><path d="M560.4219,19.7656 L560.4219,17.6094 L567.8125,17.6094 L567.8125,19.7656 L565.3438,19.7656 L565.3438,27.8438 L567.8125,27.8438 L567.8125,30 L560.4219,30 L560.4219,27.8438 L562.8906,27.8438 L562.8906,19.7656 L560.4219,19.7656 Z "/><text fill="#000000" font-family="sans-serif" font-size="12" font-style="italic" lengthAdjust="spacingAndGlyphs" textLength="33" x="578" y="28.1543">Flying</text><!--class Airplane--><rect fill="url(#gtgwvd7r0uexz0)" filter="url(#ftgwvd7r0uexz)" height="65.6094" id="Airplane" style="stroke: #808080; stroke-width: 1.5;" width="88" x="537.5" y="213"/><ellipse cx="557" cy="229" fill="#ADD1B2" rx="11" ry="11" style="stroke: #808080; stroke-width: 1.0;"/><path d="M559.4688,235.1406 Q558.8906,235.4375 558.25,235.5781 Q557.6094,235.7344 556.9063,235.7344 Q554.4063,235.7344 553.0781,234.0938 Q551.7656,232.4375 551.7656,229.3125 Q551.7656,226.1875 553.0781,224.5313 Q554.4063,222.875 556.9063,222.875 Q557.6094,222.875 558.25,223.0313 Q558.9063,223.1875 559.4688,223.4844 L559.4688,226.2031 Q558.8438,225.625 558.25,225.3594 Q557.6563,225.0781 557.0313,225.0781 Q555.6875,225.0781 555,226.1563 Q554.3125,227.2188 554.3125,229.3125 Q554.3125,231.4063 555,232.4844 Q555.6875,233.5469 557.0313,233.5469 Q557.6563,233.5469 558.25,233.2813 Q558.8438,233 559.4688,232.4219 L559.4688,235.1406 Z "/><text fill="#000000" font-family="sans-serif" font-size="12" lengthAdjust="spacingAndGlyphs" textLength="46" x="572" y="233.1543">Airplane</text><line style="stroke: #808080; stroke-width: 1.5;" x1="538.5" x2="624.5" y1="245" y2="245"/><text fill="#000000" font-family="sans-serif" font-size="11" lengthAdjust="spacingAndGlyphs" textLength="69" x="543.5" y="259.2104">Wing leftWing</text><text fill="#000000" font-family="sans-serif" font-size="11" lengthAdjust="spacingAndGlyphs" textLength="76" x="543.5" y="272.0151">Wing rightWing</text><path d="M299,339 L299,379.2656 A0,0 0 0 0 299,379.2656 L516,379.2656 A0,0 0 0 0 516,379.2656 L516,349 L506,339 L442.3407,339 L537.1422,274.8071 L434.3407,339 L299,339 A0,0 0 0 0 299,339 " fill="#FFFFAA" filter="url(#ftgwvd7r0uexz)" style="stroke: #808080; stroke-width: 1.0;"/><path d="M506,339 L506,349 L516,349 L506,339 " fill="#FFFFAA" style="stroke: #808080; stroke-width: 1.0;"/><text fill="#000000" font-family="sans-serif" font-size="13" lengthAdjust="spacingAndGlyphs" textLength="159" x="305" y="356.0669">This models an airplane, a</text><text fill="#000000" font-family="sans-serif" font-size="13" font-style="italic" lengthAdjust="spacingAndGlyphs" textLength="33" x="468" y="356.0669">flying</text><text fill="#000000" font-family="sans-serif" font-size="13" lengthAdjust="spacingAndGlyphs" textLength="86" x="305" y="371.1997">vehicle that is</text><text fill="#000000" font-family="sans-serif" font-size="13" font-weight="bold" lengthAdjust="spacingAndGlyphs" textLength="30" x="395" y="371.1997">very</text><text fill="#000000" font-family="sans-serif" font-size="13" lengthAdjust="spacingAndGlyphs" textLength="22" x="429" y="371.1997">fast</text><!--class Vehicle--><rect fill="url(#gtgwvd7r0uexz0)" filter="url(#ftgwvd7r0uexz)" height="32" id="Vehicle" style="stroke: #808080; stroke-width: 1.5;" width="73" x="361" y="8"/><ellipse cx="376" cy="24" fill="#ADD1B2" rx="11" ry="11" style="stroke: #808080; stroke-width: 1.0;"/><path d="M378.4688,30.1406 Q377.8906,30.4375 377.25,30.5781 Q376.6094,30.7344 375.9063,30.7344 Q373.4063,30.7344 372.0781,29.0938 Q370.7656,27.4375 370.7656,24.3125 Q370.7656,21.1875 372.0781,19.5313 Q373.4063,17.875 375.9063,17.875 Q376.6094,17.875 377.25,18.0313 Q377.9063,18.1875 378.4688,18.4844 L378.4688,21.2031 Q377.8438,20.625 377.25,20.3594 Q376.6563,20.0781 376.0313,20.0781 Q374.6875,20.0781 374,21.1563 Q373.3125,22.2188 373.3125,24.3125 Q373.3125,26.4063 374,27.4844 Q374.6875,28.5469 376.0313,28.5469 Q376.6563,28.5469 377.25,28.2813 Q377.8438,28 378.4688,27.4219 L378.4688,30.1406 Z "/><text fill="#000000" font-family="sans-serif" font-size="12" lengthAdjust="spacingAndGlyphs" textLength="41" x="390" y="28.1543">Vehicle</text><!--class GroundVehicle--><rect fill="url(#gtgwvd7r0uexz0)" filter="url(#ftgwvd7r0uexz)" height="52.8047" id="GroundVehicle" style="stroke: #808080; stroke-width: 1.5;" width="114" x="68.5" y="100"/><ellipse cx="83.5" cy="116" fill="#A9DCDF" rx="11" ry="11" style="stroke: #808080; stroke-width: 1.0;"/><path d="M83.6094,111.0938 L82.4531,116.1719 L84.7813,116.1719 L83.6094,111.0938 Z M82.125,108.8594 L85.1094,108.8594 L88.4688,121.25 L86.0156,121.25 L85.25,118.1875 L81.9688,118.1875 L81.2188,121.25 L78.7813,121.25 L82.125,108.8594 Z "/><text fill="#000000" font-family="sans-serif" font-size="12" font-style="italic" lengthAdjust="spacingAndGlyphs" textLength="82" x="97.5" y="120.1543">GroundVehicle</text><line style="stroke: #808080; stroke-width: 1.5;" x1="69.5" x2="181.5" y1="132" y2="132"/><text fill="#000000" font-family="sans-serif" font-size="11" lengthAdjust="spacingAndGlyphs" textLength="101" x="74.5" y="146.2104">int numberOfWheels</text><path d="M6,11.5 L6,36.6328 A0,0 0 0 0 6,36.6328 L121.5,36.6328 L125.5,99.6028 L129.5,36.6328 L245,36.6328 A0,0 0 0 0 245,36.6328 L245,21.5 L235,11.5 L6,11.5 A0,0 0 0 0 6,11.5 " fill="#FFFFAA" filter="url(#ftgwvd7r0uexz)" style="stroke: #808080; stroke-width: 1.0;"/><path d="M235,11.5 L235,21.5 L245,21.5 L235,11.5 " fill="#FFFFAA" style="stroke: #808080; stroke-width: 1.0;"/><text fill="#000000" font-family="sans-serif" font-size="13" lengthAdjust="spacingAndGlyphs" textLength="218" x="12" y="28.5669">A vehicle that drives on the ground</text><path d="M217.5,114 L217.5,122.5 L182.5508,126.5 L217.5,130.5 L217.5,139.1328 A0,0 0 0 0 217.5,139.1328 L493.5,139.1328 A0,0 0 0 0 493.5,139.1328 L493.5,124 L483.5,114 L217.5,114 A0,0 0 0 0 217.5,114 " fill="#FFFFAA" filter="url(#ftgwvd7r0uexz)" style="stroke: #808080; stroke-width: 1.0;"/><path d="M483.5,114 L483.5,124 L493.5,124 L483.5,114 " fill="#FFFFAA" style="stroke: #808080; stroke-width: 1.0;"/><text fill="#000000" font-family="sans-serif" font-size="13" lengthAdjust="spacingAndGlyphs" textLength="255" x="223.5" y="131.0669">Multiple notes may be attached to a type</text><!--class FlyingVehicle--><rect fill="url(#gtgwvd7r0uexz0)" filter="url(#ftgwvd7r0uexz)" height="32" id="FlyingVehicle" style="stroke: #808080; stroke-width: 1.5;" width="106" x="528.5" y="110.5"/><ellipse cx="543.5" cy="126.5" fill="#ADD1B2" rx="11" ry="11" style="stroke: #808080; stroke-width: 1.0;"/><path d="M545.9688,132.6406 Q545.3906,132.9375 544.75,133.0781 Q544.1094,133.2344 543.4063,133.2344 Q540.9063,133.2344 539.5781,131.5938 Q538.2656,129.9375 538.2656,126.8125 Q538.2656,123.6875 539.5781,122.0313 Q540.9063,120.375 543.4063,120.375 Q544.1094,120.375 544.75,120.5313 Q545.4063,120.6875 545.9688,120.9844 L545.9688,123.7031 Q545.3438,123.125 544.75,122.8594 Q544.1563,122.5781 543.5313,122.5781 Q542.1875,122.5781 541.5,123.6563 Q540.8125,124.7188 540.8125,126.8125 Q540.8125,128.9063 541.5,129.9844 Q542.1875,131.0469 543.5313,131.0469 Q544.1563,131.0469 544.75,130.7813 Q545.3438,130.5 545.9688,129.9219 L545.9688,132.6406 Z "/><text fill="#000000" font-family="sans-serif" font-size="12" lengthAdjust="spacingAndGlyphs" textLength="74" x="557.5" y="130.6543">FlyingVehicle</text><!--class Car--><rect fill="url(#gtgwvd7r0uexz0)" filter="url(#ftgwvd7r0uexz)" height="32" id="Car" style="stroke: #808080; stroke-width: 1.5;" width="51" x="100" y="343"/><ellipse cx="115" cy="359" fill="#ADD1B2" rx="11" ry="11" style="stroke: #808080; stroke-width: 1.0;"/><path d="M117.4688,365.1406 Q116.8906,365.4375 116.25,365.5781 Q115.6094,365.7344 114.9063,365.7344 Q112.4063,365.7344 111.0781,364.0938 Q109.7656,362.4375 109.7656,359.3125 Q109.7656,356.1875 111.0781,354.5313 Q112.4063,352.875 114.9063,352.875 Q115.6094,352.875 116.25,353.0313 Q116.9063,353.1875 117.4688,353.4844 L117.4688,356.2031 Q116.8438,355.625 116.25,355.3594 Q115.6563,355.0781 115.0313,355.0781 Q113.6875,355.0781 113,356.1563 Q112.3125,357.2188 112.3125,359.3125 Q112.3125,361.4063 113,362.4844 Q113.6875,363.5469 115.0313,363.5469 Q115.6563,363.5469 116.25,363.2813 Q116.8438,363 117.4688,362.4219 L117.4688,365.1406 Z "/><text fill="#000000" font-family="sans-serif" font-size="12" lengthAdjust="spacingAndGlyphs" textLength="19" x="129" y="363.1543">Car</text><!--class Train--><rect fill="url(#gtgwvd7r0uexz0)" filter="url(#ftgwvd7r0uexz)" height="52.8047" id="Train" style="stroke: #808080; stroke-width: 1.5;" width="82" x="131.5" y="219.5"/><ellipse cx="156.4" cy="235.5" fill="#ADD1B2" rx="11" ry="11" style="stroke: #808080; stroke-width: 1.0;"/><path d="M158.8688,241.6406 Q158.2906,241.9375 157.65,242.0781 Q157.0094,242.2344 156.3063,242.2344 Q153.8063,242.2344 152.4781,240.5938 Q151.1656,238.9375 151.1656,235.8125 Q151.1656,232.6875 152.4781,231.0313 Q153.8063,229.375 156.3063,229.375 Q157.0094,229.375 157.65,229.5313 Q158.3063,229.6875 158.8688,229.9844 L158.8688,232.7031 Q158.2438,232.125 157.65,231.8594 Q157.0563,231.5781 156.4313,231.5781 Q155.0875,231.5781 154.4,232.6563 Q153.7125,233.7188 153.7125,235.8125 Q153.7125,237.9063 154.4,238.9844 Q155.0875,240.0469 156.4313,240.0469 Q157.0563,240.0469 157.65,239.7813 Q158.2438,239.5 158.8688,238.9219 L158.8688,241.6406 Z "/><text fill="#000000" font-family="sans-serif" font-size="12" lengthAdjust="spacingAndGlyphs" textLength="28" x="172.6" y="239.6543">Train</text><line style="stroke: #808080; stroke-width: 1.5;" x1="132.5" x2="212.5" y1="251.5" y2="251.5"/><text fill="#000000" font-family="sans-serif" font-size="11" lengthAdjust="spacingAndGlyphs" textLength="70" x="137.5" y="265.7104">Car loadedCar</text><!--class Wing--><rect fill="url(#gtgwvd7r0uexz0)" filter="url(#ftgwvd7r0uexz)" height="32" id="Wing" style="stroke: #808080; stroke-width: 1.5;" width="60" x="551.5" y="343"/><ellipse cx="566.5" cy="359" fill="#ADD1B2" rx="11" ry="11" style="stroke: #808080; stroke-width: 1.0;"/><path d="M568.9688,365.1406 Q568.3906,365.4375 567.75,365.5781 Q567.1094,365.7344 566.4063,365.7344 Q563.9063,365.7344 562.5781,364.0938 Q561.2656,362.4375 561.2656,359.3125 Q561.2656,356.1875 562.5781,354.5313 Q563.9063,352.875 566.4063,352.875 Q567.1094,352.875 567.75,353.0313 Q568.4063,353.1875 568.9688,353.4844 L568.9688,356.2031 Q568.3438,355.625 567.75,355.3594 Q567.1563,355.0781 566.5313,355.0781 Q565.1875,355.0781 564.5,356.1563 Q563.8125,357.2188 563.8125,359.3125 Q563.8125,361.4063 564.5,362.4844 Q565.1875,363.5469 566.5313,363.5469 Q567.1563,363.5469 567.75,363.2813 Q568.3438,363 568.9688,362.4219 L568.9688,365.1406 Z "/><text fill="#000000" font-family="sans-serif" font-size="12" lengthAdjust="spacingAndGlyphs" textLength="28" x="580.5" y="363.1543">Wing</text><!--link FlyingVehicle to Airplane--><path d="M581.5,162.6839 C581.5,178.5337 581.5,197.0181 581.5,212.5437 " fill="none" id="FlyingVehicle-Airplane" style="stroke: #000000; stroke-width: 1.0;"/><polygon fill="none" points="574.5001,162.6163,581.5,142.6163,588.5001,162.6163,574.5001,162.6163" style="stroke: #000000; stroke-width: 1.0;"/><!--link Vehicle to GroundVehicle--><path d="M341.917,44.9458 C295.4826,62.444 229.531,87.2972 182.6613,104.9594 " fill="none" id="Vehicle-GroundVehicle" style="stroke: #000000; stroke-width: 1.0;"/><polygon fill="none" points="339.6332,38.326,360.8169,37.8236,344.5701,51.4266,339.6332,38.326" style="stroke: #000000; stroke-width: 1.0;"/><!--link Vehicle to FlyingVehicle--><path d="M443.9124,49.8547 C478.1012,68.9001 523.5301,94.207 552.6489,110.428 " fill="none" id="Vehicle-FlyingVehicle" style="stroke: #000000; stroke-width: 1.0;"/><polygon fill="none" points="440.3154,55.8639,426.25,40.0156,447.1285,43.6335,440.3154,55.8639" style="stroke: #000000; stroke-width: 1.0;"/><!--link Flying to FlyingVehicle--><path d="M581.5,60.0509 C581.5,77.1817 581.5,96.8035 581.5,110.2586 " fill="none" id="Flying-FlyingVehicle" style="stroke: #000000; stroke-width: 1.0; stroke-dasharray: 7.0,7.0;"/><polygon fill="none" points="574.5001,60.0157,581.5,40.0156,588.5001,60.0156,574.5001,60.0157" style="stroke: #000000; stroke-width: 1.0;"/><!--link GroundVehicle to Car--><path d="M117.791,173.4236 C116.0164,186.2222 114.3896,200.1129 113.5,213 C111.4798,242.2637 111.3183,249.7479 113.5,279 C115.1609,301.2685 119.3877,326.736 122.3524,342.8384 " fill="none" id="GroundVehicle-Car" style="stroke: #000000; stroke-width: 1.0;"/><polygon fill="none" points="110.9224,172.025,120.8131,153.2854,124.7674,174.1028,110.9224,172.025" style="stroke: #000000; stroke-width: 1.0;"/><!--link GroundVehicle to Train--><path d="M143.3035,171.7663 C149.5852,187.738 156.4449,205.179 161.9358,219.14 " fill="none" id="GroundVehicle-Train" style="stroke: #000000; stroke-width: 1.0;"/><polygon fill="none" points="136.7369,174.1952,135.9308,153.0209,149.7654,169.071,136.7369,174.1952" style="stroke: #000000; stroke-width: 1.0;"/><!--link Airplane to Wing--><path d="M569.7585,279.2925 C568.0279,298.1263 568.5246,321.1243 571.2488,337.5677 " fill="none" id="Airplane-Wing" style="stroke: #000000; stroke-width: 1.0;"/><polygon fill="#000000" points="572.258,342.8774,574.5067,333.2887,571.3241,337.9654,566.6474,334.7829,572.258,342.8774" style="stroke: #000000; stroke-width: 1.0;"/><!--link Airplane to Wing--><path d="M593.9321,279.2925 C595.7646,298.1263 595.2387,321.1243 592.3542,337.5677 " fill="none" id="Airplane-Wing-1" style="stroke: #000000; stroke-width: 1.0;"/><polygon fill="#000000" points="591.2856,342.8774,596.9828,334.8436,592.2722,337.9757,589.1401,333.2651,591.2856,342.8774" style="stroke: #000000; stroke-width: 1.0;"/><!--link Train to Car--><path d="M161.3617,272.7794 C153.0742,292.7046 141.9193,319.5237 134.2633,337.9308 " fill="none" id="Train-Car" style="stroke: #000000; stroke-width: 1.0;"/><polygon fill="#000000" points="132.202,342.8868,139.3517,336.1132,134.1223,338.2702,131.9653,333.0408,132.202,342.8868" style="stroke: #000000; stroke-width: 1.0;"/><!--
@startuml
skinparam class {
	BackgroundColor #F0F0F0/#C0C0C0
	BorderColor grey
    BackgroundColor<<new>> #e6ffe6/#b3ffb3
    BorderColor<<new>> green
    BorderColor<<new_in_context>> green
	BorderColor<<modified>> blue
	BackgroundColor<<modified>> #e6e6ff/#b3b3ff
	BackgroundColor<<required>> #ffd700/yellow
    BorderColor<<required>> orange
	ArrowColor black
}

skinParam noteBackgroundColor #FFFFAA
skinParam noteBorderColor gray
hide empty members
interface Flying

class Airplane {
    Wing leftWing
    Wing rightWing

}

note bottom of Airplane
This models an airplane, a //flying//
vehicle that is **very** fast
end note

class Vehicle

abstract class GroundVehicle {
    int numberOfWheels

}

note top of GroundVehicle
A vehicle that drives on the ground
end note

note right of GroundVehicle
Multiple notes may be attached to a type
end note

class FlyingVehicle
class Car

class Train {
    Car loadedCar

}

class Wing

FlyingVehicle <|- - Airplane
Vehicle <|- - GroundVehicle
Vehicle <|- - FlyingVehicle
Flying <|.. FlyingVehicle
GroundVehicle <|- - Car
GroundVehicle <|- - Train

Airplane - -> Wing
Airplane - -> Wing
Train - -> Car

@enduml

PlantUML version 1.2019.06(Fri May 24 19:10:25 CEST 2019)
(APACHE source distribution)
Java Runtime: OpenJDK Runtime Environment
JVM: OpenJDK 64-Bit Server VM
Java Version: 11.0.4+10-b304.77
Operating System: Linux
OS Version: 4.15.0-70-generic
Default Encoding: UTF-8
Language: en
Country: US
--></g></svg>