<?xml version="1.0" encoding="UTF-8" standalone="no"?><svg xmlns="http://www.w3.org/2000/svg" xmlns:xlink="http://www.w3.org/1999/xlink" contentScriptType="application/ecmascript" contentStyleType="text/css" height="391px" preserveAspectRatio="none" style="width:415px;height:391px;" version="1.1" viewBox="0 0 415 391" width="415px" zoomAndPan="magnify"><defs><linearGradient id="gms5950zazaxv0" x1="0%" x2="100%" y1="0%" y2="100%"><stop offset="0%" stop-color="#F0F0F0"/><stop offset="100%" stop-color="#C0C0C0"/></linearGradient><filter height="300%" id="fms5950zazaxv" width="300%" x="-1" y="-1"><feGaussianBlur result="blurOut" stdDeviation="2.0"/><feColorMatrix in="blurOut" result="blurOut2" type="matrix" values="0 0 0 0 0 0 0 0 0 0 0 0 0 0 0 0 0 0 .4 0"/><feOffset dx="4.0" dy="4.0" in="blurOut2" result="blurOut3"/><feBlend in="SourceGraphic" in2="blurOut3" mode="normal"/></filter></defs><g><!--class Vehicle--><rect fill="url(#gms5950zazaxv0)" filter="url(#fms5950zazaxv)" height="32" id="Vehicle" style="stroke: #808080; stroke-width: 1.5;" width="73" x="136" y="8"/><ellipse cx="151" cy="24" fill="#ADD1B2" rx="11" ry="11" style="stroke: #808080; stroke-width: 1.0;"/><path d="M153.4688,30.1406 Q152.8906,30.4375 152.25,30.5781 Q151.6094,30.7344 150.9063,30.7344 Q148.4063,30.7344 147.0781,29.0938 Q145.7656,27.4375 145.7656,24.3125 Q145.7656,21.1875 147.0781,19.5313 Q148.4063,17.875 150.9063,17.875 Q151.6094,17.875 152.25,18.0313 Q152.9063,18.1875 153.4688,18.4844 L153.4688,21.2031 Q152.8438,20.625 152.25,20.3594 Q151.6563,20.0781 151.0313,20.0781 Q149.6875,20.0781 149,21.1563 Q148.3125,22.2188 148.3125,24.3125 Q148.3125,26.4063 149,27.4844 Q149.6875,28.5469 151.0313,28.5469 Q151.6563,28.5469 152.25,28.2813 Q152.8438,28 153.4688,27.4219 L153.4688,30.1406 Z "/><text fill="#000000" font-family="sans-serif" font-size="12" lengthAdjust="spacingAndGlyphs" textLength="41" x="165" y="28.1543">Vehicle</text><!--class GroundVehicle--><rect fill="url(#gms5950zazaxv0)" filter="url(#fms5950zazaxv)" height="52.8047" id="GroundVehicle" style="stroke: #808080; stroke-width: 1.5;" width="114" x="68.5" y="100"/><ellipse cx="83.5" cy="116" fill="#A9DCDF" rx="11" ry="11" style="stroke: #808080; stroke-width: 1.0;"/><path d="M83.6094,111.0938 L82.4531,116.1719 L84.7813,116.1719 L83.6094,111.0938 Z M82.125,108.8594 L85.1094,108.8594 L88.4688,121.25 L86.0156,121.25 L85.25,118.1875 L81.9688,118.1875 L81.2188,121.25 L78.7813,121.25 L82.125,108.8594 Z "/><text fill="#000000" font-family="sans-serif" font-size="12" font-style="italic" lengthAdjust="spacingAndGlyphs" textLength="82" x="97.5" y="120.1543">GroundVehicle</text><line style="stroke: #808080; stroke-width: 1.5;" x1="69.5" x2="181.5" y1="132" y2="132"/><text fill="#000000" font-family="sans-serif" font-size="11" lengthAdjust="spacingAndGlyphs" textLength="101" x="74.5" y="146.2104">int numberOfWheels</text><!--class Car--><rect fill="url(#gms5950zazaxv0)" filter="url(#fms5950zazaxv)" height="32" id="Car" style="stroke: #808080; stroke-width: 1.5;" width="51" x="6" y="343"/><ellipse cx="21" cy="359" fill="#ADD1B2" rx="11" ry="11" style="stroke: #808080; stroke-width: 1.0;"/><path d="M23.4688,365.1406 Q22.8906,365.4375 22.25,365.5781 Q21.6094,365.7344 20.9063,365.7344 Q18.4063,365.7344 17.0781,364.0938 Q15.7656,362.4375 15.7656,359.3125 Q15.7656,356.1875 17.0781,354.5313 Q18.4063,352.875 20.9063,352.875 Q21.6094,352.875 22.25,353.0313 Q22.9063,353.1875 23.4688,353.4844 L23.4688,356.2031 Q22.8438,355.625 22.25,355.3594 Q21.6563,355.0781 21.0313,355.0781 Q19.6875,355.0781 19,356.1563 Q18.3125,357.2188 18.3125,359.3125 Q18.3125,361.4063 19,362.4844 Q19.6875,363.5469 21.0313,363.5469 Q21.6563,363.5469 22.25,363.2813 Q22.8438,363 23.4688,362.4219 L23.4688,365.1406 Z "/><text fill="#000000" font-family="sans-serif" font-size="12" lengthAdjust="spacingAndGlyphs" textLength="19" x="35" y="363.1543">Car</text><!--class Airplane--><rect fill="url(#gms5950zazaxv0)" filter="url(#fms5950zazaxv)" height="65.6094" id="Airplane" style="stroke: #808080; stroke-width: 1.5;" width="88" x="304.5" y="213"/><ellipse cx="324" cy="229" fill="#ADD1B2" rx="11" ry="11" style="stroke: #808080; stroke-width: 1.0;"/><path d="M326.4688,235.1406 Q325.8906,235.4375 325.25,235.5781 Q324.6094,235.7344 323.9063,235.7344 Q321.4063,235.7344 320.0781,234.0938 Q318.7656,232.4375 318.7656,229.3125 Q318.7656,226.1875 320.0781,224.5313 Q321.4063,222.875 323.9063,222.875 Q324.6094,222.875 325.25,223.0313 Q325.9063,223.1875 326.4688,223.4844 L326.4688,226.2031 Q325.8438,225.625 325.25,225.3594 Q324.6563,225.0781 324.0313,225.0781 Q322.6875,225.0781 322,226.1563 Q321.3125,227.2188 321.3125,229.3125 Q321.3125,231.4063 322,232.4844 Q322.6875,233.5469 324.0313,233.5469 Q324.6563,233.5469 325.25,233.2813 Q325.8438,233 326.4688,232.4219 L326.4688,235.1406 Z "/><text fill="#000000" font-family="sans-serif" font-size="12" lengthAdjust="spacingAndGlyphs" textLength="46" x="339" y="233.1543">Airplane</text><line style="stroke: #808080; stroke-width: 1.5;" x1="305.5" x2="391.5" y1="245" y2="245"/><text fill="#000000" font-family="sans-serif" font-size="11" lengthAdjust="spacingAndGlyphs" textLength="69" x="310.5" y="259.2104">Wing leftWing</text><text fill="#000000" font-family="sans-serif" font-size="11" lengthAdjust="spacingAndGlyphs" textLength="76" x="310.5" y="272.0151">Wing rightWing</text><path d="M92,339 L92,379.2656 A0,0 0 0 0 92,379.2656 L309,379.2656 A0,0 0 0 0 309,379.2656 L309,349 L299,339 L231.0876,339 L304.8956,279.2925 L223.0876,339 L92,339 A0,0 0 0 0 92,339 " fill="#FFFFAA" filter="url(#fms5950zazaxv)" style="stroke: #808080; stroke-width: 1.0;"/><path d="M299,339 L299,349 L309,349 L299,339 " fill="#FFFFAA" style="stroke: #808080; stroke-width: 1.0;"/><text fill="#000000" font-family="sans-serif" font-size="13" lengthAdjust="spacingAndGlyphs" textLength="159" x="98" y="356.0669">This models an airplane, a</text><text fill="#000000" font-family="sans-serif" font-size="13" font-style="italic" lengthAdjust="spacingAndGlyphs" textLength="33" x="261" y="356.0669">flying</text><text fill="#000000" font-family="sans-serif" font-size="13" lengthAdjust="spacingAndGlyphs" textLength="86" x="98" y="371.1997">vehicle that is</text><text fill="#000000" font-family="sans-serif" font-size="13" font-weight="bold" lengthAdjust="spacingAndGlyphs" textLength="30" x="188" y="371.1997">very</text><text fill="#000000" font-family="sans-serif" font-size="13" lengthAdjust="spacingAndGlyphs" textLength="26" x="222" y="371.1997">fast.</text><!--class Flying--><rect fill="url(#gms5950zazaxv0)" filter="url(#fms5950zazaxv)" height="32" id="Flying" style="stroke: #808080; stroke-width: 1.5;" width="65" x="264" y="8"/><ellipse cx="279" cy="24" fill="#B4A7E5" rx="11" ry="11" style="stroke: #808080; stroke-width: 1.0;"/><path d="M275.4219,19.7656 L275.4219,17.6094 L282.8125,17.6094 L282.8125,19.7656 L280.3438,19.7656 L280.3438,27.8438 L282.8125,27.8438 L282.8125,30 L275.4219,30 L275.4219,27.8438 L277.8906,27.8438 L277.8906,19.7656 L275.4219,19.7656 Z "/><text fill="#000000" font-family="sans-serif" font-size="12" font-style="italic" lengthAdjust="spacingAndGlyphs" textLength="33" x="293" y="28.1543">Flying</text><!--class FlyingVehicle--><rect fill="url(#gms5950zazaxv0)" filter="url(#fms5950zazaxv)" height="32" id="FlyingVehicle" style="stroke: #808080; stroke-width: 1.5;" width="106" x="243.5" y="110.5"/><ellipse cx="258.5" cy="126.5" fill="#ADD1B2" rx="11" ry="11" style="stroke: #808080; stroke-width: 1.0;"/><path d="M260.9688,132.6406 Q260.3906,132.9375 259.75,133.0781 Q259.1094,133.2344 258.4063,133.2344 Q255.9063,133.2344 254.5781,131.5938 Q253.2656,129.9375 253.2656,126.8125 Q253.2656,123.6875 254.5781,122.0313 Q255.9063,120.375 258.4063,120.375 Q259.1094,120.375 259.75,120.5313 Q260.4063,120.6875 260.9688,120.9844 L260.9688,123.7031 Q260.3438,123.125 259.75,122.8594 Q259.1563,122.5781 258.5313,122.5781 Q257.1875,122.5781 256.5,123.6563 Q255.8125,124.7188 255.8125,126.8125 Q255.8125,128.9063 256.5,129.9844 Q257.1875,131.0469 258.5313,131.0469 Q259.1563,131.0469 259.75,130.7813 Q260.3438,130.5 260.9688,129.9219 L260.9688,132.6406 Z "/><text fill="#000000" font-family="sans-serif" font-size="12" lengthAdjust="spacingAndGlyphs" textLength="74" x="272.5" y="130.6543">FlyingVehicle</text><!--class Train--><rect fill="url(#gms5950zazaxv0)" filter="url(#fms5950zazaxv)" height="52.8047" id="Train" style="stroke: #808080; stroke-width: 1.5;" width="82" x="84.5" y="219.5"/><ellipse cx="109.4" cy="235.5" fill="#ADD1B2" rx="11" ry="11" style="stroke: #808080; stroke-width: 1.0;"/><path d="M111.8688,241.6406 Q111.2906,241.9375 110.65,242.0781 Q110.0094,242.2344 109.3063,242.2344 Q106.8063,242.2344 105.4781,240.5938 Q104.1656,238.9375 104.1656,235.8125 Q104.1656,232.6875 105.4781,231.0313 Q106.8063,229.375 109.3063,229.375 Q110.0094,229.375 110.65,229.5313 Q111.3063,229.6875 111.8688,229.9844 L111.8688,232.7031 Q111.2438,232.125 110.65,231.8594 Q110.0563,231.5781 109.4313,231.5781 Q108.0875,231.5781 107.4,232.6563 Q106.7125,233.7188 106.7125,235.8125 Q106.7125,237.9063 107.4,238.9844 Q108.0875,240.0469 109.4313,240.0469 Q110.0563,240.0469 110.65,239.7813 Q111.2438,239.5 111.8688,238.9219 L111.8688,241.6406 Z "/><text fill="#000000" font-family="sans-serif" font-size="12" lengthAdjust="spacingAndGlyphs" textLength="28" x="125.6" y="239.6543">Train</text><line style="stroke: #808080; stroke-width: 1.5;" x1="85.5" x2="165.5" y1="251.5" y2="251.5"/><text fill="#000000" font-family="sans-serif" font-size="11" lengthAdjust="spacingAndGlyphs" textLength="70" x="90.5" y="265.7104">Car loadedCar</text><!--class Wing--><rect fill="url(#gms5950zazaxv0)" filter="url(#fms5950zazaxv)" height="32" id="Wing" style="stroke: #808080; stroke-width: 1.5;" width="60" x="344.5" y="343"/><ellipse cx="359.5" cy="359" fill="#ADD1B2" rx="11" ry="11" style="stroke: #808080; stroke-width: 1.0;"/><path d="M361.9688,365.1406 Q361.3906,365.4375 360.75,365.5781 Q360.1094,365.7344 359.4063,365.7344 Q356.9063,365.7344 355.5781,364.0938 Q354.2656,362.4375 354.2656,359.3125 Q354.2656,356.1875 355.5781,354.5313 Q356.9063,352.875 359.4063,352.875 Q360.1094,352.875 360.75,353.0313 Q361.4063,353.1875 361.9688,353.4844 L361.9688,356.2031 Q361.3438,355.625 360.75,355.3594 Q360.1563,355.0781 359.5313,355.0781 Q358.1875,355.0781 357.5,356.1563 Q356.8125,357.2188 356.8125,359.3125 Q356.8125,361.4063 357.5,362.4844 Q358.1875,363.5469 359.5313,363.5469 Q360.1563,363.5469 360.75,363.2813 Q361.3438,363 361.9688,362.4219 L361.9688,365.1406 Z "/><text fill="#000000" font-family="sans-serif" font-size="12" lengthAdjust="spacingAndGlyphs" textLength="28" x="373.5" y="363.1543">Wing</text><!--link Vehicle to GroundVehicle--><path d="M156.6463,58.5745 C150.4698,72.0446 143.5024,87.2394 137.726,99.8369 " fill="none" id="Vehicle-GroundVehicle" style="stroke: #000000; stroke-width: 1.0;"/><polygon fill="none" points="150.4571,55.2779,165.1563,40.0156,163.183,61.1132,150.4571,55.2779" style="stroke: #000000; stroke-width: 1.0;"/><!--link GroundVehicle to Car--><path d="M91.7266,169.4013 C82.4648,182.778 73.1541,197.9764 66.5,213 C46.761,257.5666 37.184,314.9275 33.4554,342.611 " fill="none" id="GroundVehicle-Car" style="stroke: #000000; stroke-width: 1.0;"/><polygon fill="none" points="86.214,165.0801,103.6463,153.0336,97.5311,173.3217,86.214,165.0801" style="stroke: #000000; stroke-width: 1.0;"/><!--link FlyingVehicle to Airplane--><path d="M311.536,161.0539 C318.586,177.2554 326.9527,196.4827 333.9416,212.5437 " fill="none" id="FlyingVehicle-Airplane" style="stroke: #000000; stroke-width: 1.0;"/><polygon fill="none" points="305.0745,163.7483,303.513,142.6163,317.9118,158.1622,305.0745,163.7483" style="stroke: #000000; stroke-width: 1.0;"/><!--link Vehicle to FlyingVehicle--><path d="M207.3051,52.7703 C229.7837,71.3514 258.2102,94.8491 276.8518,110.2586 " fill="none" id="Vehicle-FlyingVehicle" style="stroke: #000000; stroke-width: 1.0;"/><polygon fill="none" points="202.8304,58.1535,191.875,40.0156,211.7501,47.3628,202.8304,58.1535" style="stroke: #000000; stroke-width: 1.0;"/><!--link Flying to FlyingVehicle--><path d="M296.5,60.0509 C296.5,77.1817 296.5,96.8035 296.5,110.2586 " fill="none" id="Flying-FlyingVehicle" style="stroke: #000000; stroke-width: 1.0; stroke-dasharray: 7.0,7.0;"/><polygon fill="none" points="289.5001,60.0157,296.5,40.0156,303.5001,60.0156,289.5001,60.0157" style="stroke: #000000; stroke-width: 1.0;"/><!--link GroundVehicle to Train--><path d="M125.5,173.0932 C125.5,188.6989 125.5,205.5646 125.5,219.14 " fill="none" id="GroundVehicle-Train" style="stroke: #000000; stroke-width: 1.0;"/><polygon fill="none" points="118.5001,173.021,125.5,153.0209,132.5001,173.0209,118.5001,173.021" style="stroke: #000000; stroke-width: 1.0;"/><!--link Airplane to Wing--><path d="M344.4188,279.2925 C347.0442,298.2901 352.9107,321.5246 359.4874,337.9952 " fill="none" id="Airplane-Wing" style="stroke: #000000; stroke-width: 1.0;"/><polygon fill="#000000" points="361.5484,342.8774,361.7333,333.0303,359.6038,338.271,354.3631,336.1416,361.5484,342.8774" style="stroke: #000000; stroke-width: 1.0;"/><!--link Airplane to Wing--><path d="M368.5924,279.2925 C374.7583,298.1263 379.5239,321.1243 380.4229,337.5677 " fill="none" id="Airplane-Wing-1" style="stroke: #000000; stroke-width: 1.0;"/><polygon fill="#000000" points="380.576,342.8774,384.3149,333.7658,380.4319,337.8795,376.3182,333.9965,380.576,342.8774" style="stroke: #000000; stroke-width: 1.0;"/><!--link Train to Car--><path d="M103.2233,272.7794 C86.3651,293.0452 63.5743,320.4426 48.2475,338.8673 " fill="none" id="Train-Car" style="stroke: #000000; stroke-width: 1.0;"/><polygon fill="#000000" points="44.9039,342.8868,53.7347,338.5259,48.1015,339.0429,47.5845,333.4097,44.9039,342.8868" style="stroke: #000000; stroke-width: 1.0;"/><!--
@startuml
skinparam class {
	BackgroundColor #F0F0F0/#C0C0C0
	BorderColor grey
    BackgroundColor<<new>> #e6ffe6/#b3ffb3
    BorderColor<<new>> green
    BorderColor<<new_in_context>> green
	BorderColor<<modified>> blue
	BackgroundColor<<modified>> #e6e6ff/#b3b3ff
	BackgroundColor<<required>> #ffd700/yellow
    BorderColor<<required>> orange
	ArrowColor black
}

skinParam noteBackgroundColor #FFFFAA
skinParam noteBorderColor gray
hide empty members
class Vehicle
abstract class GroundVehicle {
int numberOfWheels
}

class Car
class Airplane {
Wing leftWing
Wing rightWing
}

note bottom of Airplane
This models an airplane, a //flying//
vehicle that is **very** fast.
end note

interface Flying
class FlyingVehicle
class Train {
Car loadedCar
}

class Wing

Vehicle <|- - GroundVehicle
GroundVehicle <|- - Car
FlyingVehicle <|- - Airplane
Vehicle <|- - FlyingVehicle
Flying <|.. FlyingVehicle
GroundVehicle <|- - Train

Airplane - -> Wing
Airplane - -> Wing
Train - -> Car

@enduml

PlantUML version 1.2019.06(Fri May 24 19:10:25 CEST 2019)
(APACHE source distribution)
Java Runtime: OpenJDK Runtime Environment
JVM: OpenJDK 64-Bit Server VM
Java Version: 11.0.4+10-b304.69
Operating System: Linux
OS Version: 4.15.0-64-generic
Default Encoding: UTF-8
Language: en
Country: US
--></g></svg>