<?xml version="1.0" encoding="UTF-8" standalone="no"?><svg xmlns="http://www.w3.org/2000/svg" xmlns:xlink="http://www.w3.org/1999/xlink" contentScriptType="application/ecmascript" contentStyleType="text/css" height="391px" preserveAspectRatio="none" style="width:758px;height:391px;" version="1.1" viewBox="0 0 758 391" width="758px" zoomAndPan="magnify"><defs><linearGradient id="gl57bjdwn8fag0" x1="0%" x2="100%" y1="0%" y2="100%"><stop offset="0%" stop-color="#F0F0F0"/><stop offset="100%" stop-color="#C0C0C0"/></linearGradient><filter height="300%" id="fl57bjdwn8fag" width="300%" x="-1" y="-1"><feGaussianBlur result="blurOut" stdDeviation="2.0"/><feColorMatrix in="blurOut" result="blurOut2" type="matrix" values="0 0 0 0 0 0 0 0 0 0 0 0 0 0 0 0 0 0 .4 0"/><feOffset dx="4.0" dy="4.0" in="blurOut2" result="blurOut3"/><feBlend in="SourceGraphic" in2="blurOut3" mode="normal"/></filter></defs><g><!--class Flying--><rect fill="url(#gl57bjdwn8fag0)" filter="url(#fl57bjdwn8fag)" height="32" id="Flying" style="stroke: #808080; stroke-width: 1.5;" width="65" x="431" y="8"/><ellipse cx="446" cy="24" fill="#B4A7E5" rx="11" ry="11" style="stroke: #808080; stroke-width: 1.0;"/><path d="M442.4219,19.7656 L442.4219,17.6094 L449.8125,17.6094 L449.8125,19.7656 L447.3438,19.7656 L447.3438,27.8438 L449.8125,27.8438 L449.8125,30 L442.4219,30 L442.4219,27.8438 L444.8906,27.8438 L444.8906,19.7656 L442.4219,19.7656 Z "/><text fill="#000000" font-family="sans-serif" font-size="12" font-style="italic" lengthAdjust="spacingAndGlyphs" textLength="33" x="460" y="28.1543">Flying</text><!--class Wing--><rect fill="url(#gl57bjdwn8fag0)" filter="url(#fl57bjdwn8fag)" height="32" id="Wing" style="stroke: #808080; stroke-width: 1.5;" width="60" x="433.5" y="343"/><ellipse cx="448.5" cy="359" fill="#ADD1B2" rx="11" ry="11" style="stroke: #808080; stroke-width: 1.0;"/><path d="M450.9688,365.1406 Q450.3906,365.4375 449.75,365.5781 Q449.1094,365.7344 448.4063,365.7344 Q445.9063,365.7344 444.5781,364.0938 Q443.2656,362.4375 443.2656,359.3125 Q443.2656,356.1875 444.5781,354.5313 Q445.9063,352.875 448.4063,352.875 Q449.1094,352.875 449.75,353.0313 Q450.4063,353.1875 450.9688,353.4844 L450.9688,356.2031 Q450.3438,355.625 449.75,355.3594 Q449.1563,355.0781 448.5313,355.0781 Q447.1875,355.0781 446.5,356.1563 Q445.8125,357.2188 445.8125,359.3125 Q445.8125,361.4063 446.5,362.4844 Q447.1875,363.5469 448.5313,363.5469 Q449.1563,363.5469 449.75,363.2813 Q450.3438,363 450.9688,362.4219 L450.9688,365.1406 Z "/><text fill="#000000" font-family="sans-serif" font-size="12" lengthAdjust="spacingAndGlyphs" textLength="28" x="462.5" y="363.1543">Wing</text><!--class Vehicle--><rect fill="url(#gl57bjdwn8fag0)" filter="url(#fl57bjdwn8fag)" height="32" id="Vehicle" style="stroke: #808080; stroke-width: 1.5;" width="73" x="302" y="8"/><ellipse cx="317" cy="24" fill="#ADD1B2" rx="11" ry="11" style="stroke: #808080; stroke-width: 1.0;"/><path d="M319.4688,30.1406 Q318.8906,30.4375 318.25,30.5781 Q317.6094,30.7344 316.9063,30.7344 Q314.4063,30.7344 313.0781,29.0938 Q311.7656,27.4375 311.7656,24.3125 Q311.7656,21.1875 313.0781,19.5313 Q314.4063,17.875 316.9063,17.875 Q317.6094,17.875 318.25,18.0313 Q318.9063,18.1875 319.4688,18.4844 L319.4688,21.2031 Q318.8438,20.625 318.25,20.3594 Q317.6563,20.0781 317.0313,20.0781 Q315.6875,20.0781 315,21.1563 Q314.3125,22.2188 314.3125,24.3125 Q314.3125,26.4063 315,27.4844 Q315.6875,28.5469 317.0313,28.5469 Q317.6563,28.5469 318.25,28.2813 Q318.8438,28 319.4688,27.4219 L319.4688,30.1406 Z "/><text fill="#000000" font-family="sans-serif" font-size="12" lengthAdjust="spacingAndGlyphs" textLength="41" x="331" y="28.1543">Vehicle</text><!--class GroundVehicle--><rect fill="url(#gl57bjdwn8fag0)" filter="url(#fl57bjdwn8fag)" height="52.8047" id="GroundVehicle" style="stroke: #808080; stroke-width: 1.5;" width="114" x="68.5" y="100"/><ellipse cx="83.5" cy="116" fill="#A9DCDF" rx="11" ry="11" style="stroke: #808080; stroke-width: 1.0;"/><path d="M83.6094,111.0938 L82.4531,116.1719 L84.7813,116.1719 L83.6094,111.0938 Z M82.125,108.8594 L85.1094,108.8594 L88.4688,121.25 L86.0156,121.25 L85.25,118.1875 L81.9688,118.1875 L81.2188,121.25 L78.7813,121.25 L82.125,108.8594 Z "/><text fill="#000000" font-family="sans-serif" font-size="12" font-style="italic" lengthAdjust="spacingAndGlyphs" textLength="82" x="97.5" y="120.1543">GroundVehicle</text><line style="stroke: #808080; stroke-width: 1.5;" x1="69.5" x2="181.5" y1="132" y2="132"/><text fill="#000000" font-family="sans-serif" font-size="11" lengthAdjust="spacingAndGlyphs" textLength="101" x="74.5" y="146.2104">int numberOfWheels</text><path d="M6,11.5 L6,36.6328 A0,0 0 0 0 6,36.6328 L121.5,36.6328 L125.5,99.6028 L129.5,36.6328 L245,36.6328 A0,0 0 0 0 245,36.6328 L245,21.5 L235,11.5 L6,11.5 A0,0 0 0 0 6,11.5 " fill="#FFFFAA" filter="url(#fl57bjdwn8fag)" style="stroke: #808080; stroke-width: 1.0;"/><path d="M235,11.5 L235,21.5 L245,21.5 L235,11.5 " fill="#FFFFAA" style="stroke: #808080; stroke-width: 1.0;"/><text fill="#000000" font-family="sans-serif" font-size="13" lengthAdjust="spacingAndGlyphs" textLength="218" x="12" y="28.5669">A vehicle that drives on the ground</text><path d="M217.5,106.5 L217.5,122.5 L182.6113,126.5 L217.5,130.5 L217.5,146.7656 A0,0 0 0 0 217.5,146.7656 L375.5,146.7656 A0,0 0 0 0 375.5,146.7656 L375.5,116.5 L365.5,106.5 L217.5,106.5 A0,0 0 0 0 217.5,106.5 " fill="#FFFFAA" filter="url(#fl57bjdwn8fag)" style="stroke: #808080; stroke-width: 1.0;"/><path d="M365.5,106.5 L365.5,116.5 L375.5,116.5 L365.5,106.5 " fill="#FFFFAA" style="stroke: #808080; stroke-width: 1.0;"/><text fill="#000000" font-family="sans-serif" font-size="13" lengthAdjust="spacingAndGlyphs" textLength="137" x="223.5" y="123.5669">Multiple notes may be</text><text fill="#000000" font-family="sans-serif" font-size="13" lengthAdjust="spacingAndGlyphs" textLength="114" x="223.5" y="138.6997">attached to a type</text><!--class FlyingVehicle--><rect fill="url(#gl57bjdwn8fag0)" filter="url(#fl57bjdwn8fag)" height="32" id="FlyingVehicle" style="stroke: #808080; stroke-width: 1.5;" width="106" x="410.5" y="110.5"/><ellipse cx="425.5" cy="126.5" fill="#ADD1B2" rx="11" ry="11" style="stroke: #808080; stroke-width: 1.0;"/><path d="M427.9688,132.6406 Q427.3906,132.9375 426.75,133.0781 Q426.1094,133.2344 425.4063,133.2344 Q422.9063,133.2344 421.5781,131.5938 Q420.2656,129.9375 420.2656,126.8125 Q420.2656,123.6875 421.5781,122.0313 Q422.9063,120.375 425.4063,120.375 Q426.1094,120.375 426.75,120.5313 Q427.4063,120.6875 427.9688,120.9844 L427.9688,123.7031 Q427.3438,123.125 426.75,122.8594 Q426.1563,122.5781 425.5313,122.5781 Q424.1875,122.5781 423.5,123.6563 Q422.8125,124.7188 422.8125,126.8125 Q422.8125,128.9063 423.5,129.9844 Q424.1875,131.0469 425.5313,131.0469 Q426.1563,131.0469 426.75,130.7813 Q427.3438,130.5 427.9688,129.9219 L427.9688,132.6406 Z "/><text fill="#000000" font-family="sans-serif" font-size="12" lengthAdjust="spacingAndGlyphs" textLength="74" x="439.5" y="130.6543">FlyingVehicle</text><!--class Airplane--><rect fill="url(#gl57bjdwn8fag0)" filter="url(#fl57bjdwn8fag)" height="65.6094" id="Airplane" style="stroke: #808080; stroke-width: 1.5;" width="88" x="419.5" y="213"/><ellipse cx="439" cy="229" fill="#ADD1B2" rx="11" ry="11" style="stroke: #808080; stroke-width: 1.0;"/><path d="M441.4688,235.1406 Q440.8906,235.4375 440.25,235.5781 Q439.6094,235.7344 438.9063,235.7344 Q436.4063,235.7344 435.0781,234.0938 Q433.7656,232.4375 433.7656,229.3125 Q433.7656,226.1875 435.0781,224.5313 Q436.4063,222.875 438.9063,222.875 Q439.6094,222.875 440.25,223.0313 Q440.9063,223.1875 441.4688,223.4844 L441.4688,226.2031 Q440.8438,225.625 440.25,225.3594 Q439.6563,225.0781 439.0313,225.0781 Q437.6875,225.0781 437,226.1563 Q436.3125,227.2188 436.3125,229.3125 Q436.3125,231.4063 437,232.4844 Q437.6875,233.5469 439.0313,233.5469 Q439.6563,233.5469 440.25,233.2813 Q440.8438,233 441.4688,232.4219 L441.4688,235.1406 Z "/><text fill="#000000" font-family="sans-serif" font-size="12" lengthAdjust="spacingAndGlyphs" textLength="46" x="454" y="233.1543">Airplane</text><line style="stroke: #808080; stroke-width: 1.5;" x1="420.5" x2="506.5" y1="245" y2="245"/><text fill="#000000" font-family="sans-serif" font-size="11" lengthAdjust="spacingAndGlyphs" textLength="69" x="425.5" y="259.2104">Wing leftWing</text><text fill="#000000" font-family="sans-serif" font-size="11" lengthAdjust="spacingAndGlyphs" textLength="76" x="425.5" y="272.0151">Wing rightWing</text><path d="M529,339 L529,379.2656 A0,0 0 0 0 529,379.2656 L746,379.2656 A0,0 0 0 0 746,379.2656 L746,349 L736,339 L610.6593,339 L507.8578,274.8071 L602.6593,339 L529,339 A0,0 0 0 0 529,339 " fill="#FFFFAA" filter="url(#fl57bjdwn8fag)" style="stroke: #808080; stroke-width: 1.0;"/><path d="M736,339 L736,349 L746,349 L736,339 " fill="#FFFFAA" style="stroke: #808080; stroke-width: 1.0;"/><text fill="#000000" font-family="sans-serif" font-size="13" lengthAdjust="spacingAndGlyphs" textLength="159" x="535" y="356.0669">This models an airplane, a</text><text fill="#000000" font-family="sans-serif" font-size="13" font-style="italic" lengthAdjust="spacingAndGlyphs" textLength="33" x="698" y="356.0669">flying</text><text fill="#000000" font-family="sans-serif" font-size="13" lengthAdjust="spacingAndGlyphs" textLength="86" x="535" y="371.1997">vehicle that is</text><text fill="#000000" font-family="sans-serif" font-size="13" font-weight="bold" lengthAdjust="spacingAndGlyphs" textLength="30" x="625" y="371.1997">very</text><text fill="#000000" font-family="sans-serif" font-size="13" lengthAdjust="spacingAndGlyphs" textLength="22" x="659" y="371.1997">fast</text><!--class Train--><rect fill="url(#gl57bjdwn8fag0)" filter="url(#fl57bjdwn8fag)" height="52.8047" id="Train" style="stroke: #808080; stroke-width: 1.5;" width="82" x="37.5" y="219.5"/><ellipse cx="62.4" cy="235.5" fill="#ADD1B2" rx="11" ry="11" style="stroke: #808080; stroke-width: 1.0;"/><path d="M64.8688,241.6406 Q64.2906,241.9375 63.65,242.0781 Q63.0094,242.2344 62.3063,242.2344 Q59.8063,242.2344 58.4781,240.5938 Q57.1656,238.9375 57.1656,235.8125 Q57.1656,232.6875 58.4781,231.0313 Q59.8063,229.375 62.3063,229.375 Q63.0094,229.375 63.65,229.5313 Q64.3063,229.6875 64.8688,229.9844 L64.8688,232.7031 Q64.2438,232.125 63.65,231.8594 Q63.0563,231.5781 62.4313,231.5781 Q61.0875,231.5781 60.4,232.6563 Q59.7125,233.7188 59.7125,235.8125 Q59.7125,237.9063 60.4,238.9844 Q61.0875,240.0469 62.4313,240.0469 Q63.0563,240.0469 63.65,239.7813 Q64.2438,239.5 64.8688,238.9219 L64.8688,241.6406 Z "/><text fill="#000000" font-family="sans-serif" font-size="12" lengthAdjust="spacingAndGlyphs" textLength="28" x="78.6" y="239.6543">Train</text><line style="stroke: #808080; stroke-width: 1.5;" x1="38.5" x2="118.5" y1="251.5" y2="251.5"/><text fill="#000000" font-family="sans-serif" font-size="11" lengthAdjust="spacingAndGlyphs" textLength="70" x="43.5" y="265.7104">Car loadedCar</text><!--class Car--><rect fill="url(#gl57bjdwn8fag0)" filter="url(#fl57bjdwn8fag)" height="32" id="Car" style="stroke: #808080; stroke-width: 1.5;" width="51" x="100" y="343"/><ellipse cx="115" cy="359" fill="#ADD1B2" rx="11" ry="11" style="stroke: #808080; stroke-width: 1.0;"/><path d="M117.4688,365.1406 Q116.8906,365.4375 116.25,365.5781 Q115.6094,365.7344 114.9063,365.7344 Q112.4063,365.7344 111.0781,364.0938 Q109.7656,362.4375 109.7656,359.3125 Q109.7656,356.1875 111.0781,354.5313 Q112.4063,352.875 114.9063,352.875 Q115.6094,352.875 116.25,353.0313 Q116.9063,353.1875 117.4688,353.4844 L117.4688,356.2031 Q116.8438,355.625 116.25,355.3594 Q115.6563,355.0781 115.0313,355.0781 Q113.6875,355.0781 113,356.1563 Q112.3125,357.2188 112.3125,359.3125 Q112.3125,361.4063 113,362.4844 Q113.6875,363.5469 115.0313,363.5469 Q115.6563,363.5469 116.25,363.2813 Q116.8438,363 117.4688,362.4219 L117.4688,365.1406 Z "/><text fill="#000000" font-family="sans-serif" font-size="12" lengthAdjust="spacingAndGlyphs" textLength="19" x="129" y="363.1543">Car</text><!--link Vehicle to GroundVehicle--><path d="M287.0596,48.7542 C254.9799,64.1916 213.7069,84.053 180.9072,99.8369 " fill="none" id="Vehicle-GroundVehicle" style="stroke: #000000; stroke-width: 1.0;"/><polygon fill="none" points="284.1615,42.3805,305.2188,40.0156,290.2323,54.9958,284.1615,42.3805" style="stroke: #000000; stroke-width: 1.0;"/><!--link Vehicle to FlyingVehicle--><path d="M373.5858,52.7703 C396.2457,71.3514 424.9014,94.8491 443.6934,110.2586 " fill="none" id="Vehicle-FlyingVehicle" style="stroke: #000000; stroke-width: 1.0;"/><polygon fill="none" points="369.0581,58.1101,358.0313,40.0156,377.9352,47.2844,369.0581,58.1101" style="stroke: #000000; stroke-width: 1.0;"/><!--link Flying to FlyingVehicle--><path d="M463.5,60.0509 C463.5,77.1817 463.5,96.8035 463.5,110.2586 " fill="none" id="Flying-FlyingVehicle" style="stroke: #000000; stroke-width: 1.0; stroke-dasharray: 7.0,7.0;"/><polygon fill="none" points="456.5001,60.0157,463.5,40.0156,470.5001,60.0156,456.5001,60.0157" style="stroke: #000000; stroke-width: 1.0;"/><!--link FlyingVehicle to Airplane--><path d="M463.5,162.6839 C463.5,178.5337 463.5,197.0181 463.5,212.5437 " fill="none" id="FlyingVehicle-Airplane" style="stroke: #000000; stroke-width: 1.0;"/><polygon fill="none" points="456.5001,162.6163,463.5,142.6163,470.5001,162.6163,456.5001,162.6163" style="stroke: #000000; stroke-width: 1.0;"/><!--link GroundVehicle to Train--><path d="M107.6965,171.7663 C101.4148,187.738 94.5551,205.179 89.0642,219.14 " fill="none" id="GroundVehicle-Train" style="stroke: #000000; stroke-width: 1.0;"/><polygon fill="none" points="101.2346,169.071,115.0692,153.0209,114.2631,174.1952,101.2346,169.071" style="stroke: #000000; stroke-width: 1.0;"/><!--link GroundVehicle to Car--><path d="M132.567,173.4432 C134.1937,186.2417 135.6848,200.1275 136.5,213 C138.3539,242.2747 138.5025,249.7351 136.5,279 C134.9782,301.2391 131.1034,326.7137 128.3856,342.8257 " fill="none" id="GroundVehicle-Car" style="stroke: #000000; stroke-width: 1.0;"/><polygon fill="none" points="125.5872,174.0685,129.7966,153.3012,139.4566,172.1608,125.5872,174.0685" style="stroke: #000000; stroke-width: 1.0;"/><!--link Airplane to Wing--><path d="M451.7585,279.2925 C450.0279,298.1263 450.5246,321.1243 453.2488,337.5677 " fill="none" id="Airplane-Wing" style="stroke: #000000; stroke-width: 1.0;"/><polygon fill="#000000" points="454.258,342.8774,456.5067,333.2887,453.3241,337.9654,448.6474,334.7829,454.258,342.8774" style="stroke: #000000; stroke-width: 1.0;"/><!--link Airplane to Wing--><path d="M475.9321,279.2925 C477.7646,298.1263 477.2387,321.1243 474.3542,337.5677 " fill="none" id="Airplane-Wing-1" style="stroke: #000000; stroke-width: 1.0;"/><polygon fill="#000000" points="473.2856,342.8774,478.9828,334.8436,474.2722,337.9757,471.1401,333.2651,473.2856,342.8774" style="stroke: #000000; stroke-width: 1.0;"/><!--link Train to Car--><path d="M89.6383,272.7794 C97.9258,292.7046 109.0807,319.5237 116.7367,337.9308 " fill="none" id="Train-Car" style="stroke: #000000; stroke-width: 1.0;"/><polygon fill="#000000" points="118.798,342.8868,119.0347,333.0408,116.8777,338.2702,111.6483,336.1132,118.798,342.8868" style="stroke: #000000; stroke-width: 1.0;"/><!--
@startuml
skinparam class {
	BackgroundColor #F0F0F0/#C0C0C0
	BorderColor grey
    BackgroundColor<<new>> #e6ffe6/#b3ffb3
    BorderColor<<new>> green
    BorderColor<<new_in_context>> green
	BorderColor<<modified>> blue
	BackgroundColor<<modified>> #e6e6ff/#b3b3ff
	BackgroundColor<<required>> #ffd700/yellow
    BorderColor<<required>> orange
	ArrowColor black
}

skinParam noteBackgroundColor #FFFFAA
skinParam noteBorderColor gray
hide empty members
interface Flying
class Wing
class Vehicle

abstract class GroundVehicle {
    int numberOfWheels

}

note top of GroundVehicle
A vehicle that drives on the ground
end note

note right of GroundVehicle
Multiple notes may be
attached to a type
end note

class FlyingVehicle

class Airplane {
    Wing leftWing
    Wing rightWing

}

note bottom of Airplane
This models an airplane, a //flying//
vehicle that is **very** fast
end note


class Train {
    Car loadedCar

}

class Car

Vehicle <|- - GroundVehicle
Vehicle <|- - FlyingVehicle
Flying <|.. FlyingVehicle
FlyingVehicle <|- - Airplane
GroundVehicle <|- - Train
GroundVehicle <|- - Car

Airplane - -> Wing
Airplane - -> Wing
Train - -> Car

@enduml

PlantUML version 1.2019.06(Fri May 24 19:10:25 CEST 2019)
(APACHE source distribution)
Java Runtime: OpenJDK Runtime Environment
JVM: OpenJDK 64-Bit Server VM
Java Version: 11.0.4+10-b520.11
Operating System: Linux
OS Version: 4.15.0-72-generic
Default Encoding: UTF-8
Language: en
Country: US
--></g></svg>